<svg version="1.1" id="Merchant-Icon" xmlns="http://www.w3.org/2000/svg" x="0" y="0" width="112.25" height="112.25" xml:space="preserve"><style><![CDATA[.st0{fill:#482402}.st1{fill:#7C7D80}.st2{opacity:0.6;fill:#3333FF}.st3{fill:#4F0066}.st4{fill:#4F4F4F}.st5{fill:#B35800}.st7{fill:#B85739}.st8{opacity:0.6;fill:#7003A3}.st9{opacity:0.6;fill:#70ABF1}.st10{fill:#8C0039}.st11{fill:#231F20}.st12{opacity:0.6;fill:#414042}.st13{clip-path:url(#SVGID_2_)}.st14{fill:#C1C1C1}.st15{fill:#FCD001}.st16{fill:#FF0000}.st17{fill:#FF963B}.st18{fill:#FFFBF2}.st19{opacity:0.6;fill:#B30000}.st20{fill:none;stroke:#58595B;stroke-width:3;stroke-miterlimit:10}.st21{opacity:0.6;fill:#B8CCCC}.st22{fill:#6BB2B0}.st23{fill:#0000B2}.st24{fill:#0071BC}.st25{fill:#00AAFF}.st26{opacity:0.6;clip-path:url(#SVGID_2_);fill:#58595B}.st27{fill:#D04DF7}.st28{fill:#D1EBFF}.st29{fill:#D5D5D5}.st31{opacity:0.6;fill:#F27202}.st32{opacity:0.6;fill:#F77C00}.st33{fill:#753802}.st34{opacity:0.6;fill:#5E5E5E}.st35{fill:#A7A9AC}.st36{opacity:0.6;fill:#93320F}.st38{fill:#414042}]]></style><g id="Green"><path d="M54.214 4.435c9.563 0 19.121 2.529 21.896 6.566 2.216 3.224 24.102 75.072 24.44 78.905.45 5.108-10.924 17.906-45.061 17.906-.514 0-1.031-.003-1.556-.009-37.25-.417-42.411-15.714-42.244-20.396.148-4.17 17.025-70.873 22.09-76.643 3.899-4.439 12.169-6.329 20.435-6.329m.001-4c-5.019 0-17.347.75-23.44 7.692-.979 1.114-3.955 4.505-13.742 40.511-3.747 13.778-9.227 35.462-9.34 38.628-.054 1.485.181 6.758 5.416 12.244 7.575 7.939 21.296 12.076 40.78 12.293.54.006 1.072.009 1.601.009 29.744 0 41.567-9.404 45.27-13.447 2.678-2.924 4.019-6.053 3.775-8.811-.302-3.417-10.514-36.719-11.677-40.505C81.328 11.531 79.882 9.427 79.406 8.735c-4.213-6.127-16.203-8.3-25.191-8.3z"/><path d="M53.918 109.304c-23.399-.262-34.124-6.409-39-11.52-3.624-3.797-4.817-7.877-4.727-10.43.134-3.756 17.086-71.178 22.44-77.554 5.203-6.194 16.728-6.863 21.44-6.863 8.82 0 19.866 2.257 23.274 7.213 2.712 3.945 24.403 76.292 24.698 79.623.181 2.051-.931 4.502-3.129 6.903-3.479 3.799-14.675 12.635-43.426 12.635-.517.002-1.041-.001-1.57-.007z" fill="#0edd1d"/><path d="M54.072 4.438c9.604 0 19.263 2.527 22.038 6.563 2.216 3.224 24.102 75.072 24.44 78.905.45 5.108-10.924 17.906-45.061 17.906-.514 0-1.031-.003-1.556-.009-37.25-.417-42.411-15.714-42.244-20.396.148-4.17 17.152-70.764 22.09-76.643 3.729-4.436 11.991-6.326 20.293-6.326m.428-3v3V1h-.215c-4.924 0-17.087.94-22.695 7.617-2.45 2.918-7.024 16.52-13.491 40.211-4.344 15.918-9.281 35.643-9.38 38.418-.05 1.387.162 6.342 5.127 11.545 5.076 5.319 16.141 11.73 40.063 11.998.535.006 1.061.016 1.585.016 29.348 0 40.918-9.173 44.531-13.119 2.485-2.715 3.734-5.571 3.516-8.045-.298-3.373-11.175-38.792-11.638-40.299C86.664 32.293 80.313 11.507 78.797 9.3 75.06 3.869 63.5 1.438 54.5 1.438z" fill="#086800"/><path id="head_9_" d="M34.088 10.354c-1.266 1.705-.461 8.992 16.543 10.119 17.289 1.144 18.254-1.825 18.754-1.486l19.648 82.791s10.246-4.488 11.496-10.906c.287-1.479-1.334-5.905-4.168-16.002-2.949-10.508-8.225-26.55-12.332-40.33-5.168-17.33-8.002-23.553-8.002-23.553S71.926 4.838 55.611 4.49c-15.017-.322-20.257 4.156-21.523 5.864z" opacity=".7" fill="#4da45f"/></g></svg>