<svg version="1.1" id="Merchant-Icon" xmlns="http://www.w3.org/2000/svg" x="0" y="0" width="112.25" height="112.25" xml:space="preserve"><style><![CDATA[.st0{fill:#482402}.st1{fill:#7C7D80}.st2{opacity:0.6;fill:#3333FF}.st3{fill:#4F0066}.st4{fill:#4F4F4F}.st5{fill:#B35800}.st6{opacity:0.7;fill:#4DA45F}.st7{fill:#B85739}.st8{opacity:0.6;fill:#7003A3}.st9{opacity:0.6;fill:#70ABF1}.st11{fill:#231F20}.st12{opacity:0.6;fill:#414042}.st13{clip-path:url(#SVGID_2_)}.st14{fill:#C1C1C1}.st15{fill:#FCD001}.st17{fill:#FF963B}.st18{fill:#FFFBF2}.st20{fill:none;stroke:#58595B;stroke-width:3;stroke-miterlimit:10}.st21{opacity:0.6;fill:#B8CCCC}.st22{fill:#6BB2B0}.st23{fill:#0000B2}.st24{fill:#0071BC}.st25{fill:#00AAFF}.st26{opacity:0.6;clip-path:url(#SVGID_2_);fill:#58595B}.st27{fill:#D04DF7}.st28{fill:#D1EBFF}.st29{fill:#D5D5D5}.st30{fill:#086800}.st31{opacity:0.6;fill:#F27202}.st32{opacity:0.6;fill:#F77C00}.st33{fill:#753802}.st34{opacity:0.6;fill:#5E5E5E}.st35{fill:#A7A9AC}.st36{opacity:0.6;fill:#93320F}.st37{fill:#0EDD1D}.st38{fill:#414042}]]></style><g id="Red"><path d="M54.463 4.238c9.499 0 18.923 2.564 21.647 6.763 2.13 3.282 24.102 75.072 24.44 78.906.45 5.109-10.924 17.906-45.061 17.906-.514 0-1.031-.003-1.556-.009-37.25-.417-42.411-15.714-42.244-20.395.148-4.171 17.038-70.862 22.09-76.644 3.985-4.559 12.364-6.527 20.684-6.527m0-4c-5.05 0-17.469.77-23.694 7.895-.976 1.116-3.942 4.512-13.731 40.508-3.748 13.781-9.231 35.465-9.344 38.625-.054 1.485.181 6.757 5.416 12.244 7.575 7.939 21.296 12.075 40.78 12.293.54.006 1.072.009 1.601.009 29.745 0 41.567-9.403 45.27-13.446 2.678-2.924 4.019-6.053 3.775-8.811-.29-3.289-9.806-34.302-11.71-40.486-7.648-24.829-12.142-38.37-13.36-40.246C75.354 2.487 63.427.238 54.463.238z"/><path d="M53.918 109.304c-23.398-.262-34.124-6.409-39-11.52-3.624-3.797-4.817-7.877-4.727-10.429.134-3.757 17.086-71.179 22.44-77.555 5.203-6.194 16.727-6.862 21.439-6.862 8.821 0 19.867 2.257 23.275 7.213 2.712 3.946 24.403 76.292 24.698 79.624.181 2.051-.931 4.502-3.129 6.903-3.479 3.799-14.674 12.635-43.426 12.635-.517 0-1.041-.003-1.57-.009z" fill="red"/><path d="M54.071 4.438c9.604 0 19.264 2.527 22.039 6.563 2.216 3.224 24.102 75.072 24.44 78.906.45 5.109-10.924 17.906-45.061 17.906-.514 0-1.031-.003-1.556-.009-37.25-.417-42.411-15.714-42.244-20.395.148-4.171 17.152-70.764 22.09-76.644 3.729-4.437 11.99-6.327 20.292-6.327M54.073 1h-.002c-4.923 0-16.979.94-22.588 7.616-2.451 2.918-6.972 16.52-13.438 40.212-4.344 15.918-9.254 35.644-9.353 38.419-.05 1.387.175 6.342 5.14 11.545 5.076 5.319 16.147 11.73 40.069 11.998.535.006 1.064.016 1.589.016 29.348 0 40.919-9.173 44.532-13.118 2.485-2.715 3.735-5.571 3.517-8.046-.298-3.372-11.174-38.792-11.637-40.298C86.663 32.294 80.1 11.289 78.583 9.083 74.847 3.65 63.581 1 54.073 1z" fill="#8c0039"/><path id="head_1_" d="M34.088 10.353c-1.266 1.706-.461 8.992 16.543 10.119 17.289 1.144 18.254-1.825 18.754-1.486l19.648 82.791s10.246-4.487 11.496-10.906c.287-1.479-1.334-5.905-4.168-16.001-2.949-10.508-8.225-26.55-12.332-40.33-5.168-17.331-8.002-23.553-8.002-23.553S71.926 4.838 55.611 4.49c-15.017-.322-20.257 4.156-21.523 5.863z" opacity=".6" fill="#b30000"/></g></svg>