<svg version="1.1" id="Yellow-Merchant-Icon" xmlns="http://www.w3.org/2000/svg" x="0" y="0" width="112.25" height="112.25" xml:space="preserve">
  <g id="Yellow_Theme">
    <path d="M54.072 4.438c9.603 0 19.263 2.527 22.039 6.563 2.216 3.224 24.102 75.072 24.44 78.905.45 5.108-10.924 17.906-45.06 17.906-.514 0-1.032-.003-1.556-.009-37.25-.417-42.411-15.714-42.244-20.396.148-4.17 17.152-70.764 22.09-76.643 3.727-4.436 11.988-6.326 20.291-6.326M54.073 0h-.001c-5.063 0-17.474.975-23.354 7.974-.949 1.129-3.834 4.675-13.637 40.591-3.864 14.156-9.275 35.498-9.388 38.646-.053 1.485.181 6.785 5.416 12.271 7.576 7.939 21.296 12.089 40.781 12.307.54.006 1.072.016 1.601.016 29.744 0 41.566-9.4 45.269-13.443 2.678-2.924 4.019-6.052 3.775-8.809-.302-3.418-10.514-36.718-11.677-40.504C81.329 11.53 79.882 9.208 79.407 8.516 75.195 2.392 63.127 0 54.073 0z" fill="#000000"/>
    
    <path d="M53.918 109.304c-23.399-.262-34.124-6.409-39-11.52-3.624-3.797-4.817-7.877-4.726-10.43.134-3.756 17.086-71.178 22.44-77.554 5.204-6.194 16.727-6.862 21.44-6.862 8.821 0 19.867 2.257 23.274 7.213 2.712 3.946 24.404 76.292 24.699 79.623.181 2.051-.931 4.502-3.129 6.903-3.479 3.799-14.675 12.635-43.425 12.635-.52.001-1.043-.002-1.573-.008z" fill="#FFD700"/>
    
    <path d="M54.072 4.438c9.603 0 19.263 2.527 22.039 6.563 2.216 3.224 24.102 75.072 24.44 78.905.45 5.108-10.924 17.906-45.06 17.906-.514 0-1.032-.003-1.556-.009-37.25-.417-42.411-15.714-42.244-20.396.148-4.17 17.152-70.764 22.09-76.643 3.727-4.436 11.988-6.326 20.291-6.326M54.073 1h-.001c-4.923 0-16.979.94-22.588 7.616-2.451 2.918-6.972 16.52-13.438 40.212-4.345 15.918-9.254 35.643-9.353 38.418-.049 1.387.175 6.342 5.14 11.545 5.076 5.319 16.147 11.73 40.068 11.998.536.006 1.064.016 1.59.016 29.347 0 40.918-9.173 44.531-13.119 2.486-2.715 3.735-5.571 3.517-8.045-.298-3.373-11.174-38.792-11.637-40.298-5.239-17.049-11.803-38.054-13.319-40.26C74.847 3.65 63.581 1 54.073 1z" fill="#B8860B"/>
    
    <path id="head_5_" d="M34.088 10.353c-1.266 1.706-.461 8.992 16.543 10.119 17.289 1.144 18.254-1.825 18.754-1.486l19.648 82.792s10.246-4.488 11.496-10.906c.287-1.479-1.334-5.905-4.168-16.002-2.949-10.508-8.225-26.55-12.332-40.33-5.168-17.331-8.002-23.553-8.002-23.553S71.926 4.838 55.611 4.49c-15.017-.322-20.257 4.156-21.523 5.863z" opacity=".6" fill="#FFFACD"/>
  </g>
</svg>