<svg width="200" height="200" viewBox="0 0 200 200" fill="none" xmlns="http://www.w3.org/2000/svg">
<path d="M167.685 188.538H29.525C18.054 188.538 8.67 179.153 8.67 167.683V29.523C8.67 18.052 18.055 8.66797 29.525 8.66797H167.684C179.155 8.66797 188.539 18.053 188.539 29.523V167.682C188.54 179.153 179.155 188.538 167.685 188.538Z" fill="url(#paint0_radial_930_4486)"/>
<path d="M168.015 8.66797C179.486 8.66797 188.87 18.053 188.87 29.523V167.682C188.87 179.153 179.485 188.537 168.015 188.537H29.8551C18.3841 188.537 9.00008 179.152 9.00008 167.682V29.523C9.00008 18.052 18.3851 8.66797 29.8551 8.66797H168.015ZM168.015 4.66797H29.8551C16.1491 4.66797 5.00008 15.818 5.00008 29.523V167.682C5.00008 181.387 16.1491 192.537 29.8551 192.537H168.014C181.719 192.537 192.869 181.387 192.869 167.682V29.523C192.87 15.818 181.72 4.66797 168.015 4.66797Z" fill="#223948"/>
<path d="M35.151 82.1861C34.9606 82.1752 34.7807 82.095 34.6454 81.9604C34.5102 81.8259 34.4289 81.6465 34.417 81.4561L34.124 77.0551C34.115 76.8501 34.183 76.6501 34.314 76.4931L48.814 59.1001C48.888 59.0161 48.978 58.9481 49.08 58.9021C49.182 58.8561 49.292 58.8321 49.404 58.8321C49.516 58.8321 49.626 58.8561 49.728 58.9021C49.83 58.9481 49.921 59.0161 49.994 59.1001L64.501 76.5031C64.5765 76.5988 64.6295 76.7102 64.656 76.8291C64.6825 76.9481 64.6818 77.0715 64.654 77.1901L63.605 81.5911C63.564 81.7561 63.471 81.9041 63.338 82.0111C63.205 82.1181 63.042 82.1801 62.872 82.1861H35.151ZM83.749 66.4331C83.552 66.4281 83.364 66.3501 83.221 66.2141C83.078 66.0781 82.992 65.8941 82.978 65.6971L82.693 61.2961C82.6838 61.1067 82.7438 60.9204 82.862 60.7721L97.377 43.3501C97.45 43.2651 97.542 43.1961 97.644 43.1491C97.746 43.1021 97.858 43.0781 97.97 43.0781C98.082 43.0781 98.194 43.1021 98.296 43.1491C98.398 43.1961 98.49 43.2651 98.563 43.3501L113.063 60.7561C113.138 60.8491 113.192 60.9571 113.22 61.0741C113.248 61.1903 113.25 61.3112 113.225 61.4281L112.175 65.8361C112.13 65.9994 112.035 66.1445 111.903 66.2508C111.771 66.3572 111.609 66.4196 111.44 66.4291L83.749 66.4331ZM132.435 82.1861C132.244 82.1761 132.064 82.0961 131.929 81.9611C131.794 81.8261 131.714 81.6471 131.703 81.4561L131.408 77.0551C131.4 76.8621 131.461 76.6721 131.58 76.5191L146.093 59.1011C146.168 59.0173 146.259 58.9502 146.362 58.9041C146.464 58.8581 146.575 58.8341 146.687 58.8321C146.915 58.8321 147.133 58.9331 147.28 59.1001L161.782 76.5031C161.859 76.5977 161.913 76.709 161.939 76.8281C161.966 76.9471 161.964 77.0711 161.934 77.1901L160.895 81.5911C160.853 81.7561 160.758 81.9041 160.626 82.0111C160.494 82.1181 160.329 82.1801 160.159 82.1861H132.435Z" fill="#81635E"/>
<path d="M97.962 43.813L108.094 66.566L109.4 66.54L109.107 64.233L109.453 58.54L111.184 58.498L97.962 43.813ZM146.647 59.591L156.779 82.344L158.087 82.313L157.788 80.013L158.133 74.313L159.862 74.271L146.647 59.591ZM49.356 59.601L59.49 82.351L60.796 82.329L60.496 80.023L60.841 74.329L62.573 74.277L49.356 59.601Z" fill="#715B57"/>
<path d="M146.655 59.6009L161.16 77.0039L160.103 81.4569H132.433L132.139 77.0559L146.647 59.6489L146.655 59.6009ZM146.647 58.1779C146.426 58.1809 146.207 58.2313 146.007 58.3256C145.807 58.42 145.629 58.5561 145.486 58.7249L130.981 76.1309C130.735 76.4279 130.609 76.8069 130.628 77.1919L130.915 81.5929C130.941 81.9769 131.111 82.3369 131.391 82.6003C131.672 82.8637 132.042 83.0108 132.427 83.0119H160.103C160.442 83.0102 160.771 82.8951 161.037 82.6849C161.303 82.4747 161.492 82.1815 161.572 81.8519L162.631 77.4499C162.731 76.9879 162.617 76.4989 162.32 76.1319L147.812 58.7259C147.669 58.5569 147.49 58.4199 147.289 58.3249C147.088 58.2305 146.869 58.1804 146.647 58.1779ZM49.37 59.6009L63.878 77.0039L62.828 81.4049H35.15L34.864 77.0039L49.37 59.5959V59.6009ZM49.37 58.1309C49.1491 58.1315 48.931 58.1802 48.7308 58.2736C48.5307 58.367 48.3533 58.503 48.211 58.6719L33.705 76.0769C33.4611 76.3761 33.3352 76.7543 33.351 77.1399L33.645 81.5409C33.695 82.3229 34.33 82.9369 35.113 82.9589H62.792C63.131 82.9545 63.4589 82.8376 63.7243 82.6265C63.9896 82.4155 64.1774 82.1223 64.258 81.7929L65.31 77.3919C65.36 77.1619 65.358 76.9239 65.304 76.6959C65.25 76.4679 65.147 76.2529 65 76.0689L50.492 58.6669C50.348 58.498 50.1696 58.3617 49.9687 58.2672C49.7678 58.1726 49.549 58.1221 49.327 58.1189L49.37 58.1309ZM97.969 43.8279L112.469 61.2339L111.418 65.6349H83.748L83.455 61.2339L97.961 43.8279H97.969ZM97.961 42.3609C97.511 42.3609 97.084 42.5659 96.795 42.9079L82.324 60.2839C82.0758 60.5834 81.95 60.9656 81.972 61.3539L82.257 65.7619C82.284 66.1449 82.455 66.5019 82.736 66.7639C83.017 67.0259 83.386 67.1699 83.769 67.1689H111.449C111.787 67.1634 112.114 67.0468 112.379 66.8371C112.644 66.6275 112.833 66.3365 112.916 66.0089L113.966 61.6079C114.019 61.3782 114.019 61.1394 113.965 60.9099C113.911 60.6803 113.806 60.4662 113.656 60.2839L99.129 42.8879C98.988 42.7169 98.81 42.5789 98.61 42.4839C98.41 42.3889 98.191 42.3379 97.969 42.3359L97.961 42.3609Z" fill="#414343"/>
<path d="M81.834 75.4531H114.154C114.251 75.453 114.347 75.4721 114.437 75.5091C114.527 75.5461 114.609 75.6011 114.678 75.6691C114.747 75.7377 114.801 75.8193 114.838 75.9091C114.876 75.9991 114.895 76.0951 114.895 76.1921V107.753C114.895 107.851 114.876 107.947 114.839 108.037C114.802 108.127 114.747 108.208 114.678 108.277C114.609 108.346 114.527 108.401 114.438 108.438C114.348 108.475 114.251 108.494 114.154 108.494H81.834C81.737 108.494 81.64 108.475 81.55 108.438C81.46 108.401 81.378 108.347 81.309 108.278C81.24 108.209 81.185 108.127 81.148 108.037C81.1108 107.947 81.0918 107.851 81.092 107.753V76.1931C81.0919 76.0958 81.1111 75.9994 81.1483 75.9095C81.1855 75.8196 81.2401 75.7379 81.309 75.6691C81.378 75.6003 81.4599 75.5458 81.55 75.5088C81.6401 75.4717 81.7366 75.4528 81.834 75.4531Z" fill="#CECECE"/>
<path d="M114.163 76.1989V107.754H81.84V76.1989H114.163ZM114.163 74.7339H81.84C81.029 74.7339 80.373 75.3899 80.373 76.1989V107.754C80.373 108.563 81.029 109.22 81.84 109.22H114.163C114.975 109.22 115.631 108.563 115.631 107.754V76.1989C115.631 75.3909 114.975 74.7339 114.163 74.7339Z" fill="#414342"/>
<path d="M69.117 156.859C68.922 156.859 68.736 156.781 68.598 156.644C68.46 156.507 68.383 156.319 68.383 156.125L66.733 101.687C66.7296 101.588 66.7463 101.489 66.782 101.396C66.818 101.303 66.872 101.219 66.941 101.147C67.0102 101.076 67.0927 101.019 67.184 100.98C67.275 100.942 67.374 100.922 67.473 100.922H76.198C76.294 100.921 76.39 100.94 76.479 100.977C76.5684 101.013 76.6497 101.067 76.718 101.135C76.7862 101.203 76.8402 101.284 76.877 101.373C76.914 101.462 76.933 101.558 76.932 101.654V108.258H84.174V101.654C84.1738 101.557 84.1927 101.462 84.2296 101.373C84.2665 101.284 84.3207 101.203 84.389 101.135C84.457 101.067 84.5379 101.013 84.627 100.977C84.716 100.94 84.812 100.921 84.908 100.922H93.639C94.042 100.922 94.373 101.247 94.373 101.654V108.258H101.616V101.654C101.616 101.558 101.634 101.462 101.671 101.373C101.708 101.284 101.762 101.204 101.83 101.136C101.898 101.068 101.979 101.014 102.067 100.977C102.155 100.94 102.252 100.922 102.348 100.922H111.08C111.176 100.922 111.271 100.94 111.36 100.977C111.449 101.014 111.53 101.068 111.598 101.136C111.666 101.204 111.72 101.285 111.757 101.373C111.793 101.462 111.812 101.558 111.812 101.654V108.258H119.056V101.654C119.056 101.558 119.074 101.462 119.111 101.373C119.148 101.284 119.202 101.204 119.27 101.136C119.338 101.068 119.419 101.014 119.507 100.977C119.595 100.94 119.692 100.922 119.788 100.922H128.55C128.65 100.921 128.748 100.941 128.84 100.979C128.932 101.017 129.015 101.074 129.084 101.146C129.153 101.217 129.207 101.302 129.242 101.395C129.277 101.488 129.294 101.587 129.29 101.687L127.619 156.14C127.619 156.544 127.289 156.875 126.884 156.875L69.117 156.859Z" fill="#CECECE"/>
<path d="M121.604 100.976L119.861 149.817C119.843 150.152 119.698 150.468 119.454 150.699C119.211 150.93 118.888 151.06 118.552 151.061H69.572V156.802H126.536V151.061H126.249L128.554 100.891L121.604 100.976Z" fill="#ABACAB"/>
<path d="M29.741 156.877C29.6369 156.877 29.5341 156.854 29.439 156.812C29.3439 156.769 29.259 156.707 29.1897 156.629C29.1204 156.551 29.0684 156.46 29.037 156.36C29.0057 156.261 28.9959 156.156 29.008 156.052L31.781 92.4621L29.125 88.7591C29.036 88.6291 28.988 88.4751 28.986 88.3181V74.9611C28.9859 74.8648 29.0049 74.7695 29.0418 74.6806C29.0787 74.5917 29.1328 74.511 29.201 74.4431C29.2693 74.3753 29.3503 74.3217 29.4393 74.2853C29.5284 74.2489 29.6238 74.2305 29.72 74.2311H37.585C37.6812 74.2305 37.7766 74.2489 37.8657 74.2853C37.9547 74.3217 38.0357 74.3753 38.104 74.4431C38.1722 74.511 38.2263 74.5917 38.2632 74.6806C38.3001 74.7695 38.3191 74.8648 38.319 74.9611V82.0051H44.71V74.9611C44.7099 74.8648 44.7289 74.7695 44.7658 74.6806C44.8027 74.5917 44.8568 74.511 44.925 74.4431C44.9933 74.3753 45.0743 74.3217 45.1633 74.2853C45.2524 74.2489 45.3478 74.2305 45.444 74.2311H53.317C53.415 74.2291 53.513 74.2481 53.604 74.2861C53.695 74.3241 53.777 74.3801 53.845 74.4521C53.9132 74.5205 53.9672 74.6018 54.0037 74.6912C54.0403 74.7807 54.0587 74.8765 54.058 74.9731V82.0151H60.456V74.9731C60.456 74.5681 60.785 74.2371 61.19 74.2371H69.115C69.519 74.2371 69.847 74.5681 69.847 74.9731V88.3031C69.8474 88.4617 69.7962 88.6162 69.701 88.7431L67.052 92.4631L69.847 156.086C69.8548 156.182 69.8437 156.278 69.8141 156.37C69.7846 156.461 69.7373 156.546 69.675 156.619C69.6128 156.693 69.5362 156.753 69.45 156.796C69.364 156.84 69.271 156.866 69.175 156.874C69.155 156.874 69.134 156.879 69.114 156.879H29.741V156.877Z" fill="#CECECE"/>
<path d="M114.154 108.494L111.802 108.246L111.721 100.79H109.57V77.1602L114.137 77.2252L114.154 108.494Z" fill="#ABACAB"/>
<path d="M128.553 101.678L126.871 156.131H69.101L67.451 101.693H76.177V109.031H84.909V101.693H93.64V109.031H102.365V101.693H111.099V109.031H119.824V101.693H128.554V101.678H128.553ZM128.553 100.226H119.823C119.009 100.226 118.353 100.882 118.353 101.694V107.567H112.592V101.694C112.592 100.882 111.936 100.226 111.125 100.226H102.395C101.584 100.226 100.927 100.882 100.927 101.694V107.567H95.165V101.694C95.165 100.882 94.508 100.226 93.696 100.226H84.966C84.153 100.226 83.497 100.882 83.497 101.694V107.567H77.738V101.694C77.7375 101.305 77.5825 100.932 77.3071 100.656C77.0317 100.381 76.6583 100.226 76.269 100.226H67.457C67.056 100.226 66.671 100.388 66.392 100.672C66.253 100.815 66.145 100.984 66.073 101.169C66.0013 101.355 65.968 101.553 65.975 101.751L67.647 156.162C67.647 156.972 68.303 157.628 69.116 157.628H126.887C127.696 157.628 128.353 156.972 128.353 156.162L130.029 101.787V101.668C130.029 100.855 129.372 100.199 128.561 100.199L128.553 100.226Z" fill="#414342"/>
<path d="M126.902 156.857C126.795 156.855 126.69 156.832 126.593 156.789C126.495 156.746 126.408 156.684 126.335 156.606C126.262 156.528 126.212 156.439 126.179 156.34C126.147 156.241 126.136 156.136 126.147 156.033L128.941 92.4589L126.278 88.7559V88.6879C126.21 88.5756 126.174 88.4463 126.176 88.3149V74.9699C126.176 74.5649 126.504 74.2339 126.908 74.2339H134.777C135.18 74.2339 135.509 74.5649 135.509 74.9699V82.0029H141.905V74.9699C141.905 74.5649 142.234 74.2339 142.637 74.2339H150.565C150.662 74.2338 150.758 74.2528 150.848 74.2899C150.938 74.3269 151.02 74.3819 151.089 74.4509C151.157 74.5201 151.212 74.6019 151.249 74.6919C151.286 74.7819 151.305 74.8779 151.305 74.9759V82.0129H157.698V74.9759C157.698 74.5719 158.026 74.2409 158.432 74.2409H166.295C166.393 74.2399 166.49 74.2589 166.58 74.2959C166.671 74.3331 166.753 74.3882 166.822 74.4579C166.891 74.5275 166.945 74.6101 166.982 74.7009C167.018 74.7919 167.036 74.8889 167.035 74.9869V88.3169C167.035 88.4469 167.003 88.5759 166.941 88.6899L166.898 88.7579L164.205 92.4609L167.009 156.088C167.023 156.282 166.961 156.474 166.835 156.623C166.709 156.771 166.53 156.864 166.337 156.881H166.274L126.902 156.857Z" fill="#CECECE"/>
<path d="M49.355 106.227C48.3493 106.276 47.4029 106.717 46.7177 107.455C46.0324 108.193 45.6626 109.169 45.687 110.176V118.603H53.148V110.077C53.1582 109.581 53.0705 109.088 52.89 108.627C52.71 108.166 52.44 107.744 52.097 107.387C51.754 107.03 51.343 106.744 50.889 106.546C50.435 106.347 49.9463 106.241 49.451 106.232C49.42 106.227 49.389 106.227 49.355 106.227Z" fill="#595959" stroke="#414342" stroke-miterlimit="10" stroke-linejoin="round"/>
<path d="M142.835 119.102C142.702 119.102 142.575 119.049 142.481 118.955C142.388 118.861 142.335 118.734 142.335 118.602V110.175C142.307 109.039 142.724 107.938 143.498 107.106C144.272 106.274 145.341 105.78 146.475 105.727C146.48 105.726 146.642 105.733 146.673 105.738C148.96 105.773 150.846 107.726 150.804 110.085V118.603C150.804 118.735 150.751 118.862 150.658 118.956C150.564 119.05 150.437 119.103 150.304 119.103L142.835 119.102Z" fill="#595959"/>
<path d="M146.5 106.227C146.53 106.226 146.56 106.227 146.59 106.232C147.592 106.249 148.546 106.664 149.242 107.385C149.587 107.742 149.858 108.163 150.04 108.625C150.222 109.087 150.312 109.58 150.303 110.077V118.603H142.834V110.176C142.811 109.17 143.182 108.195 143.866 107.458C144.55 106.72 145.495 106.278 146.5 106.227ZM146.5 105.227L146.447 105.228C145.181 105.287 143.988 105.842 143.126 106.772C142.264 107.701 141.8 108.931 141.834 110.199V118.603C141.834 118.868 141.939 119.122 142.127 119.31C142.314 119.497 142.569 119.603 142.834 119.603H150.303C150.568 119.603 150.822 119.497 151.01 119.31C151.198 119.123 151.303 118.868 151.303 118.603V110.077C151.35 107.476 149.27 105.306 146.657 105.233L146.5 105.227Z" fill="#414342"/>
<path d="M97.734 83.0269C96.845 83.0709 96.008 83.4609 95.402 84.1139C94.796 84.7669 94.469 85.6299 94.491 86.5189V93.9299H101.094V86.3929C101.099 85.9559 101.018 85.5219 100.854 85.1159C100.691 84.7099 100.45 84.3401 100.144 84.0275C99.8378 83.7149 99.4733 83.4656 99.071 83.2939C98.6686 83.1222 98.2364 83.0314 97.799 83.0269H97.734Z" fill="#595959" stroke="#414342" stroke-miterlimit="10" stroke-linejoin="round"/>
<path d="M29.236 151.062L28.949 156.693H70.093L67.114 93.0149L61.096 92.8979L62.424 149.697C62.4342 150.049 62.304 150.391 62.062 150.648C61.9419 150.775 61.7982 150.876 61.639 150.948C61.48 151.019 61.308 151.058 61.133 151.062H29.236ZM126.277 151.062L125.992 156.693H167.135L164.155 93.0149L158.14 92.8979L159.474 149.892C159.481 150.195 159.368 150.488 159.16 150.708C159.057 150.817 158.933 150.904 158.796 150.965C158.659 151.025 158.511 151.058 158.361 151.062H126.277Z" fill="#ABACAB"/>
<path d="M88.746 156.877V135.741C88.746 130.137 92.81 125.514 97.807 125.426H97.953C103.029 125.426 107.169 129.9 107.169 135.405V156.883H106.399L88.746 156.877Z" fill="#595959"/>
<path d="M97.933 126.127C102.616 126.127 106.4 130.267 106.4 135.367V156.103H89.523V135.702C89.523 130.565 93.192 126.212 97.859 126.164H97.99L97.933 126.127ZM97.99 124.698H97.828C92.429 124.794 88.033 129.747 88.033 135.755V156.156C88.0334 156.354 88.0729 156.55 88.149 156.733C88.225 156.916 88.337 157.083 88.477 157.223C88.6172 157.362 88.7837 157.473 88.967 157.549C89.1502 157.624 89.3466 157.664 89.545 157.664H106.423C106.823 157.664 107.207 157.505 107.491 157.222C107.774 156.94 107.933 156.556 107.934 156.156V135.367C107.934 129.452 103.467 124.645 97.976 124.645L97.99 124.698Z" fill="#414342"/>
<path d="M112.027 60.9461L118.191 60.3911L118.559 72.7751L114.869 77.1621H109.201L111.986 72.4961L112.027 60.9461Z" fill="black"/>
<path d="M63.577 74.4122L69.616 74.2852L70.02 88.6322L66.327 93.0182H60.67L63.443 88.3572L63.577 74.4122Z" fill="#ABACAB"/>
<path d="M81.041 77.142C80.923 77.145 80.807 77.118 80.702 77.065C80.597 77.012 80.507 76.934 80.439 76.837L77.629 72.924C77.5392 72.7945 77.4907 72.6407 77.49 72.483V59.131C77.49 58.727 77.817 58.395 78.222 58.395H86.081C86.485 58.395 86.814 58.727 86.814 59.131V66.164H93.205V59.152C93.205 58.747 93.533 58.415 93.939 58.415H101.813C102.217 58.415 102.545 58.747 102.545 59.152V66.189H108.943V59.152C108.944 58.9573 109.021 58.7708 109.159 58.6328C109.296 58.4948 109.482 58.4166 109.677 58.415H117.551C117.747 58.4174 117.934 58.4962 118.072 58.6346C118.211 58.7731 118.29 58.9602 118.292 59.156V72.493C118.292 72.624 118.256 72.752 118.189 72.865L118.144 72.928L115.342 76.842C115.272 76.9381 115.181 77.0162 115.075 77.07C114.969 77.124 114.852 77.152 114.733 77.152L81.041 77.142Z" fill="#CECECE"/>
<path d="M160.729 74.3959L166.77 74.2699L167.18 88.6149L163.487 93.0059H157.824L160.598 88.3479L160.729 74.3959ZM112.122 58.4229L118.168 58.2969L118.572 72.6469L114.883 77.0289H109.217L111.998 72.3679L112.122 58.4229Z" fill="#ABACAB"/>
<path d="M29.749 74.9608H37.615V82.7508H45.496V74.9608H53.369V82.7508H61.25V74.9768H69.117V88.3128L66.306 92.2198L69.117 156.121H29.741L32.553 92.2358L29.741 88.3228V74.9608H29.749ZM29.741 73.4948C29.3522 73.4953 28.9794 73.6499 28.7043 73.9247C28.4291 74.1994 28.2741 74.572 28.273 74.9608V88.3168C28.2749 88.6338 28.3752 88.9423 28.56 89.1998L31.07 92.6928L28.281 156.056C28.26 156.461 28.402 156.855 28.677 157.144C28.818 157.294 28.9883 157.415 29.1775 157.497C29.3667 157.579 29.5707 157.621 29.777 157.622H69.117C69.3233 157.621 69.5273 157.579 69.7165 157.497C69.9057 157.415 70.076 157.294 70.217 157.144C70.492 156.855 70.636 156.461 70.613 156.056L67.824 92.6928L70.334 89.1878C70.5217 88.9364 70.6221 88.6306 70.62 88.3168V74.9768C70.62 74.1678 69.964 73.5118 69.152 73.5118H61.25C60.439 73.5118 59.783 74.1678 59.783 74.9768V81.2748H54.874V74.9878C54.875 74.7918 54.838 74.5978 54.763 74.4158C54.688 74.2338 54.579 74.0698 54.441 73.9308C54.3027 73.7918 54.1382 73.6817 53.957 73.6068C53.776 73.5318 53.581 73.4938 53.385 73.4948H45.496C45.107 73.4951 44.734 73.6495 44.4586 73.9243C44.1833 74.1991 44.0281 74.5718 44.027 74.9608V81.2578H39.119V74.9718C39.119 74.1568 38.463 73.5008 37.652 73.5008H29.793L29.741 73.4948ZM78.252 59.1358H86.118V66.9148H93.991V59.1358H101.863V66.9148H109.746V59.1508H117.619V72.4808L114.808 76.3938H81.055L78.244 72.4808V59.1348L78.252 59.1358ZM78.244 57.6328C77.433 57.6328 76.777 58.2898 76.777 59.0988V72.4558C76.7801 72.7689 76.8804 73.0733 77.064 73.3268L79.866 77.2348C80.144 77.6288 80.595 77.8598 81.077 77.8538H114.832C115.068 77.8562 115.302 77.8011 115.512 77.6932C115.723 77.5854 115.904 77.4281 116.04 77.2348L118.846 73.3268C119.029 73.0731 119.128 72.7685 119.129 72.4558V59.1508C119.13 58.7618 118.976 58.3878 118.701 58.1118C118.426 57.8358 118.053 57.6801 117.664 57.6788H109.754C108.945 57.6788 108.285 58.3408 108.285 59.1508V65.4428H103.376V59.1508C103.377 58.7611 103.222 58.3872 102.947 58.1111C102.672 57.8351 102.299 57.6796 101.909 57.6788H94C93.8069 57.6789 93.6157 57.7171 93.4373 57.7912C93.2589 57.8652 93.0969 57.9737 92.9605 58.1104C92.8241 58.2471 92.7159 58.4094 92.6422 58.5879C92.5685 58.7664 92.5307 58.9577 92.531 59.1508V65.4428H87.623V59.1508C87.623 58.3408 86.965 57.6788 86.155 57.6788H78.296L78.244 57.6328ZM126.908 74.9498H134.765V82.7348H142.638V74.9608H150.566V82.7508H158.439V74.9608H166.306V88.2968L163.493 92.2038L166.306 156.084H126.902L129.718 92.2038L126.915 88.2968V74.9498H126.908ZM126.908 73.4788C126.518 73.4799 126.145 73.6355 125.87 73.9115C125.596 74.1875 125.441 74.5613 125.442 74.9508V88.3028C125.442 88.6178 125.543 88.9278 125.726 89.1858L128.232 92.6778L125.442 156.048C125.417 156.436 125.547 156.818 125.804 157.11C126.06 157.403 126.422 157.582 126.81 157.608H166.256C166.646 157.609 167.02 157.455 167.296 157.18C167.571 156.905 167.726 156.532 167.727 156.143C167.727 156.111 167.727 156.08 167.72 156.048L164.934 92.6778L167.443 89.1748C167.627 88.9228 167.727 88.6178 167.72 88.3028V74.9728C167.72 74.1578 167.063 73.5018 166.256 73.5018H158.41C157.597 73.5018 156.941 74.1568 156.941 74.9728V81.2648H152.033V74.9728C152.033 74.1578 151.377 73.5018 150.566 73.5018H142.649C142.456 73.5017 142.264 73.5396 142.086 73.6135C141.907 73.6874 141.745 73.7957 141.609 73.9324C141.472 74.069 141.364 74.2312 141.29 74.4097C141.216 74.5883 141.178 74.7796 141.178 74.9728V81.2648H136.273V74.9728C136.273 74.7796 136.235 74.5883 136.161 74.4097C136.087 74.2312 135.979 74.069 135.842 73.9324C135.706 73.7957 135.544 73.6874 135.365 73.6135C135.187 73.5396 134.995 73.5017 134.802 73.5018H126.939L126.908 73.4788Z" fill="#414342"/>
<path d="M32.135 92.4609H67.4M128.941 92.4609H164.208" stroke="#414342" stroke-width="2" stroke-miterlimit="10"/>
<defs>
<radialGradient id="paint0_radial_930_4486" cx="0" cy="0" r="1" gradientUnits="userSpaceOnUse" gradientTransform="translate(98.6045 98.603) scale(96.9527 96.9527)">
<stop stop-color="#5FB248"/>
<stop offset="1" stop-color="#399346"/>
</radialGradient>
</defs>
</svg>
