<svg width="200" height="200" viewBox="0 0 200 200" fill="none" xmlns="http://www.w3.org/2000/svg">
<path d="M167.684 188.539H29.5239C18.0529 188.539 8.66895 179.154 8.66895 167.684V29.5239C8.66895 18.0529 18.0539 8.66895 29.5239 8.66895H167.683C179.154 8.66895 188.538 18.0539 188.538 29.5239V167.683C188.539 179.154 179.154 188.539 167.684 188.539Z" fill="url(#paint0_radial_930_4514)"/>
<path d="M167.684 188.539H29.5239C18.0529 188.539 8.66895 179.154 8.66895 167.684V29.5239C8.66895 18.0529 18.0539 8.66895 29.5239 8.66895H167.683C179.154 8.66895 188.538 18.0539 188.538 29.5239V167.683C188.539 179.154 179.154 188.539 167.684 188.539Z" fill="url(#paint1_radial_930_4514)"/>
<path d="M167.684 8.66894C179.155 8.66894 188.539 18.0539 188.539 29.5239V167.683C188.539 179.154 179.154 188.538 167.684 188.538H29.5239C18.0529 188.538 8.66894 179.153 8.66894 167.683V29.5239C8.66894 18.0529 18.0539 8.66894 29.5239 8.66894H167.684ZM167.684 4.66895H29.5239C15.8179 4.66895 4.66895 15.8189 4.66895 29.5239V167.683C4.66895 181.388 15.8189 192.538 29.5239 192.538H167.683C181.389 192.538 192.538 181.388 192.538 167.683V29.5239C192.539 15.8189 181.389 4.66895 167.684 4.66895Z" fill="#223948"/>
<path d="M35.1498 82.1881C34.9592 82.1777 34.7791 82.0975 34.6438 81.9629C34.5085 81.8283 34.4273 81.6486 34.4158 81.4581L34.1228 77.0571C34.114 76.8527 34.1818 76.6523 34.3128 76.4951L48.8128 59.1021C48.8864 59.018 48.9771 58.9506 49.0789 58.9045C49.1806 58.8583 49.2911 58.8344 49.4028 58.8344C49.5146 58.8344 49.625 58.8583 49.7268 58.9045C49.8285 58.9506 49.9193 59.018 49.9928 59.1021L64.4998 76.5051C64.6538 76.6991 64.7098 76.9511 64.6538 77.1921L63.6048 81.5931C63.564 81.7585 63.4704 81.9061 63.3381 82.0135C63.2058 82.1209 63.0421 82.1822 62.8718 82.1881H35.1498ZM83.7478 66.4351C83.5509 66.4302 83.3628 66.352 83.2202 66.216C83.0777 66.0799 82.9909 65.8957 82.9768 65.6991L82.6908 61.2981C82.6822 61.1088 82.7422 60.9227 82.8598 60.7741L97.3738 43.3521C97.4413 43.2743 97.5234 43.2105 97.6154 43.1644C97.7075 43.1184 97.8078 43.0909 97.9105 43.0835C98.0132 43.0762 98.1163 43.0892 98.214 43.1217C98.3117 43.1542 98.402 43.2057 98.4798 43.2731C98.5088 43.2941 98.5368 43.3251 98.5618 43.3521L113.061 60.7581C113.136 60.8509 113.19 60.9594 113.218 61.0757C113.247 61.1919 113.248 61.313 113.224 61.4301L112.174 65.8381C112.129 66.0016 112.034 66.1468 111.902 66.2532C111.77 66.3596 111.608 66.4218 111.439 66.4311L83.7478 66.4351ZM132.434 82.1881C132.243 82.1778 132.063 82.0977 131.928 81.963C131.793 81.8283 131.713 81.6485 131.702 81.4581L131.407 77.0571C131.399 76.8638 131.459 76.6739 131.578 76.5211L146.091 59.1031C146.166 59.0197 146.257 58.9527 146.36 58.9066C146.462 58.8604 146.573 58.8361 146.685 58.8351C146.913 58.8351 147.131 58.9361 147.278 59.1031L161.78 76.5061C161.857 76.6009 161.911 76.7123 161.937 76.8316C161.964 76.9508 161.962 77.0746 161.933 77.1931L160.893 81.5941C160.851 81.7595 160.756 81.9068 160.624 82.014C160.491 82.1213 160.327 82.1827 160.157 82.1891L132.434 82.1881Z" fill="#81635E"/>
<path d="M97.961 43.813L108.093 66.566L109.401 66.54L109.107 64.233L109.454 58.54L111.184 58.498L97.961 43.813ZM146.647 59.591L156.779 82.344L158.087 82.313L157.788 80.013L158.132 74.313L159.862 74.271L146.647 59.591ZM49.356 59.601L59.489 82.351L60.795 82.329L60.495 80.023L60.839 74.329L62.572 74.277L49.356 59.601Z" fill="#715B57"/>
<path d="M146.655 59.6009L161.16 77.0039L160.103 81.4569H132.434L132.14 77.0559L146.648 59.6489M146.647 58.1779C146.425 58.1806 146.207 58.2308 146.007 58.3252C145.806 58.4196 145.629 58.5559 145.486 58.7249L130.981 76.1309C130.734 76.4274 130.608 76.8065 130.629 77.1919L130.916 81.5929C130.941 81.9769 131.112 82.3369 131.392 82.6003C131.673 82.8637 132.043 83.0108 132.428 83.0119H160.103C160.442 83.01 160.771 82.8948 161.037 82.6847C161.303 82.4745 161.491 82.1814 161.572 81.8519L162.63 77.4499C162.73 76.9879 162.616 76.4989 162.32 76.1319L147.812 58.7259C147.668 58.5564 147.49 58.4196 147.289 58.3251C147.088 58.2305 146.869 58.1803 146.647 58.1779ZM49.3698 59.6009L63.8778 77.0039L62.8278 81.4049H35.1498L34.8638 77.0039L49.3698 59.5959M49.3698 58.1309C48.9238 58.1309 48.4988 58.3299 48.2108 58.6719L33.7048 76.0769C33.4608 76.3779 33.3338 76.7569 33.3518 77.1399L33.6448 81.5409C33.6681 81.918 33.8317 82.2726 34.1034 82.535C34.3751 82.7974 34.7352 82.9487 35.1128 82.9589H62.7918C63.1308 82.9545 63.4587 82.8376 63.7241 82.6265C63.9894 82.4155 64.1772 82.1223 64.2578 81.7929L65.3098 77.3919C65.3592 77.1623 65.3571 76.9245 65.3037 76.6958C65.2503 76.467 65.1468 76.2529 65.0008 76.0689L50.4928 58.6669C50.3487 58.4978 50.1701 58.3615 49.969 58.2669C49.7679 58.1724 49.5489 58.122 49.3268 58.1189L49.3698 58.1309ZM97.9688 43.8279L112.468 61.2339L111.418 65.6349H83.7478L83.4558 61.2339L97.9618 43.8279M97.9608 42.3609C97.5098 42.3609 97.0838 42.5659 96.7938 42.9079L82.3238 60.2839C82.0754 60.5833 81.9496 60.9656 81.9718 61.3539L82.2578 65.7619C82.2846 66.1444 82.4557 66.5024 82.7364 66.7636C83.017 67.0247 83.3864 67.1696 83.7698 67.1689H111.45C111.788 67.1631 112.114 67.0464 112.379 66.8368C112.644 66.6272 112.832 66.3363 112.916 66.0089L113.966 61.6079C114.019 61.3783 114.019 61.1394 113.965 60.9098C113.912 60.6802 113.806 60.466 113.656 60.2839L99.1278 42.8879C98.9865 42.717 98.8096 42.579 98.6094 42.4837C98.4092 42.3883 98.1905 42.3379 97.9688 42.3359L97.9608 42.3609Z" fill="#414343"/>
<path d="M81.8328 75.4531H114.154C114.251 75.453 114.347 75.472 114.437 75.5092C114.527 75.5463 114.609 75.6008 114.678 75.6695C114.747 75.7382 114.801 75.8199 114.838 75.9097C114.876 75.9996 114.895 76.0959 114.895 76.1931V107.754C114.895 107.851 114.876 107.948 114.839 108.038C114.801 108.128 114.747 108.21 114.678 108.278C114.609 108.347 114.528 108.402 114.438 108.439C114.348 108.476 114.251 108.495 114.154 108.495H81.8328C81.7354 108.495 81.6389 108.476 81.5488 108.439C81.4587 108.402 81.3768 108.348 81.3079 108.279C81.239 108.21 81.1843 108.128 81.147 108.038C81.1098 107.948 81.0907 107.852 81.0908 107.754V76.1931C81.0908 75.7841 81.4238 75.4531 81.8328 75.4531Z" fill="#CECECE"/>
<path d="M114.163 76.1989V107.754H81.84V76.1989H114.163ZM114.163 74.7339H81.84C81.03 74.7339 80.373 75.3899 80.373 76.1989V107.754C80.373 108.563 81.03 109.22 81.84 109.22H114.163C114.974 109.22 115.631 108.563 115.631 107.754V76.1989C115.631 75.3909 114.974 74.7339 114.163 74.7339Z" fill="#414342"/>
<path d="M69.1169 156.859C68.9224 156.859 68.7358 156.781 68.5982 156.644C68.4606 156.506 68.3832 156.319 68.383 156.125L66.733 101.687C66.7292 101.587 66.7456 101.488 66.7812 101.395C66.8168 101.302 66.8708 101.218 66.94 101.146C67.0093 101.075 67.0923 101.018 67.1841 100.979C67.2758 100.941 67.3744 100.921 67.474 100.922H76.198C76.604 100.922 76.933 101.247 76.933 101.654V108.258H84.175V101.654C84.175 101.247 84.5039 100.922 84.9089 100.922H93.641C94.045 100.922 94.375 101.247 94.375 101.654V108.258H101.618V101.654C101.618 101.558 101.636 101.462 101.673 101.373C101.71 101.284 101.764 101.203 101.832 101.135C101.9 101.067 101.981 101.013 102.07 100.977C102.159 100.94 102.255 100.921 102.351 100.922H111.083C111.487 100.922 111.816 101.247 111.816 101.654V108.258H119.059V101.654C119.059 101.558 119.077 101.462 119.114 101.373C119.151 101.285 119.205 101.204 119.273 101.136C119.341 101.068 119.422 101.014 119.511 100.977C119.599 100.94 119.695 100.922 119.791 100.922H128.553C128.652 100.921 128.751 100.941 128.843 100.979C128.935 101.018 129.018 101.075 129.087 101.146C129.156 101.218 129.21 101.302 129.246 101.395C129.281 101.488 129.298 101.587 129.294 101.687L127.624 156.14C127.624 156.544 127.294 156.875 126.889 156.875L69.1169 156.859Z" fill="#CECECE"/>
<path d="M121.603 100.976L119.859 149.817C119.841 150.152 119.696 150.468 119.452 150.7C119.209 150.931 118.887 151.06 118.551 151.061H69.5708V156.802H126.534V151.061H126.248L128.552 100.891L121.603 100.976Z" fill="#ABACAB"/>
<path d="M29.7408 156.876C29.6366 156.876 29.5335 156.854 29.4384 156.811C29.3432 156.769 29.2583 156.706 29.189 156.628C29.1197 156.55 29.0678 156.459 29.0366 156.359C29.0053 156.26 28.9955 156.155 29.0078 156.051L31.7808 92.4611L29.1248 88.7581C29.0353 88.6283 28.9869 88.4747 28.9858 88.3171V74.9601C28.9858 74.5551 29.3148 74.2301 29.7198 74.2301H37.5858C37.682 74.2295 37.7774 74.248 37.8664 74.2845C37.9555 74.3209 38.0364 74.3746 38.1046 74.4425C38.1728 74.5103 38.227 74.5909 38.2639 74.6798C38.3008 74.7686 38.3198 74.8639 38.3198 74.9601V82.0041H44.7098V74.9601C44.7098 74.5551 45.0388 74.2301 45.4438 74.2301H53.3178C53.4163 74.2285 53.5141 74.2474 53.6049 74.2854C53.6958 74.3235 53.7778 74.3798 53.8458 74.4511C53.9829 74.5898 54.0595 74.7771 54.0588 74.9721V82.0141H60.4568V74.9721C60.4568 74.5671 60.7858 74.2361 61.1908 74.2361H69.1158C69.5198 74.2361 69.8488 74.5671 69.8488 74.9721V88.3021C69.8492 88.4607 69.798 88.6151 69.7028 88.7421L67.0538 92.4621L69.8488 156.084C69.8566 156.18 69.8454 156.277 69.8157 156.368C69.7861 156.46 69.7386 156.545 69.6761 156.618C69.6136 156.691 69.5372 156.751 69.4513 156.795C69.3655 156.839 69.2719 156.865 69.1758 156.872C69.1568 156.872 69.1348 156.877 69.1158 156.877L29.7408 156.876Z" fill="#CECECE"/>
<path d="M114.155 108.495L111.802 108.247L111.72 100.791H109.57V77.1611L114.137 77.2261L114.155 108.495Z" fill="#ABACAB"/>
<path d="M128.552 101.677L126.871 156.13H69.101L67.451 101.692H76.176V109.03H84.908V101.692H93.64V109.03H102.364V101.692H111.099V109.03H119.824V101.692H128.553M128.552 100.225H119.823C119.009 100.225 118.353 100.881 118.353 101.693V107.566H112.592V101.693C112.592 100.881 111.936 100.225 111.125 100.225H102.395C101.584 100.225 100.927 100.881 100.927 101.693V107.566H95.166V101.693C95.166 100.881 94.509 100.225 93.697 100.225H84.966C84.154 100.225 83.498 100.881 83.498 101.693V107.566H77.739V101.693C77.739 100.881 77.081 100.225 76.27 100.225H67.458C67.057 100.225 66.672 100.387 66.393 100.671C66.2542 100.813 66.1456 100.982 66.0739 101.168C66.0023 101.353 65.969 101.551 65.976 101.75L67.649 156.161C67.649 156.971 68.305 157.627 69.117 157.627H126.887C127.696 157.627 128.352 156.971 128.352 156.161L130.028 101.786V101.667C130.028 100.854 129.371 100.198 128.56 100.198L128.552 100.225Z" fill="#414342"/>
<path d="M126.903 156.859C126.796 156.857 126.691 156.833 126.594 156.79C126.496 156.747 126.408 156.685 126.335 156.608C126.265 156.531 126.212 156.44 126.18 156.341C126.147 156.243 126.136 156.138 126.147 156.035L128.941 92.4608L126.278 88.7578V88.6898C126.21 88.5774 126.175 88.4482 126.176 88.3168V74.9718C126.176 74.5668 126.505 74.2358 126.909 74.2358H134.778C135.182 74.2358 135.51 74.5668 135.51 74.9718V82.0048H141.907V74.9718C141.907 74.5668 142.236 74.2358 142.639 74.2358H150.566C150.765 74.2358 150.954 74.3148 151.096 74.4578C151.164 74.5263 151.217 74.6075 151.253 74.6968C151.289 74.786 151.307 74.8816 151.306 74.9778V82.0148H157.698V74.9778C157.698 74.5738 158.026 74.2428 158.433 74.2428H166.296C166.394 74.2419 166.491 74.2606 166.582 74.2978C166.672 74.335 166.755 74.3901 166.824 74.4596C166.893 74.5291 166.947 74.6118 166.983 74.7027C167.02 74.7936 167.038 74.8909 167.036 74.9888V88.3188C167.036 88.4491 167.004 88.5773 166.942 88.6918L166.899 88.7598L164.205 92.4628L167.009 156.09C167.024 156.284 166.961 156.476 166.836 156.624C166.71 156.773 166.531 156.866 166.337 156.883H166.274L126.903 156.859Z" fill="#CECECE"/>
<path d="M49.3561 106.226C48.3506 106.276 47.4045 106.717 46.7193 107.455C46.034 108.192 45.6637 109.168 45.6871 110.175V118.602H53.1491V110.076C53.1592 109.58 53.0715 109.088 52.891 108.626C52.7105 108.165 52.4408 107.743 52.0974 107.386C51.7539 107.029 51.3434 106.743 50.8893 106.545C50.4352 106.347 49.9465 106.24 49.4511 106.231C49.4201 106.226 49.3891 106.226 49.3561 106.226Z" fill="#595959" stroke="#414342" stroke-miterlimit="10" stroke-linecap="round" stroke-linejoin="round"/>
<path d="M142.834 119.102C142.701 119.102 142.574 119.049 142.48 118.955C142.387 118.861 142.334 118.734 142.334 118.602V110.175C142.305 109.039 142.723 107.938 143.496 107.107C144.27 106.275 145.338 105.78 146.473 105.727C146.54 105.728 146.606 105.732 146.673 105.738C148.959 105.773 150.845 107.726 150.803 110.085V118.603C150.803 118.735 150.75 118.862 150.656 118.956C150.563 119.05 150.435 119.103 150.303 119.103L142.834 119.102Z" fill="#595959"/>
<path d="M146.5 106.226C146.532 106.226 146.561 106.226 146.59 106.231C147.086 106.239 147.576 106.345 148.031 106.543C148.486 106.741 148.898 107.027 149.243 107.384C149.588 107.741 149.859 108.162 150.041 108.624C150.223 109.086 150.312 109.579 150.303 110.076V118.602H142.834V110.175C142.811 109.169 143.182 108.194 143.866 107.457C144.55 106.719 145.495 106.278 146.5 106.226ZM146.5 105.226L146.447 105.227C145.181 105.287 143.988 105.841 143.126 106.771C142.264 107.7 141.8 108.93 141.835 110.198V118.602C141.835 118.867 141.94 119.121 142.128 119.309C142.315 119.496 142.57 119.602 142.835 119.602H150.304C150.569 119.602 150.823 119.496 151.011 119.309C151.198 119.121 151.304 118.867 151.304 118.602V110.076C151.35 107.475 149.27 105.305 146.658 105.232C146.605 105.228 146.553 105.226 146.5 105.226Z" fill="#414342"/>
<path d="M97.7337 83.0278C96.8446 83.0722 96.008 83.462 95.4021 84.1144C94.7963 84.7667 94.4693 85.6298 94.4907 86.5198V93.9308H101.094V86.3938C101.098 85.9564 101.017 85.5224 100.854 85.1165C100.691 84.7106 100.45 84.3408 100.144 84.0282C99.8376 83.7156 99.473 83.4664 99.0707 83.2948C98.6683 83.1231 98.2361 83.0324 97.7987 83.0278H97.7337Z" fill="#595959" stroke="#414342" stroke-miterlimit="10" stroke-linecap="round" stroke-linejoin="round"/>
<path d="M29.2357 151.061L28.9487 156.692H70.0927L67.1127 93.014L61.0957 92.897L62.4237 149.696C62.4288 149.87 62.3994 150.044 62.3372 150.207C62.275 150.37 62.1813 150.519 62.0614 150.646C61.9415 150.773 61.7977 150.875 61.6384 150.946C61.479 151.017 61.3072 151.056 61.1327 151.061H29.2357ZM126.277 151.061L125.991 156.692H167.134L164.153 93.014L158.139 92.897L159.473 149.891C159.48 150.194 159.367 150.487 159.158 150.706C158.95 150.925 158.662 151.053 158.36 151.061H126.277Z" fill="#ABACAB"/>
<path d="M88.7461 156.876V135.74C88.7461 130.136 92.8101 125.513 97.8081 125.425H97.9541C103.031 125.425 107.17 129.899 107.17 135.404V156.882H106.4L88.7461 156.876Z" fill="#595959"/>
<path d="M97.9327 126.127C102.615 126.127 106.4 130.267 106.4 135.367V156.103H89.5227V135.702C89.5227 130.565 93.1917 126.212 97.8587 126.164H97.9897M97.9897 124.698H97.8277C92.4287 124.794 88.0337 129.747 88.0337 135.755V156.156C88.0337 156.991 88.7107 157.664 89.5457 157.664H106.423C107.258 157.664 107.934 156.991 107.934 156.156V135.367C107.934 129.452 103.467 124.645 97.9757 124.645L97.9897 124.698Z" fill="#414342"/>
<path d="M112.027 60.9451L118.191 60.3901L118.559 72.7741L114.87 77.1611H109.202L111.986 72.4951L112.027 60.9451Z" fill="black"/>
<path d="M63.5769 74.4131L69.6159 74.2861L70.0199 88.6331L66.3269 93.0191H60.6699L63.4439 88.3581L63.5769 74.4131Z" fill="#ABACAB"/>
<path d="M81.0398 77.1401C80.9221 77.1426 80.8056 77.1161 80.7006 77.0629C80.5956 77.0097 80.5053 76.9315 80.4378 76.8351L77.6278 72.9221C77.5384 72.7922 77.49 72.6386 77.4888 72.4811V59.1291C77.4888 58.7251 77.8168 58.3931 78.2218 58.3931H86.0808C86.4858 58.3931 86.8148 58.7251 86.8148 59.1291V66.1621H93.2058V59.1501C93.2058 58.7451 93.5338 58.4131 93.9398 58.4131H101.814C102.218 58.4131 102.546 58.7451 102.546 59.1501V66.1871H108.944V59.1501C108.944 58.7451 109.275 58.4131 109.679 58.4131H117.553C117.749 58.4141 117.937 58.4926 118.075 58.6313C118.214 58.7701 118.292 58.958 118.293 59.1541V72.4911C118.292 72.622 118.256 72.7503 118.19 72.8631L118.146 72.9261L115.344 76.8401C115.274 76.9362 115.182 77.0145 115.077 77.0683C114.971 77.1222 114.854 77.1502 114.735 77.1501L81.0398 77.1401Z" fill="#CECECE"/>
<path d="M160.729 74.3969L166.77 74.2709L167.18 88.6158L163.487 93.0069H157.824L160.598 88.3489L160.729 74.3969ZM112.122 58.4239L118.167 58.2979L118.573 72.6479L114.882 77.0299H109.217L111.999 72.3689L112.122 58.4239Z" fill="#ABACAB"/>
<path d="M29.7489 74.9598H37.6149V82.7498H45.4959V74.9598H53.3699V82.7498H61.2499V74.9758H69.1169V88.3118L66.3059 92.2188L69.1169 156.12H29.7409L32.5529 92.2348L29.7409 88.3218V74.9598M29.7409 73.4938C28.9299 73.4938 28.2739 74.1508 28.2739 74.9598V88.3158C28.2759 88.6318 28.3749 88.9418 28.5609 89.1988L31.0709 92.6918L28.2809 156.055C28.2698 156.254 28.2992 156.452 28.3673 156.639C28.4354 156.826 28.5407 156.998 28.6769 157.143C28.818 157.294 28.9885 157.414 29.1779 157.496C29.3673 157.578 29.5715 157.621 29.7779 157.621H69.1169C69.5329 157.621 69.9309 157.448 70.2169 157.143C70.4909 156.854 70.6349 156.46 70.6129 156.055L67.8239 92.6918L70.3329 89.1868C70.5206 88.9354 70.621 88.6296 70.6189 88.3158V74.9758C70.6189 74.1668 69.9629 73.5108 69.1519 73.5108H61.2499C60.4399 73.5108 59.7829 74.1668 59.7829 74.9758V81.2738H54.8739V74.9868C54.8751 74.7908 54.8374 74.5964 54.7631 74.415C54.6887 74.2336 54.5792 74.0687 54.4407 73.9299C54.3023 73.7911 54.1377 73.6811 53.9565 73.6062C53.7752 73.5314 53.581 73.4932 53.3849 73.4938H45.4969C44.6869 73.4938 44.0289 74.1508 44.0289 74.9598V81.2568H39.1199V74.9708C39.1199 74.1558 38.4639 73.4998 37.6529 73.4998H29.7949L29.7409 73.4938ZM78.2519 59.1348H86.1179V66.9138H93.9909V59.1348H101.864V66.9138H109.746V59.1498H117.62V72.4798L114.81 76.3928H81.0549L78.2439 72.4798V59.1338M78.2439 57.6318C77.4339 57.6318 76.7779 58.2888 76.7779 59.0978V72.4548C76.7789 72.7638 76.8799 73.0688 77.0649 73.3258L79.8669 77.2338C80.1449 77.6278 80.5959 77.8588 81.0779 77.8528H114.833C115.312 77.8588 115.763 77.6268 116.041 77.2338L118.847 73.3258C119.031 73.0688 119.131 72.7628 119.131 72.4548V59.1498C119.131 58.3398 118.474 57.6778 117.665 57.6778H109.755C108.946 57.6778 108.287 58.3398 108.287 59.1498V65.4418H103.378V59.1498C103.378 58.7601 103.224 58.3862 102.949 58.1102C102.674 57.8341 102.301 57.6786 101.911 57.6778H93.9999C93.1879 57.6778 92.5319 58.3398 92.5319 59.1498V65.4418H87.6229V59.1498C87.6229 58.3398 86.9649 57.6778 86.1549 57.6778H78.2959L78.2439 57.6318ZM126.908 74.9488H134.765V82.7338H142.639V74.9598H150.566V82.7498H158.44V74.9598H166.307V88.2958L163.495 92.2028L166.307 156.083H126.903L129.718 92.2028L126.916 88.2958V74.9488M126.908 73.4778C126.099 73.4778 125.442 74.1348 125.442 74.9498V88.3018C125.442 88.6168 125.542 88.9268 125.726 89.1848L128.232 92.6768L125.442 156.047C125.417 156.435 125.547 156.818 125.803 157.11C126.06 157.403 126.423 157.581 126.811 157.607H166.255C166.448 157.607 166.639 157.57 166.817 157.497C166.996 157.423 167.158 157.316 167.294 157.18C167.431 157.043 167.54 156.882 167.614 156.704C167.688 156.526 167.726 156.335 167.726 156.142C167.726 156.11 167.726 156.079 167.72 156.047L164.934 92.6768L167.442 89.1738C167.626 88.9218 167.726 88.6168 167.719 88.3018V74.9718C167.719 74.1568 167.062 73.5008 166.255 73.5008H158.41C157.597 73.5008 156.941 74.1558 156.941 74.9718V81.2638H152.033V74.9718C152.033 74.1568 151.376 73.5008 150.565 73.5008H142.648C142.455 73.5007 142.263 73.5387 142.085 73.6125C141.906 73.6864 141.744 73.7948 141.607 73.9314C141.471 74.068 141.363 74.2302 141.289 74.4088C141.215 74.5873 141.177 74.7786 141.177 74.9718V81.2638H136.271V74.9718C136.271 74.1568 135.615 73.5008 134.8 73.5008H126.937L126.908 73.4778Z" fill="#414342"/>
<path d="M128.94 92.4609H164.207M32.1338 92.4609H67.3988" stroke="#414342" stroke-width="2" stroke-miterlimit="10"/>
<defs>
<radialGradient id="paint0_radial_930_4514" cx="0" cy="0" r="1" gradientUnits="userSpaceOnUse" gradientTransform="translate(98.6034 98.6039) scale(89.9345)">
<stop stop-color="#C5E2F9"/>
<stop offset="0.25" stop-color="#BCDBF1"/>
<stop offset="0.5" stop-color="#A4C7DB"/>
<stop offset="0.75" stop-color="#7CA8B8"/>
<stop offset="1" stop-color="#6696A4"/>
</radialGradient>
<radialGradient id="paint1_radial_930_4514" cx="0" cy="0" r="1" gradientUnits="userSpaceOnUse" gradientTransform="translate(98.6034 98.6039) scale(98.8742 98.8748)">
<stop stop-color="#85AEC0"/>
<stop offset="1" stop-color="#6696A4"/>
</radialGradient>
</defs>
</svg>
