<svg width="200" height="200" viewBox="0 0 200 200" fill="none" xmlns="http://www.w3.org/2000/svg">
<path d="M167.684 188.539H29.5239C18.0529 188.539 8.66895 179.154 8.66895 167.684V29.5239C8.66895 18.0529 18.0539 8.66895 29.5239 8.66895H167.683C179.154 8.66895 188.538 18.0539 188.538 29.5239V167.683C188.539 179.154 179.154 188.539 167.684 188.539Z" fill="url(#paint0_radial_930_4456)"/>
<path d="M167.684 188.539H29.5239C18.0529 188.539 8.66895 179.154 8.66895 167.684V29.5239C8.66895 18.0529 18.0539 8.66895 29.5239 8.66895H167.683C179.154 8.66895 188.538 18.0539 188.538 29.5239V167.683C188.539 179.154 179.154 188.539 167.684 188.539Z" fill="url(#paint1_radial_930_4456)"/>
<path d="M167.684 8.66894C179.155 8.66894 188.539 18.0539 188.539 29.5239V167.683C188.539 179.154 179.154 188.538 167.684 188.538H29.5239C18.0529 188.538 8.66894 179.153 8.66894 167.683V29.5239C8.66894 18.0529 18.0539 8.66894 29.5239 8.66894H167.684ZM167.684 4.66895H29.5239C15.8189 4.66895 4.66895 15.8189 4.66895 29.5239V167.683C4.66895 181.388 15.8189 192.538 29.5239 192.538H167.683C181.388 192.538 192.538 181.388 192.538 167.683V29.5239C192.539 15.8189 181.389 4.66895 167.684 4.66895Z" fill="#223948"/>
<path d="M35.1499 82.1879C34.9593 82.1774 34.7792 82.0973 34.6439 81.9627C34.5085 81.8281 34.4274 81.6484 34.4159 81.4579L34.1229 77.0569C34.1136 76.8523 34.1814 76.6518 34.3129 76.4949L48.8129 59.1019C48.8865 59.0176 48.9773 58.9501 49.0791 58.9038C49.181 58.8575 49.2915 58.8336 49.4034 58.8336C49.5153 58.8336 49.6259 58.8575 49.7277 58.9038C49.8296 58.9501 49.9203 59.0176 49.9939 59.1019L64.5009 76.5049C64.6539 76.6989 64.7109 76.9509 64.6539 77.1919L63.6049 81.5929C63.5641 81.7583 63.4705 81.9059 63.3382 82.0133C63.2059 82.1206 63.0422 82.1819 62.8719 82.1879H35.1499ZM83.7479 66.4349C83.5509 66.4299 83.3629 66.3518 83.2203 66.2157C83.0778 66.0797 82.991 65.8954 82.9769 65.6989L82.6919 61.2979C82.6827 61.1085 82.7428 60.9222 82.8609 60.7739L97.3759 43.3519C97.4494 43.2664 97.5405 43.1979 97.6429 43.1509C97.7454 43.1039 97.8567 43.0796 97.9694 43.0796C98.0821 43.0796 98.1935 43.1039 98.2959 43.1509C98.3983 43.1979 98.4894 43.2664 98.5629 43.3519L113.063 60.7579C113.138 60.8507 113.192 60.9593 113.22 61.0755C113.248 61.1918 113.25 61.3129 113.225 61.4299L112.175 65.8379C112.13 66.0013 112.035 66.1465 111.903 66.2529C111.771 66.3593 111.609 66.4216 111.44 66.4309L83.7479 66.4349ZM132.434 82.1879C132.243 82.1776 132.063 82.0974 131.928 81.9627C131.793 81.8281 131.713 81.6483 131.702 81.4579L131.407 77.0569C131.399 76.8635 131.46 76.6736 131.579 76.5209L146.092 59.1029C146.167 59.0194 146.258 58.9525 146.361 58.9063C146.463 58.8602 146.574 58.8358 146.686 58.8349C146.914 58.8349 147.132 58.9359 147.279 59.1029L161.781 76.5059C161.858 76.6006 161.912 76.712 161.938 76.8313C161.965 76.9506 161.963 77.0744 161.933 77.1929L160.894 81.5939C160.852 81.7591 160.757 81.9063 160.625 82.0136C160.492 82.1208 160.328 82.1823 160.158 82.1889L132.434 82.1879Z" fill="#81635E"/>
<path d="M97.961 43.813L108.094 66.566L109.4 66.54L109.107 64.233L109.453 58.54L111.184 58.498L97.961 43.813ZM146.647 59.591L156.779 82.344L158.087 82.313L157.788 80.013L158.133 74.313L159.862 74.271L146.647 59.591ZM49.355 59.601L59.489 82.351L60.795 82.329L60.495 80.023L60.84 74.329L62.572 74.277L49.355 59.601Z" fill="#715B57"/>
<path d="M146.655 59.6009L161.16 77.0039L160.103 81.4569H132.433L132.139 77.0559L146.647 59.6489M146.647 58.1779C146.426 58.1807 146.208 58.231 146.007 58.3254C145.807 58.4197 145.629 58.556 145.486 58.7249L130.981 76.1309C130.735 76.4278 130.609 76.8065 130.628 77.1919L130.915 81.5929C130.941 81.9769 131.111 82.3367 131.392 82.6C131.672 82.8633 132.042 83.0105 132.427 83.0119H160.103C160.442 83.01 160.771 82.8948 161.037 82.6847C161.303 82.4745 161.492 82.1814 161.572 81.8519L162.631 77.4499C162.731 76.9879 162.617 76.4989 162.32 76.1319L147.812 58.7259C147.669 58.5565 147.49 58.4198 147.289 58.3253C147.088 58.2307 146.869 58.1805 146.647 58.1779ZM49.3701 59.6009L63.8781 77.0039L62.8281 81.4049H35.1501L34.8641 77.0039L49.3701 59.5959M49.3701 58.1309C48.9241 58.1309 48.5001 58.3299 48.2111 58.6719L33.7051 76.0769C33.4611 76.3779 33.3341 76.7569 33.3511 77.1399L33.6451 81.5409C33.6951 82.3229 34.3301 82.9369 35.1131 82.9589H62.7921C63.4881 82.9489 64.0921 82.4709 64.2581 81.7929L65.3101 77.3919C65.3598 77.1622 65.3578 76.9243 65.3042 76.6955C65.2506 76.4667 65.1467 76.2527 65.0001 76.0689L50.4921 58.6669C50.3481 58.498 50.1697 58.3617 49.9688 58.2672C49.7679 58.1726 49.5491 58.1221 49.3271 58.1189L49.3701 58.1309ZM97.9691 43.8279L112.469 61.2339L111.418 65.6349H83.7481L83.4551 61.2339L97.9611 43.8279M97.9611 42.3609C97.5111 42.3609 97.0841 42.5659 96.7951 42.9079L82.3241 60.2839C82.0757 60.5833 81.9499 60.9656 81.9721 61.3539L82.2571 65.7619C82.284 66.1444 82.455 66.5024 82.7357 66.7636C83.0164 67.0247 83.3857 67.1696 83.7691 67.1689H111.449C111.787 67.1634 112.114 67.0468 112.379 66.8371C112.644 66.6275 112.833 66.3365 112.916 66.0089L113.966 61.6079C114.019 61.3782 114.019 61.1394 113.965 60.9099C113.911 60.6803 113.806 60.4662 113.656 60.2839L99.1291 42.8879C98.9876 42.7171 98.8104 42.5792 98.6101 42.4838C98.4097 42.3885 98.191 42.338 97.9691 42.3359L97.9611 42.3609Z" fill="#414343"/>
<path d="M81.8338 75.4531H114.154C114.251 75.453 114.347 75.472 114.437 75.5092C114.527 75.5463 114.609 75.6008 114.678 75.6695C114.747 75.7382 114.801 75.8199 114.838 75.9097C114.876 75.9996 114.895 76.0959 114.895 76.1931V107.754C114.895 107.851 114.876 107.948 114.839 108.038C114.801 108.128 114.747 108.21 114.678 108.278C114.609 108.347 114.527 108.402 114.438 108.439C114.348 108.476 114.251 108.495 114.154 108.495H81.8338C81.7364 108.495 81.6398 108.476 81.5498 108.439C81.4597 108.402 81.3778 108.348 81.3089 108.279C81.2399 108.21 81.1853 108.128 81.148 108.038C81.1108 107.948 81.0917 107.852 81.0918 107.754V76.1931C81.0918 76.0958 81.111 75.9994 81.1483 75.9095C81.1856 75.8196 81.2403 75.7379 81.3092 75.6692C81.3782 75.6004 81.46 75.5459 81.55 75.5089C81.64 75.4718 81.7364 75.4529 81.8338 75.4531Z" fill="#CECECE"/>
<path d="M114.163 76.1989V107.754H81.84V76.1989H114.163ZM114.163 74.7339H81.84C81.029 74.7339 80.373 75.3899 80.373 76.1989V107.754C80.373 108.563 81.029 109.22 81.84 109.22H114.163C114.975 109.22 115.631 108.563 115.631 107.754V76.1989C115.631 75.3909 114.975 74.7339 114.163 74.7339Z" fill="#414342"/>
<path d="M69.1169 156.859C68.9223 156.859 68.7357 156.781 68.5982 156.644C68.4606 156.506 68.3831 156.319 68.3829 156.125L66.7329 101.687C66.7294 101.588 66.7459 101.489 66.7816 101.396C66.8172 101.303 66.8712 101.219 66.9403 101.147C67.0093 101.076 67.0921 101.019 67.1836 100.98C67.2751 100.942 67.3735 100.922 67.4729 100.922H76.1979C76.2942 100.921 76.3898 100.94 76.4789 100.977C76.5681 101.013 76.6491 101.067 76.7174 101.135C76.7856 101.203 76.8397 101.284 76.8765 101.373C76.9133 101.462 76.9321 101.558 76.9319 101.654V108.258H84.1739V101.654C84.1736 101.558 84.1924 101.462 84.2292 101.373C84.2661 101.284 84.3202 101.203 84.3884 101.135C84.4566 101.067 84.5377 101.013 84.6268 100.977C84.716 100.94 84.8115 100.921 84.9079 100.922H93.6389C94.0419 100.922 94.3729 101.247 94.3729 101.654V108.258H101.616V101.654C101.616 101.558 101.634 101.462 101.671 101.373C101.708 101.285 101.762 101.204 101.83 101.136C101.898 101.068 101.979 101.014 102.067 100.977C102.156 100.94 102.252 100.922 102.348 100.922H111.08C111.176 100.922 111.271 100.94 111.36 100.977C111.449 101.014 111.53 101.068 111.598 101.136C111.666 101.204 111.72 101.285 111.757 101.373C111.793 101.462 111.812 101.558 111.812 101.654V108.258H119.056V101.654C119.056 101.558 119.074 101.462 119.111 101.373C119.148 101.285 119.202 101.204 119.27 101.136C119.338 101.068 119.419 101.014 119.507 100.977C119.596 100.94 119.692 100.922 119.788 100.922H128.55C128.649 100.921 128.748 100.941 128.84 100.979C128.932 101.018 129.015 101.074 129.084 101.146C129.153 101.217 129.207 101.302 129.242 101.395C129.278 101.488 129.294 101.587 129.29 101.687L127.619 156.14C127.619 156.544 127.289 156.875 126.884 156.875L69.1169 156.859Z" fill="#CECECE"/>
<path d="M121.603 100.976L119.86 149.817C119.842 150.152 119.696 150.468 119.453 150.7C119.209 150.931 118.887 151.06 118.551 151.061H69.5708V156.802H126.535V151.061H126.248L128.553 100.891L121.603 100.976Z" fill="#ABACAB"/>
<path d="M29.7408 156.876C29.6366 156.876 29.5335 156.854 29.4384 156.811C29.3432 156.769 29.2583 156.706 29.189 156.628C29.1197 156.55 29.0678 156.459 29.0366 156.359C29.0053 156.26 28.9955 156.155 29.0078 156.051L31.7808 92.4611L29.1248 88.7581C29.0358 88.6281 28.9874 88.4746 28.9858 88.3171V74.9601C28.9858 74.8639 29.0049 74.7686 29.0418 74.6798C29.0787 74.5909 29.1329 74.5103 29.2011 74.4425C29.2693 74.3746 29.3502 74.3209 29.4393 74.2845C29.5283 74.248 29.6236 74.2295 29.7198 74.2301H37.5848C37.681 74.2295 37.7764 74.248 37.8654 74.2845C37.9545 74.3209 38.0354 74.3746 38.1036 74.4425C38.1718 74.5103 38.226 74.5909 38.2629 74.6798C38.2998 74.7686 38.3188 74.8639 38.3188 74.9601V82.0041H44.7098V74.9601C44.7098 74.8639 44.7289 74.7686 44.7658 74.6798C44.8027 74.5909 44.8569 74.5103 44.9251 74.4425C44.9933 74.3746 45.0742 74.3209 45.1633 74.2845C45.2523 74.248 45.3476 74.2295 45.4438 74.2301H53.3168C53.4153 74.2285 53.5131 74.2474 53.6039 74.2854C53.6948 74.3235 53.7768 74.3798 53.8448 74.4511C53.9131 74.5195 53.967 74.6008 54.0036 74.6902C54.0401 74.7796 54.0586 74.8754 54.0578 74.9721V82.0141H60.4558V74.9721C60.4558 74.5671 60.7848 74.2361 61.1898 74.2361H69.1148C69.5188 74.2361 69.8468 74.5671 69.8468 74.9721V88.3021C69.8472 88.4607 69.796 88.6151 69.7008 88.7421L67.0518 92.4621L69.8468 156.084C69.8548 156.18 69.8436 156.277 69.8141 156.368C69.7846 156.46 69.7372 156.545 69.6748 156.618C69.6123 156.691 69.536 156.751 69.4502 156.795C69.3644 156.839 69.2708 156.865 69.1748 156.872C69.1548 156.872 69.1338 156.877 69.1138 156.877L29.7408 156.876Z" fill="#CECECE"/>
<path d="M114.154 108.495L111.802 108.247L111.721 100.791H109.57V77.1611L114.137 77.2261L114.154 108.495Z" fill="#ABACAB"/>
<path d="M128.553 101.677L126.871 156.13H69.101L67.451 101.692H76.177V109.03H84.909V101.692H93.64V109.03H102.364V101.692H111.098V109.03H119.823V101.692H128.553M128.553 100.225H119.823C119.009 100.225 118.353 100.881 118.353 101.693V107.566H112.592V101.693C112.592 100.881 111.936 100.225 111.125 100.225H102.395C101.584 100.225 100.927 100.881 100.927 101.693V107.566H95.166V101.693C95.166 100.881 94.509 100.225 93.697 100.225H84.967C84.154 100.225 83.498 100.881 83.498 101.693V107.566H77.739V101.693C77.739 100.881 77.081 100.225 76.27 100.225H67.458C67.057 100.225 66.672 100.387 66.393 100.671C66.2542 100.813 66.1456 100.982 66.0739 101.168C66.0023 101.353 65.969 101.551 65.976 101.75L67.648 156.161C67.648 156.971 68.304 157.627 69.117 157.627H126.887C127.696 157.627 128.353 156.971 128.353 156.161L130.029 101.786V101.667C130.029 100.854 129.372 100.198 128.561 100.198L128.553 100.225Z" fill="#414342"/>
<path d="M126.902 156.859C126.796 156.857 126.691 156.834 126.593 156.791C126.496 156.747 126.408 156.685 126.335 156.608C126.265 156.531 126.212 156.44 126.18 156.341C126.147 156.243 126.136 156.138 126.147 156.035L128.941 92.4608L126.278 88.7578V88.6898C126.21 88.5774 126.175 88.4482 126.176 88.3168V74.9718C126.176 74.5668 126.504 74.2358 126.908 74.2358H134.777C135.18 74.2358 135.509 74.5668 135.509 74.9718V82.0048H141.905V74.9718C141.905 74.5668 142.234 74.2358 142.637 74.2358H150.565C150.662 74.2358 150.759 74.255 150.849 74.2924C150.939 74.3297 151.02 74.3844 151.089 74.4533C151.158 74.5222 151.212 74.604 151.249 74.694C151.286 74.7841 151.305 74.8805 151.305 74.9778V82.0148H157.698V74.9778C157.698 74.5738 158.026 74.2428 158.432 74.2428H166.295C166.393 74.2419 166.49 74.2606 166.581 74.2978C166.671 74.335 166.754 74.3901 166.823 74.4596C166.892 74.5291 166.946 74.6118 166.982 74.7027C167.019 74.7936 167.037 74.8909 167.035 74.9888V88.3188C167.036 88.4491 167.004 88.5775 166.941 88.6918L166.898 88.7598L164.205 92.4628L167.009 156.09C167.024 156.284 166.961 156.476 166.836 156.624C166.71 156.773 166.531 156.866 166.337 156.883H166.274L126.902 156.859Z" fill="#CECECE"/>
<path d="M49.3551 106.226C48.3497 106.276 47.4037 106.717 46.7186 107.455C46.0335 108.192 45.6634 109.168 45.6871 110.175V118.602H53.1481V110.076C53.1583 109.58 53.0707 109.088 52.8904 108.626C52.71 108.165 52.4404 107.743 52.097 107.386C51.7537 107.029 51.3432 106.743 50.8892 106.545C50.4351 106.347 49.9465 106.24 49.4511 106.231C49.4201 106.226 49.3891 106.226 49.3551 106.226Z" fill="#595959" stroke="#414342" stroke-miterlimit="10" stroke-linecap="round" stroke-linejoin="round"/>
<path d="M142.834 119.102C142.701 119.102 142.574 119.049 142.48 118.955C142.387 118.861 142.334 118.734 142.334 118.602V110.175C142.305 109.039 142.723 107.938 143.497 107.106C144.271 106.275 145.339 105.78 146.474 105.727C146.478 105.726 146.641 105.733 146.672 105.738C148.959 105.773 150.845 107.726 150.803 110.085V118.603C150.803 118.735 150.75 118.862 150.656 118.956C150.563 119.05 150.435 119.103 150.303 119.103L142.834 119.102Z" fill="#595959"/>
<path d="M146.5 106.226C146.531 106.226 146.561 106.226 146.59 106.231C147.592 106.248 148.546 106.663 149.242 107.384C149.939 108.105 150.32 109.073 150.303 110.076V118.602H142.834V110.175C142.811 109.169 143.182 108.194 143.866 107.457C144.55 106.719 145.495 106.278 146.5 106.226ZM146.5 105.226L146.447 105.227C145.18 105.287 143.988 105.841 143.126 106.771C142.264 107.7 141.8 108.93 141.834 110.198V118.602C141.834 118.867 141.939 119.121 142.127 119.309C142.314 119.496 142.569 119.602 142.834 119.602H150.303C150.568 119.602 150.822 119.496 151.01 119.309C151.197 119.121 151.303 118.867 151.303 118.602V110.076C151.349 107.475 149.269 105.305 146.657 105.232C146.605 105.228 146.552 105.226 146.5 105.226Z" fill="#414342"/>
<path d="M97.7337 83.0278C96.8446 83.0722 96.008 83.462 95.4021 84.1144C94.7963 84.7667 94.4693 85.6298 94.4907 86.5198V93.9308H101.094V86.3938C101.098 85.9564 101.017 85.5224 100.854 85.1165C100.691 84.7106 100.45 84.3408 100.144 84.0282C99.8376 83.7156 99.473 83.4664 99.0707 83.2948C98.6683 83.1231 98.2361 83.0324 97.7987 83.0278H97.7337Z" fill="#595959" stroke="#414342" stroke-miterlimit="10" stroke-linecap="round" stroke-linejoin="round"/>
<path d="M29.2357 151.061L28.9487 156.692H70.0927L67.1137 93.014L61.0957 92.897L62.4237 149.696C62.4288 149.87 62.3994 150.044 62.3372 150.207C62.275 150.37 62.1813 150.519 62.0614 150.646C61.9415 150.773 61.7977 150.875 61.6384 150.946C61.479 151.017 61.3072 151.056 61.1327 151.061H29.2357ZM126.277 151.061L125.992 156.692H167.135L164.155 93.014L158.14 92.897L159.474 149.891C159.481 150.194 159.368 150.487 159.159 150.706C158.951 150.925 158.663 151.053 158.361 151.061H126.277Z" fill="#ABACAB"/>
<path d="M88.7461 156.876V135.74C88.7461 130.136 92.8101 125.513 97.8071 125.425H97.9531C103.029 125.425 107.169 129.899 107.169 135.404V156.882H106.399L88.7461 156.876Z" fill="#595959"/>
<path d="M97.9327 126.127C102.616 126.127 106.4 130.267 106.4 135.367V156.103H89.5227V135.702C89.5227 130.565 93.1917 126.212 97.8587 126.164H97.9897M97.9897 124.698H97.8277C92.4287 124.794 88.0327 129.747 88.0327 135.755V156.156C88.033 156.354 88.0723 156.55 88.1484 156.733C88.2245 156.916 88.336 157.083 88.4764 157.223C88.6168 157.363 88.7834 157.474 88.9667 157.549C89.15 157.625 89.3464 157.664 89.5447 157.664H106.423C107.258 157.664 107.934 156.991 107.934 156.156V135.367C107.934 129.452 103.467 124.645 97.9757 124.645L97.9897 124.698Z" fill="#414342"/>
<path d="M112.027 60.9451L118.191 60.3901L118.559 72.7741L114.869 77.1611H109.201L111.986 72.4951L112.027 60.9451Z" fill="black"/>
<path d="M63.5769 74.4131L69.6159 74.2861L70.0199 88.6331L66.3269 93.0191H60.6699L63.4429 88.3581L63.5769 74.4131Z" fill="#ABACAB"/>
<path d="M81.0398 77.1401C80.9221 77.1427 80.8055 77.1163 80.7005 77.0631C80.5955 77.0099 80.5053 76.9315 80.4378 76.8351L77.6278 72.9221C77.5379 72.7925 77.4895 72.6387 77.4888 72.4811V59.1291C77.4888 58.7251 77.8158 58.3931 78.2208 58.3931H86.0798C86.4838 58.3931 86.8128 58.7251 86.8128 59.1291V66.1621H93.2038V59.1501C93.2038 58.7451 93.5318 58.4131 93.9378 58.4131H101.812C102.216 58.4131 102.544 58.7451 102.544 59.1501V66.1871H108.942V59.1501C108.942 58.7451 109.272 58.4131 109.676 58.4131H117.55C117.746 58.4151 117.933 58.4939 118.071 58.6324C118.21 58.7709 118.289 58.9582 118.291 59.1541V72.4911C118.29 72.622 118.255 72.7505 118.188 72.8631L118.143 72.9261L115.341 76.8401C115.271 76.9361 115.179 77.0142 115.073 77.0681C114.968 77.122 114.851 77.1501 114.732 77.1501L81.0398 77.1401Z" fill="#CECECE"/>
<path d="M160.729 74.3969L166.77 74.2709L167.18 88.6158L163.487 93.0069H157.824L160.598 88.3489L160.729 74.3969ZM112.122 58.4239L118.168 58.2979L118.572 72.6479L114.883 77.0299H109.217L111.998 72.3689L112.122 58.4239Z" fill="#ABACAB"/>
<path d="M29.7489 74.9598H37.615V82.7498H45.4959V74.9598H53.3689V82.7498H61.2499V74.9758H69.1169V88.3118L66.3059 92.2188L69.1169 156.12H29.7409L32.5529 92.2348L29.7409 88.3218V74.9598M29.7409 73.4938C28.9299 73.4938 28.2729 74.1508 28.2729 74.9598V88.3158C28.2749 88.6318 28.3749 88.9418 28.5599 89.1988L31.0699 92.6918L28.2809 156.055C28.2599 156.46 28.4019 156.854 28.6769 157.143C28.9629 157.448 29.3609 157.621 29.7769 157.621H69.1169C69.5329 157.621 69.931 157.448 70.2169 157.143C70.492 156.854 70.6359 156.46 70.6129 156.055L67.8239 92.6918L70.3339 89.1868C70.5216 88.9354 70.622 88.6296 70.6199 88.3158V74.9758C70.6199 74.1668 69.9639 73.5108 69.1519 73.5108H61.2499C60.4389 73.5108 59.7829 74.1668 59.7829 74.9758V81.2738H54.8739V74.9868C54.8751 74.7908 54.8375 74.5964 54.7631 74.415C54.6888 74.2336 54.5792 74.0687 54.4407 73.9299C54.3023 73.7911 54.1377 73.6811 53.9565 73.6062C53.7753 73.5314 53.581 73.4932 53.3849 73.4938H45.4959C44.6849 73.4938 44.0269 74.1508 44.0269 74.9598V81.2568H39.1189V74.9708C39.1189 74.1558 38.4629 73.4998 37.6519 73.4998H29.7929L29.7409 73.4938ZM78.2519 59.1348H86.1179V66.9138H93.9909V59.1348H101.863V66.9138H109.746V59.1498H117.619V72.4798L114.808 76.3928H81.0549L78.2439 72.4798V59.1338M78.2439 57.6318C77.4329 57.6318 76.7769 58.2888 76.7769 59.0978V72.4548C76.7789 72.7638 76.8789 73.0688 77.0639 73.3258L79.8659 77.2338C80.1439 77.6278 80.595 77.8588 81.077 77.8528H114.832C115.311 77.8588 115.762 77.6268 116.04 77.2338L118.846 73.3258C119.03 73.0688 119.129 72.7628 119.129 72.4548V59.1498C119.129 58.7605 118.976 58.3868 118.701 58.1109C118.426 57.8349 118.053 57.6792 117.664 57.6778H109.754C108.945 57.6778 108.285 58.3398 108.285 59.1498V65.4418H103.376V59.1498C103.376 58.7601 103.222 58.3862 102.947 58.1102C102.672 57.8341 102.299 57.6786 101.909 57.6778H93.9999C93.1869 57.6778 92.5309 58.3398 92.5309 59.1498V65.4418H87.6229V59.1498C87.6229 58.3398 86.9649 57.6778 86.1549 57.6778H78.2959L78.2439 57.6318ZM126.908 74.9488H134.765V82.7338H142.638V74.9598H150.566V82.7498H158.439V74.9598H166.306V88.2958L163.493 92.2028L166.306 156.083H126.902L129.718 92.2028L126.915 88.2958V74.9488M126.908 73.4778C126.099 73.4778 125.442 74.1348 125.442 74.9498V88.3018C125.442 88.6168 125.543 88.9268 125.726 89.1848L128.232 92.6768L125.442 156.047C125.417 156.435 125.547 156.817 125.803 157.11C126.06 157.402 126.422 157.581 126.81 157.607H166.256C166.449 157.607 166.64 157.57 166.818 157.497C166.996 157.423 167.159 157.315 167.295 157.179C167.432 157.043 167.54 156.882 167.614 156.704C167.688 156.526 167.727 156.335 167.727 156.142C167.727 156.11 167.727 156.079 167.72 156.047L164.934 92.6768L167.443 89.1738C167.627 88.9218 167.727 88.6168 167.72 88.3018V74.9718C167.72 74.1568 167.063 73.5008 166.256 73.5008H158.41C157.597 73.5008 156.941 74.1558 156.941 74.9718V81.2638H152.033V74.9718C152.033 74.1568 151.377 73.5008 150.566 73.5008H142.649C141.837 73.5008 141.178 74.1558 141.178 74.9718V81.2638H136.273V74.9718C136.273 74.1568 135.617 73.5008 134.802 73.5008H126.939L126.908 73.4778Z" fill="#414342"/>
<path d="M128.94 92.4609H164.207M32.1338 92.4609H67.3988" stroke="#414342" stroke-width="2" stroke-miterlimit="10"/>
<defs>
<radialGradient id="paint0_radial_930_4456" cx="0" cy="0" r="1" gradientUnits="userSpaceOnUse" gradientTransform="translate(98.6038 98.6039) scale(89.9342)">
<stop stop-color="#CDDB60"/>
<stop offset="0.24" stop-color="#C3D65A"/>
<stop offset="0.631" stop-color="#ABC948"/>
<stop offset="1" stop-color="#91B934"/>
</radialGradient>
<radialGradient id="paint1_radial_930_4456" cx="0" cy="0" r="1" gradientUnits="userSpaceOnUse" gradientTransform="translate(98.6038 98.6039) scale(89.9342 89.9347)">
<stop stop-color="#BDD26F"/>
<stop offset="1" stop-color="#98C52F"/>
</radialGradient>
</defs>
</svg>
