<svg xmlns="http://www.w3.org/2000/svg" width="200" height="200" fill="none" viewBox="0 0 200 200"><g transform="translate(80, 20)"><path fill="none" d="M0.564209 162.204V11.7861L19.9749 0.661499L39.4361 11.8262V162.204L19.9749 173.349L0.564209 162.204Z"/><path fill="#000" d="M19.9748 1.30289L38.872 12.1469V161.873L19.9748 172.697L1.1282 161.873V12.1269L19.9748 1.30289ZM19.9748 0L19.4107 0.320711L0.564102 11.1447L0 11.4754V162.515L0.564102 162.845L19.4107 173.669L19.9748 174L20.5389 173.669L39.436 162.845L40 162.515V11.5055L39.436 11.1748L20.5389 0.320711L19.9748 0Z"/><path fill="#000" d="M19.9748 5.19149L35.487 14.0912V159.919L19.9748 168.808L4.51268 159.929V14.0712L19.9748 5.19149ZM19.9748 1.29285L1.12817 12.1269V161.873L19.9748 172.697L38.872 161.873V12.1469L19.9748 1.30287V1.29285Z"/><line x1="20" x2="20" y1="15" y2="155" stroke="#000" stroke-dasharray="10 8" stroke-width="2" opacity=".3"/></g></svg>