<svg xmlns="http://www.w3.org/2000/svg" width="200" height="200" xmlns:v="https://vecta.io/nano"><path fill="#fff" d="M100 193.571c-51.595 0-93.571-41.976-93.571-93.571S48.405 6.43 100 6.43s93.571 41.976 93.571 93.57-41.976 93.571-93.571 93.571z"/><path d="M100 11.555c48.847 0 88.446 39.601 88.446 88.445s-39.6 88.446-88.446 88.446S11.554 148.847 11.554 100 51.153 11.555 100 11.555m0-10.25C45.579 1.305 1.304 45.579 1.304 100S45.579 198.696 100 198.696s98.696-44.275 98.696-98.696S154.421 1.305 100 1.305h0z"/><path fill="#00b2b2" d="M100 11.519c48.867 0 88.482 39.616 88.482 88.481S148.867 188.482 100 188.482 11.518 148.867 11.518 100 51.133 11.519 100 11.519m0-9C46.248 2.519 2.518 46.249 2.518 100s43.73 97.482 97.482 97.482 97.482-43.73 97.482-97.482S153.752 2.519 100 2.519h0z"/><path fill="#3ff" d="M100 23.667c42.09 0 76.333 34.243 76.333 76.333S142.09 176.333 100 176.333 23.667 142.09 23.667 100 57.91 23.667 100 23.667m0-17.065C48.419 6.602 6.602 48.418 6.602 100S48.419 193.398 100 193.398s93.398-41.814 93.398-93.398S151.584 6.602 100 6.602h0z"/><path d="M93.998 43.813c.306-.304.726-.493 1.188-.493l9.614-.003A1.69 1.69 0 0 1 106.483 45l.002 5.886a1.68 1.68 0 0 1-.495 1.188c-.304.302-.726.493-1.189.494l-9.612.001c-.924 0-1.684-.756-1.686-1.682v-5.885a1.68 1.68 0 0 1 .495-1.189m-1.469-1.468a3.73 3.73 0 0 0-1.103 2.657l.001 5.885c0 2.074 1.689 3.76 3.761 3.76l9.613-.001c1.003 0 1.946-.394 2.659-1.105a3.73 3.73 0 0 0 1.101-2.655L108.56 45c0-2.072-1.687-3.76-3.761-3.76l-9.613.002c-1.001-.001-1.947.391-2.657 1.103m-9.484 30.113c.409-.407 1.3-.225 2.005.257l2.587 1.77c.236.162.517.25.803.25l23.119-.006c.286 0 .567-.088.804-.249l2.588-1.77c.942-.647 2.227-.758 2.227.388l.002 7.087a1.41 1.41 0 0 1-1.425 1.424l-31.508.008c-.787 0-1.423-.639-1.424-1.425l-.001-7.09c-.001-.292.083-.501.223-.644m-1.48-1.478c-.382.383-.835 1.059-.835 2.121l.001 7.09a3.52 3.52 0 0 0 3.516 3.514l31.508-.005a3.5 3.5 0 0 0 2.484-1.029c.663-.664 1.029-1.548 1.03-2.486l-.002-7.087c0-1.141-.563-2.118-1.507-2.617-1.356-.715-2.952-.21-3.992.503l-2.417 1.654-22.705.002-2.419-1.651c-1.659-1.135-3.533-1.137-4.662-.009" fill="#42250d"/><path fill="#9b7753" d="M94.661 48.618h10.671v28.145H94.661z"/><path fill="#603913" d="M95.652 49.508l8.685-.001.005 26.364-8.686.001-.004-26.364zm-2.117-2.116v2.116l.005 26.365.001 2.118h2.115l8.686-.001 2.117-.001v-2.118l-.005-26.365v-2.117h-2.117l-8.685.003h-2.117z"/><path fill="#636362" d="M101.364 157.065c-.41.412-1.017.604-1.623.517-.586-.086-1.077-.419-1.348-.916l-6.873-12.707-.012-65.446 17.014-.003.014 65.447-6.873 12.708a1.68 1.68 0 0 1-.299.4z"/><path fill="#414042" d="M92.389 78.915l15.253-.003.012 65.317-6.871 12.705a.62.62 0 0 1-.125.169c-.372.375-1.117.319-1.382-.168l-6.874-12.703-.013-65.317m-2.065-2.064v2.066l.01 65.315.001.523.251.461 6.873 12.703c.43.795 1.206 1.328 2.129 1.463.938.137 1.885-.169 2.532-.818.19-.191.354-.408.481-.646l6.869-12.706.247-.46v-.524l-.011-65.316v-2.064h-2.065l-15.253.003h-2.064z"/><path fill="#c49a6c" d="M95.706 53.049h6.468v22.666h-6.468z"/><path fill="#633b1a" d="M106.365 52.488c-.45.448-1.043.695-1.675.695l-9.392.002c-1.305 0-2.368-1.063-2.368-2.369l-.001-5.745c0-.633.248-1.226.695-1.674a2.34 2.34 0 0 1 1.672-.694l9.393-.002a2.35 2.35 0 0 1 1.674.693 2.36 2.36 0 0 1 .696 1.674l.001 5.748c.001.63-.247 1.225-.695 1.672"/><path fill="#42250d" d="M94.137 43.909c.298-.298.709-.482 1.16-.482l9.394-.002a1.65 1.65 0 0 1 1.643 1.644l.002 5.748c0 .451-.186.861-.484 1.161s-.708.48-1.16.481l-9.392.001a1.65 1.65 0 0 1-1.645-1.644V45.07c-.002-.453.186-.863.482-1.161m-1.026-1.024a3.07 3.07 0 0 0-.907 2.187l.001 5.747a3.07 3.07 0 0 0 .909 2.186 3.08 3.08 0 0 0 2.185.907l9.392-.003c.825 0 1.602-.322 2.187-.906a3.07 3.07 0 0 0 .906-2.186v-5.748a3.07 3.07 0 0 0-.907-2.188 3.08 3.08 0 0 0-2.187-.905l-9.393.001a3.08 3.08 0 0 0-2.186.908"/><path fill="#633b1a" d="M116.782 81.573a2.1 2.1 0 0 1-1.489.618l-30.585.005a2.09 2.09 0 0 1-2.106-2.106l-.001-6.881c0-.583.234-.941.431-1.137.733-.734 1.998-.43 2.865.161l2.512 1.717c.11.076.238.115.372.116l22.439-.005a.63.63 0 0 0 .369-.115l2.512-1.717c.664-.454 1.726-.835 2.53-.41.287.15.766.531.766 1.384l.001 6.881a2.09 2.09 0 0 1-.616 1.489"/><path fill="#42250d" d="M83.543 72.584c.396-.397 1.261-.219 1.944.248L88 74.55c.229.158.501.243.779.243l22.44-.006c.278 0 .551-.085.78-.242l2.511-1.718c.916-.628 2.162-.734 2.162.377l.002 6.88c0 .381-.155.728-.406.977a1.37 1.37 0 0 1-.977.404l-30.584.008c-.764 0-1.381-.62-1.382-1.383l-.001-6.881c.001-.285.083-.487.219-.625m-1.025-1.025c-.293.294-.642.818-.642 1.65l.001 6.881c0 1.562 1.27 2.832 2.832 2.831l30.583-.006a2.82 2.82 0 0 0 2.831-2.831l-.002-6.88c0-.901-.42-1.64-1.151-2.027-1.09-.573-2.407-.142-3.277.453l-2.495 1.706-22.399.004-2.494-1.705c-1.352-.925-2.908-.956-3.787-.076"/><path d="M104.736 70.639v-1.026s-1.876-.585-4.737-.584-4.708.587-4.708.587l.001 1.025s2.605-.587 4.707-.587 4.737.585 4.737.585m-.001-6.107v-1.026s-1.876-.585-4.738-.584-4.707.586-4.707.586l-.001 1.024s2.608-.586 4.709-.586 4.737.586 4.737.586m-.001-5.549v-1.025s-1.877-.585-4.737-.585-4.709.589-4.709.589l.001 1.023s2.607-.584 4.708-.585 4.737.583 4.737.583" fill="#603913"/><path fill="#939598" d="M99.288 156.7l-6.753-12.482-.011-56.188 14.985-.002.011 56.187-6.752 12.486c-.289.539-1.189.537-1.48-.001"/><path fill="#bcbec0" d="M100.029 157.104h0c-.298 0-.594-.135-.74-.403l-6.754-12.482-.011-56.188 7.493-.001c.001-.002.309 69.074.012 69.074"/><path fill="none" stroke="#414042" stroke-width="3" stroke-miterlimit="10" d="M91.806 87.518l16.294-.043"/><path d="M114.415 73.408c0-.184-.036-.33-.097-.45l-2.319 1.587a1.38 1.38 0 0 1-.779.242h-1.539a1.37 1.37 0 0 1-.718.206l-22.44.004c-.278 0-.55-.085-.78-.242l-2.409-1.647-.008.102.001 6.881c0 .763.618 1.383 1.383 1.383l29.042-.008a1.37 1.37 0 0 0 .665-1.175l-.002-6.883zM94.52 43.632c-.512.279-.866.816-.865 1.439l.001 5.747a1.65 1.65 0 0 0 1.644 1.641h7.913a1.64 1.64 0 0 0 .866-1.438l-.001-5.748a1.65 1.65 0 0 0-1.646-1.643l-7.912.002z" fill="#916136"/><path d="M95.041 44.472l4.856-.001a.8.8 0 0 1 .796.797.8.8 0 0 1-.796.797l-4.855.001a.8.8 0 0 1-.797-.798.8.8 0 0 1 .796-.796m-6.287 32.876l12.368-.001a.8.8 0 0 0 .798-.798.8.8 0 0 0-.798-.796l-12.369.001a.8.8 0 0 0-.798.798c.001.436.36.796.799.796" fill="#b78358"/></svg>