<svg xmlns="http://www.w3.org/2000/svg" xmlns:xlink="http://www.w3.org/1999/xlink" width="200" height="200" xmlns:v="https://vecta.io/nano"><path fill="#fff" d="M100 193.571c-51.595 0-93.571-41.976-93.571-93.571S48.405 6.43 100 6.43s93.571 41.976 93.571 93.57-41.976 93.571-93.571 93.571z"/><path d="M100 11.555c48.847 0 88.446 39.601 88.446 88.445s-39.6 88.446-88.446 88.446S11.554 148.847 11.554 100 51.153 11.555 100 11.555m0-10.25C45.579 1.305 1.304 45.579 1.304 100S45.579 198.696 100 198.696s98.696-44.275 98.696-98.696S154.421 1.305 100 1.305h0z"/><path fill="#00b2b2" d="M100 11.519c48.867 0 88.482 39.616 88.482 88.481S148.867 188.482 100 188.482 11.518 148.867 11.518 100 51.133 11.519 100 11.519m0-9C46.248 2.519 2.518 46.248 2.518 100s43.73 97.482 97.482 97.482 97.482-43.73 97.482-97.482S153.752 2.519 100 2.519h0z"/><path fill="#3ff" d="M100 23.666c42.09 0 76.333 34.243 76.333 76.334S142.09 176.334 100 176.334 23.667 142.091 23.667 100 57.91 23.666 100 23.666m0-17.064C48.419 6.602 6.602 48.418 6.602 100S48.419 193.398 100 193.398s93.398-41.814 93.398-93.398S151.584 6.602 100 6.602h0z"/><path d="M122.794 43.925a1.68 1.68 0 0 1 1.187-.493l9.595-.003c.922 0 1.679.756 1.679 1.68l.003 5.873c0 .462-.19.88-.495 1.186a1.67 1.67 0 0 1-1.187.492l-9.593.001a1.69 1.69 0 0 1-1.682-1.678V45.11c0-.463.19-.881.493-1.185m-1.465-1.466a3.72 3.72 0 0 0-1.101 2.652l.001 5.872a3.76 3.76 0 0 0 3.753 3.752l9.594-.001c1.001 0 1.942-.393 2.652-1.104a3.72 3.72 0 0 0 1.1-2.649l-.001-5.873a3.76 3.76 0 0 0-3.753-3.752l-9.594.002a3.72 3.72 0 0 0-2.651 1.101m-9.465 30.052c.408-.407 1.297-.226 2 .255l2.582 1.768a1.43 1.43 0 0 0 .801.248l23.072-.005a1.43 1.43 0 0 0 .802-.249l2.582-1.767c.941-.646 2.222-.755 2.222.388l.002 7.072a1.41 1.41 0 0 1-1.421 1.421l-31.443.007a1.42 1.42 0 0 1-1.421-1.42l-.001-7.076c0-.293.083-.501.223-.642m-1.476-1.476c-.381.383-.834 1.058-.834 2.118l.001 7.075a3.51 3.51 0 0 0 3.509 3.506l31.443-.005a3.49 3.49 0 0 0 2.479-1.027c.661-.663 1.026-1.544 1.027-2.481l-.002-7.072c0-1.139-.562-2.114-1.505-2.611-1.352-.714-2.944-.209-3.982.502l-2.411 1.65-22.661.002-2.412-1.647c-1.655-1.134-3.525-1.137-4.652-.01" fill="#42250d"/><path fill="#9b7753" d="M123.456 48.72h10.649v28.086h-10.649z"/><path fill="#603913" d="M124.445 49.607l8.666-.001.005 26.31-8.666.001-.005-26.31zm-2.113-2.112v2.112l.006 26.311.001 2.114h2.111l8.666-.001 2.114-.001v-2.114l-.005-26.311v-2.113h-2.114l-8.666.003h-2.113z"/><path fill="#636362" d="M130.146 156.942c-.409.412-1.015.604-1.62.518a1.81 1.81 0 0 1-1.344-.915l-6.859-12.682-.012-65.311 16.979-.003.012 65.312-6.857 12.683c-.082.146-.18.282-.299.398z"/><path fill="#414042" d="M121.189 78.954l15.221-.003.012 65.183-6.856 12.68c-.033.063-.076.119-.125.168-.372.374-1.116.317-1.38-.167l-6.859-12.678-.013-65.183m-2.061-2.06v2.063l.011 65.181.001.522.25.46 6.859 12.677c.429.793 1.203 1.325 2.125 1.46.934.137 1.879-.169 2.525-.816.19-.191.353-.407.48-.645l6.854-12.68.248-.46v-.522l-.011-65.182v-2.061h-2.062l-15.221.003h-2.059z"/><path fill="#c49a6c" d="M124.5 53.142h6.454v22.619H124.5z"/><path fill="#633b1a" d="M135.136 52.582a2.35 2.35 0 0 1-1.671.694l-9.372.002c-1.303 0-2.362-1.062-2.362-2.364l-.001-5.734a2.35 2.35 0 0 1 .692-1.67c.447-.448 1.039-.694 1.669-.693l9.373-.002a2.35 2.35 0 0 1 1.67.691 2.36 2.36 0 0 1 .694 1.671l.001 5.736c0 .629-.246 1.222-.693 1.669"/><path fill="#42250d" d="M122.933 44.021a1.64 1.64 0 0 1 1.158-.482l9.374-.002c.9 0 1.639.738 1.639 1.641l.002 5.736a1.64 1.64 0 0 1-1.64 1.639l-9.372.001c-.9 0-1.64-.736-1.641-1.64v-5.735c-.002-.452.184-.862.48-1.158m-1.023-1.023c-.583.583-.905 1.357-.905 2.182l.001 5.735c0 .823.322 1.597.906 2.181s1.359.905 2.181.905l9.372-.002c.823 0 1.599-.321 2.182-.905s.905-1.359.905-2.181v-5.736a3.07 3.07 0 0 0-3.088-3.086l-9.373.001a3.07 3.07 0 0 0-2.181.906"/><path fill="#633b1a" d="M145.532 81.606c-.397.397-.925.616-1.486.617l-30.521.005a2.08 2.08 0 0 1-2.102-2.101l-.002-6.867c0-.582.233-.939.43-1.135.732-.732 1.995-.429 2.859.16L117.216 74a.66.66 0 0 0 .371.115l22.394-.005c.133 0 .261-.038.369-.114l2.507-1.715c.662-.452 1.722-.832 2.524-.408.286.15.764.53.764 1.381l.001 6.865a2.09 2.09 0 0 1-.614 1.487"/><path fill="#42250d" d="M112.36 72.636c.396-.396 1.259-.219 1.94.248l2.507 1.714a1.38 1.38 0 0 0 .778.242l22.395-.006a1.38 1.38 0 0 0 .778-.241l2.507-1.714c.914-.627 2.156-.733 2.156.376l.002 6.864a1.37 1.37 0 0 1-1.379 1.38l-30.521.007a1.38 1.38 0 0 1-1.38-1.379l-.001-6.867c.002-.284.083-.487.218-.624m-1.022-1.024c-.293.293-.641.817-.641 1.647l.001 6.867a2.83 2.83 0 0 0 2.827 2.824l30.52-.005c.755 0 1.465-.294 1.998-.827a2.81 2.81 0 0 0 .827-2l-.002-6.864c0-.9-.419-1.636-1.149-2.023-1.088-.572-2.402-.142-3.271.453l-2.49 1.702-22.352.004-2.488-1.701c-1.349-.923-2.903-.954-3.78-.077"/><g fill="#603913"><use xlink:href="#B"/><use xlink:href="#C"/><use xlink:href="#D"/></g><path fill="#939598" d="M128.074 156.578l-6.74-12.456-.01-56.072 14.955-.002.009 56.07-6.736 12.46c-.29.539-1.188.537-1.478 0"/><path fill="#bcbec0" d="M128.813 156.981h0c-.296 0-.592-.135-.737-.403l-6.741-12.456-.01-56.072 7.478-.001c-.001 0 .306 68.932.01 68.932"/><path fill="none" stroke="#414042" stroke-width="3" stroke-miterlimit="10" d="M120.606 87.538l16.26-.042"/><g fill="#916136"><use xlink:href="#E"/><use xlink:href="#F"/></g><g fill="#b78358"><path d="M123.836 44.582l4.846-.001c.436 0 .794.357.794.795s-.358.795-.794.795l-4.845.001a.8.8 0 0 1-.796-.796c0-.436.357-.794.795-.794"/><use xlink:href="#G"/></g><path d="M67.192 43.925a1.68 1.68 0 0 1 1.187-.493l9.595-.003c.922 0 1.679.756 1.679 1.68l.002 5.873c0 .462-.189.88-.494 1.186a1.67 1.67 0 0 1-1.187.492l-9.593.001a1.69 1.69 0 0 1-1.682-1.678V45.11a1.68 1.68 0 0 1 .493-1.185m-1.464-1.466a3.72 3.72 0 0 0-1.101 2.652l.001 5.872a3.76 3.76 0 0 0 3.753 3.752l9.594-.001c1 0 1.942-.393 2.652-1.104a3.72 3.72 0 0 0 1.1-2.649l-.001-5.873a3.76 3.76 0 0 0-3.753-3.752l-9.594.002a3.72 3.72 0 0 0-2.651 1.101m-9.466 30.052c.409-.407 1.298-.226 2 .255l2.583 1.768a1.43 1.43 0 0 0 .801.248l23.072-.005a1.43 1.43 0 0 0 .802-.249l2.582-1.767c.941-.646 2.222-.755 2.222.388l.002 7.072a1.41 1.41 0 0 1-1.421 1.421l-31.443.007a1.42 1.42 0 0 1-1.421-1.42l-.001-7.076c-.001-.293.082-.501.222-.642m-1.476-1.476c-.381.383-.834 1.058-.834 2.118l.001 7.075a3.51 3.51 0 0 0 3.509 3.506l31.443-.005a3.49 3.49 0 0 0 2.479-1.027c.661-.663 1.026-1.544 1.027-2.481l-.002-7.072c0-1.139-.562-2.114-1.505-2.611-1.353-.714-2.944-.209-3.982.502l-2.411 1.65-22.661.002-2.412-1.647c-1.655-1.134-3.525-1.137-4.652-.01" fill="#42250d"/><path fill="#9b7753" d="M67.854 48.72h10.649v28.086H67.854z"/><path fill="#603913" d="M68.844 49.607l8.666-.001.005 26.31-8.666.001-.005-26.31zm-2.114-2.112v2.112l.005 26.311.001 2.114h2.112l8.666-.001 2.114-.001v-2.114l-.005-26.311v-2.113H77.51l-8.666.003H66.73z"/><path fill="#636362" d="M74.544 156.942c-.409.412-1.015.604-1.62.518a1.81 1.81 0 0 1-1.344-.915l-6.859-12.682-.012-65.311 16.979-.003.013 65.312-6.857 12.683a1.75 1.75 0 0 1-.3.398z"/><path fill="#414042" d="M65.588 78.954l15.221-.003.012 65.183-6.856 12.68c-.033.063-.076.119-.125.168-.372.374-1.116.317-1.38-.167l-6.86-12.678-.012-65.183m-2.062-2.06v2.063l.011 65.181.001.522.249.46 6.86 12.677c.428.793 1.203 1.325 2.124 1.46a2.97 2.97 0 0 0 2.526-.816c.19-.191.353-.407.48-.645l6.854-12.68.248-.46v-.522l-.009-65.183V76.89h-2.062l-15.221.003h-2.061z"/><path fill="#c49a6c" d="M68.898 53.142h6.454v22.619h-6.454z"/><path fill="#633b1a" d="M79.534 52.582a2.35 2.35 0 0 1-1.671.694l-9.372.002c-1.303 0-2.362-1.062-2.362-2.364l-.002-5.734a2.35 2.35 0 0 1 .693-1.67c.447-.448 1.039-.694 1.669-.693l9.373-.002a2.35 2.35 0 0 1 1.67.691 2.36 2.36 0 0 1 .694 1.671l.001 5.736a2.34 2.34 0 0 1-.693 1.669"/><path fill="#42250d" d="M67.331 44.021a1.64 1.64 0 0 1 1.158-.482l9.374-.002c.9 0 1.639.738 1.639 1.641l.002 5.736a1.64 1.64 0 0 1-1.64 1.639l-9.372.001c-.9 0-1.64-.736-1.641-1.64v-5.735a1.63 1.63 0 0 1 .48-1.158m-1.022-1.023c-.583.583-.905 1.357-.905 2.182l.001 5.735c0 .823.322 1.597.906 2.181s1.359.905 2.181.905l9.372-.002c.823 0 1.599-.321 2.182-.905s.905-1.359.905-2.181v-5.736a3.07 3.07 0 0 0-3.088-3.086l-9.373.001a3.07 3.07 0 0 0-2.181.906"/><path fill="#633b1a" d="M89.931 81.606c-.397.397-.925.616-1.486.617l-30.522.005a2.08 2.08 0 0 1-2.102-2.101l-.001-6.867c0-.582.233-.939.43-1.135.732-.732 1.995-.429 2.859.16L61.614 74a.66.66 0 0 0 .371.115l22.394-.005c.133 0 .261-.038.369-.114l2.507-1.715c.662-.452 1.721-.832 2.524-.408.286.15.764.53.764 1.381l.001 6.865c.001.563-.218 1.091-.613 1.487"/><path fill="#42250d" d="M56.759 72.636c.396-.396 1.259-.219 1.94.248l2.507 1.714a1.38 1.38 0 0 0 .778.242l22.395-.006a1.38 1.38 0 0 0 .778-.241l2.507-1.714c.914-.627 2.156-.733 2.156.376l.002 6.864c0 .382-.154.728-.405.976s-.593.404-.974.404l-30.521.007a1.38 1.38 0 0 1-1.379-1.379l-.001-6.867c0-.284.081-.487.217-.624m-1.023-1.024c-.293.293-.641.817-.641 1.647l.001 6.867a2.83 2.83 0 0 0 2.827 2.824l30.52-.005c.755 0 1.465-.294 1.998-.827a2.81 2.81 0 0 0 .827-2l-.002-6.864c0-.9-.419-1.636-1.149-2.023-1.088-.572-2.402-.142-3.271.453l-2.49 1.702-22.352.004-2.489-1.701c-1.348-.923-2.902-.954-3.779-.077"/><g fill="#603913"><use xlink:href="#B" x="-55.602"/><use xlink:href="#C" x="-55.602"/><use xlink:href="#D" x="-55.602"/></g><path fill="#939598" d="M72.473 156.578l-6.74-12.456-.01-56.072 14.955-.002.009 56.07-6.736 12.46c-.291.539-1.188.537-1.478 0"/><path fill="#bcbec0" d="M73.211 156.981h0c-.296 0-.592-.135-.737-.403l-6.741-12.456-.01-56.072 7.478-.001c-.001 0 .307 68.932.01 68.932"/><path fill="none" stroke="#414042" stroke-width="3" stroke-miterlimit="10" d="M65.005 87.538l16.26-.042"/><g fill="#916136"><use xlink:href="#E" x="-55.602"/><use xlink:href="#F" x="-55.601"/></g><g fill="#b78358"><path d="M68.234 44.582l4.846-.001c.436 0 .794.357.794.795s-.358.795-.794.795l-4.845.001a.8.8 0 0 1-.796-.796.8.8 0 0 1 .795-.794"/><use xlink:href="#G" x="-55.602"/></g><defs ><path id="B" d="M133.512 70.694v-1.023s-1.873-.584-4.729-.583-4.699.585-4.699.585l.001 1.023s2.602-.586 4.698-.586 4.729.584 4.729.584"/><path id="C" d="M133.511 64.601v-1.024s-1.873-.584-4.729-.583-4.698.585-4.698.585l-.001 1.023s2.604-.586 4.7-.586 4.728.585 4.728.585"/><path id="D" d="M133.51 59.063V58.04s-1.873-.583-4.729-.583-4.7.586-4.7.586l.001 1.022s2.604-.584 4.699-.585 4.729.583 4.729.583"/><path id="E" d="M143.17 73.459c0-.184-.036-.33-.097-.449l-2.315 1.583a1.37 1.37 0 0 1-.777.241l-1.535.002c-.216.131-.464.204-.718.204l-22.394.004c-.277 0-.549-.085-.778-.241l-2.404-1.644-.008.101.001 6.867a1.38 1.38 0 0 0 1.381 1.379l28.981-.007c.397-.242.664-.675.664-1.174l-.001-6.866z"/><path id="F" d="M123.315 43.743c-.511.279-.864.815-.863 1.437l.001 5.735c0 .902.739 1.639 1.64 1.638h7.896c.513-.278.865-.814.865-1.435l-.001-5.736c-.001-.902-.739-1.641-1.642-1.64l-7.896.001z"/><path id="G" d="M117.562 77.391l12.343-.002c.438 0 .795-.357.795-.797s-.357-.794-.795-.794l-12.344.001a.8.8 0 0 0-.796.796.8.8 0 0 0 .797.796"/></defs></svg>