<svg xmlns="http://www.w3.org/2000/svg" xmlns:xlink="http://www.w3.org/1999/xlink" width="200" height="200" xmlns:v="https://vecta.io/nano"><style><![CDATA[.B{fill:#42250d}.C{fill:#603913}.D{fill:#633b1a}.E{fill:#9b7753}.F{fill:#636362}.G{fill:#414042}.H{fill:#c49a6c}.I{fill:#939598}.J{fill:#bcbec0}.K{stroke:#414042}.L{stroke-width:3}.M{stroke-miterlimit:10}.N{fill:#916136}.O{fill:#b78358}]]></style><path fill="#fff" d="M100 193.571c-51.595 0-93.571-41.976-93.571-93.571S48.405 6.43 100 6.43s93.571 41.976 93.571 93.57-41.976 93.571-93.571 93.571z"/><path d="M100 11.555c48.847 0 88.446 39.601 88.446 88.445s-39.6 88.446-88.446 88.446S11.554 148.847 11.554 100 51.153 11.555 100 11.555m0-10.25C45.579 1.305 1.304 45.579 1.304 100S45.579 198.696 100 198.696s98.696-44.275 98.696-98.696S154.421 1.305 100 1.305h0z"/><path fill="#420042" d="M100 11.519c48.867 0 88.482 39.616 88.482 88.481S148.867 188.482 100 188.482 11.518 148.867 11.518 100 51.133 11.519 100 11.519m0-9C46.248 2.519 2.518 46.249 2.518 100s43.73 97.482 97.482 97.482 97.482-43.73 97.482-97.482S153.752 2.519 100 2.519h0z"/><path fill="#838" d="M100 23.667c42.09 0 76.333 34.243 76.333 76.333S142.09 176.333 100 176.333 23.667 142.09 23.667 100 57.91 23.667 100 23.667m0-17.065C48.419 6.602 6.602 48.418 6.602 100S48.419 193.398 100 193.398s93.398-41.814 93.398-93.398S151.584 6.602 100 6.602h0z"/><g class="B"><use xlink:href="#B"/><use xlink:href="#C"/></g><path d="M128.326 48.133h10.342v27.276h-10.342z" class="E"/><use xlink:href="#D" class="C"/><use xlink:href="#E" class="F"/><path d="M126.124 77.496l14.782-.003.012 63.305-6.659 12.314c-.032.062-.073.116-.121.163-.361.363-1.084.309-1.34-.162l-6.662-12.313-.012-63.304m-2.002-2.001v2.003l.011 63.303.001.508.242.446 6.662 12.312c.416.771 1.169 1.287 2.063 1.418.907.133 1.825-.164 2.453-.793a2.72 2.72 0 0 0 .467-.626l6.657-12.314.24-.446v-.508l-.01-63.304v-2.001h-2.003l-14.782.003h-2.001z" class="G"/><path d="M129.339 52.427h6.268v21.968h-6.268z" class="H"/><use xlink:href="#F" class="D"/><use xlink:href="#G" class="B"/><use xlink:href="#H" class="D"/><path d="M117.55 71.359c.385-.384 1.223-.212 1.885.241l2.435 1.665a1.34 1.34 0 0 0 .756.234l21.749-.005a1.34 1.34 0 0 0 .756-.234l2.435-1.665c.888-.608 2.095-.712 2.095.365l.002 6.667c0 .37-.15.706-.394.947a1.33 1.33 0 0 1-.946.393l-29.642.007a1.34 1.34 0 0 1-1.34-1.34l-.001-6.669c-.001-.276.078-.472.21-.606m-.993-.993c-.284.284-.622.793-.622 1.6l.001 6.669c0 1.513 1.23 2.744 2.745 2.743l29.641-.005c.733 0 1.423-.285 1.94-.803s.804-1.208.804-1.942l-.002-6.667c0-.874-.407-1.589-1.116-1.965-1.057-.556-2.333-.138-3.177.439l-2.418 1.653-21.708.004-2.417-1.652c-1.311-.896-2.82-.926-3.671-.074" class="B"/><g class="C"><use xlink:href="#I"/><use xlink:href="#J"/><use xlink:href="#K"/></g><use xlink:href="#L" class="I"/><use xlink:href="#M" class="J"/><path fill="none" d="M125.559 85.833l15.791-.041" class="K L M"/><g class="N"><use xlink:href="#N"/><use xlink:href="#O"/></g><g class="O"><use xlink:href="#P"/><path d="M122.601 75.978l11.987-.002c.426 0 .772-.347.772-.773s-.348-.771-.772-.771H122.6c-.424 0-.772.349-.772.773s.348.773.773.773"/></g><g class="B"><use xlink:href="#B" x="-67"/><use xlink:href="#C" x="-67"/></g><path d="M61.326 48.133h10.342v27.276H61.326z" class="E"/><use xlink:href="#D" x="-67" class="C"/><use xlink:href="#E" x="-67" class="F"/><path d="M59.124 77.496l14.782-.003.012 63.305-6.659 12.314c-.032.062-.073.116-.121.163-.361.363-1.084.309-1.34-.162L59.136 140.8l-.012-63.304m-2.002-2.001v2.003l.011 63.303.001.508.242.446 6.662 12.312c.416.771 1.169 1.287 2.063 1.418.907.133 1.825-.164 2.453-.793a2.72 2.72 0 0 0 .467-.626l6.657-12.314.24-.446v-.508l-.01-63.304v-2.001h-2.003l-14.782.003h-2.001z" class="G"/><path d="M62.339 52.427h6.268v21.968h-6.268z" class="H"/><use xlink:href="#F" x="-67" class="D"/><use xlink:href="#G" x="-67" class="B"/><use xlink:href="#H" x="-67" class="D"/><use xlink:href="#Q" class="B"/><g class="C"><use xlink:href="#I" x="-67"/><use xlink:href="#J" x="-67"/><use xlink:href="#K" x="-67"/></g><use xlink:href="#L" x="-67" class="I"/><use xlink:href="#M" x="-67" class="J"/><path fill="none" d="M58.559 85.833l15.791-.041" class="K L M"/><g class="N"><use xlink:href="#N" x="-67"/><use xlink:href="#O" x="-67"/></g><g class="O"><use xlink:href="#P" x="-67"/><path d="M55.601 75.978l11.987-.002c.426 0 .772-.347.772-.773s-.348-.771-.772-.771H55.6c-.424 0-.772.349-.772.773s.348.773.773.773"/></g><g class="B"><use xlink:href="#B" x="-34" y="14"/><use xlink:href="#C" x="-34" y="14"/></g><path d="M94.326 62.133h10.342v27.276H94.326z" class="E"/><path d="M95.286 62.995l8.417-.001.005 25.552-8.417.001-.005-25.552zm-2.052-2.052v2.052l.005 25.553.001 2.053h2.051l8.417-.001 2.053-.001v-2.053l-.005-25.553V60.94h-2.053l-8.417.003h-2.052z" class="C"/><use xlink:href="#E" x="-34" y="14" class="F"/><path d="M92.124 91.496l14.782-.003.012 63.305-6.659 12.314c-.032.062-.073.116-.121.163-.361.363-1.084.309-1.34-.162L92.136 154.8l-.012-63.304m-2.002-2.001v2.003l.011 63.303.001.508.242.446 6.662 12.312c.416.771 1.169 1.287 2.063 1.418.907.133 1.825-.164 2.453-.793a2.72 2.72 0 0 0 .467-.626l6.657-12.314.24-.446v-.508l-.01-63.304v-2.001h-2.003l-14.782.003h-2.001z" class="G"/><path d="M95.339 66.427h6.268v21.968h-6.268z" class="H"/><use xlink:href="#F" x="-34" y="14" class="D"/><use xlink:href="#G" x="-34" y="14" class="B"/><use xlink:href="#H" x="-34" y="14" class="D"/><use xlink:href="#Q" x="33" y="14" class="B"/><g class="C"><use xlink:href="#I" x="-34" y="14"/><use xlink:href="#J" x="-34" y="14"/><use xlink:href="#K" x="-34" y="14"/></g><use xlink:href="#L" x="-34" y="14" class="I"/><use xlink:href="#M" x="-34" y="14" class="J"/><path fill="none" d="M91.559 99.833l15.791-.041" class="K L M"/><g class="N"><use xlink:href="#N" x="-34" y="14"/><use xlink:href="#O" x="-34" y="14"/></g><g class="O"><use xlink:href="#P" x="-34" y="14"/><path d="M88.601 89.978l11.987-.002c.426 0 .772-.347.772-.773s-.348-.771-.772-.771H88.6c-.424 0-.772.349-.772.773s.348.773.773.773"/></g><defs ><path id="B" d="M127.683 43.476c.297-.295.704-.479 1.152-.479l9.318-.003c.896 0 1.631.734 1.631 1.631l.002 5.704a1.63 1.63 0 0 1-.48 1.151c-.294.293-.703.478-1.152.479l-9.316.001a1.64 1.64 0 0 1-1.633-1.63v-5.703c-.001-.449.184-.856.478-1.151m-1.423-1.424c-.69.689-1.068 1.604-1.068 2.576l.001 5.703a3.65 3.65 0 0 0 3.645 3.644l9.317-.001a3.62 3.62 0 0 0 2.576-1.071c.689-.688 1.067-1.603 1.067-2.573l-.001-5.704a3.65 3.65 0 0 0-3.645-3.644l-9.317.002c-.972-.001-1.887.378-2.575 1.068"/><path id="C" d="M117.067 71.238c.396-.396 1.26-.219 1.942.248l2.508 1.716c.229.156.501.241.778.241l22.407-.005c.277 0 .549-.085.778-.241l2.508-1.716c.915-.627 2.158-.733 2.158.376l.002 6.869a1.37 1.37 0 0 1-1.38 1.38l-30.538.007a1.38 1.38 0 0 1-1.38-1.38l-.001-6.872c.002-.283.083-.485.218-.623m-1.433-1.432c-.37.371-.81 1.026-.81 2.057l.001 6.871a3.41 3.41 0 0 0 3.407 3.405l30.538-.005c.909-.001 1.764-.355 2.407-.998a3.39 3.39 0 0 0 .998-2.409l-.002-6.869c0-1.105-.545-2.053-1.461-2.536-1.313-.693-2.86-.203-3.868.487l-2.342 1.604-22.008.002-2.343-1.601c-1.606-1.1-3.422-1.103-4.517-.008"/><path id="D" d="M129.286 48.995l8.417-.001.005 25.552-8.417.001-.005-25.552zm-2.052-2.052v2.052l.005 25.553.001 2.053h2.051l8.417-.001 2.053-.001v-2.053l-.005-25.553V46.94h-2.053l-8.417.003h-2.052z"/><path id="E" d="M134.822 153.238c-.397.399-.985.586-1.573.502-.567-.084-1.043-.407-1.305-.889l-6.662-12.316-.012-63.429 16.49-.003.012 63.43-6.66 12.317c-.078.143-.174.275-.29.388z"/><path id="F" d="M139.669 51.884a2.28 2.28 0 0 1-1.623.674l-9.102.002a2.3 2.3 0 0 1-2.295-2.296l-.001-5.569a2.28 2.28 0 0 1 .673-1.622 2.27 2.27 0 0 1 1.621-.673l9.103-.002c.61 0 1.188.237 1.622.672a2.29 2.29 0 0 1 .675 1.622l.001 5.571c0 .611-.239 1.186-.674 1.621"/><path id="G" d="M127.817 43.568c.29-.288.688-.468 1.125-.468l9.104-.002a1.6 1.6 0 0 1 1.592 1.593l.002 5.571a1.59 1.59 0 0 1-.469 1.125c-.287.287-.687.467-1.125.468l-9.102.001a1.6 1.6 0 0 1-1.594-1.593v-5.57c0-.438.18-.836.467-1.125m-.993-.992c-.566.565-.879 1.318-.879 2.118l.001 5.57c0 .8.313 1.551.88 2.118s1.32.879 2.118.879l9.102-.002c.8 0 1.553-.312 2.119-.879a2.98 2.98 0 0 0 .879-2.118v-5.571a2.98 2.98 0 0 0-.88-2.119c-.567-.565-1.32-.878-2.119-.878l-9.103.001c-.798.001-1.55.314-2.118.881"/><path id="H" d="M149.766 80.072a2.03 2.03 0 0 1-1.443.6l-29.643.004a2.02 2.02 0 0 1-2.042-2.041l-.001-6.669c0-.565.227-.912.417-1.103.711-.711 1.938-.416 2.777.156l2.435 1.665a.64.64 0 0 0 .36.112l21.748-.005c.129 0 .253-.037.358-.111l2.435-1.665c.644-.439 1.672-.809 2.452-.396.277.146.741.515.741 1.341l.001 6.668c.001.546-.211 1.059-.595 1.444"/><path id="I" d="M138.092 69.475v-.995s-1.819-.567-4.593-.566-4.563.568-4.563.568l.001.994s2.526-.569 4.563-.569 4.592.568 4.592.568"/><path id="J" d="M138.091 63.556v-.994s-1.819-.567-4.594-.566-4.563.568-4.563.568l-.001.993s2.529-.568 4.564-.568 4.594.567 4.594.567"/><path id="K" d="M138.09 58.179v-.994s-1.819-.566-4.593-.566-4.564.569-4.564.569l.001.993s2.528-.567 4.563-.568 4.593.566 4.593.566"/><path id="L" d="M132.811 152.884l-6.546-12.097-.01-54.457 14.524-.002.009 54.455-6.542 12.101c-.282.523-1.153.522-1.435 0"/><path id="M" d="M133.528 153.275h0c-.288 0-.575-.131-.717-.392l-6.547-12.097-.01-54.457 7.263-.001c.001.001.299 66.947.011 66.947"/><path id="N" d="M147.472 72.159c0-.178-.035-.32-.094-.437l-2.249 1.538c-.222.152-.484.234-.755.234l-1.491.001c-.209.128-.45.198-.696.198l-21.749.004a1.34 1.34 0 0 1-.756-.234l-2.335-1.596-.008.098.001 6.669a1.34 1.34 0 0 0 1.341 1.34l28.147-.007a1.33 1.33 0 0 0 .645-1.14l-.001-6.668z"/><path id="O" d="M128.189 43.3c-.496.271-.84.792-.839 1.395l.001 5.57c0 .876.718 1.592 1.593 1.591h7.668c.498-.271.84-.791.84-1.394l-.001-5.571a1.6 1.6 0 0 0-1.594-1.592l-7.668.001z"/><path id="P" d="M128.694 44.114l4.706-.001c.424 0 .771.347.771.771s-.348.772-.771.772l-4.705.001c-.426 0-.772-.347-.772-.773s.347-.77.771-.77"/><path id="Q" d="M50.55 71.359c.385-.384 1.223-.212 1.885.241l2.435 1.665a1.34 1.34 0 0 0 .756.234l21.749-.005a1.34 1.34 0 0 0 .756-.234l2.435-1.665c.888-.608 2.095-.712 2.095.365l.002 6.667c0 .37-.15.706-.394.947a1.33 1.33 0 0 1-.946.393l-29.643.008a1.34 1.34 0 0 1-1.34-1.34l-.001-6.669c0-.277.079-.473.211-.607m-.993-.993c-.284.284-.622.793-.622 1.6l.001 6.669c0 1.513 1.23 2.744 2.745 2.743l29.641-.005c.733 0 1.423-.285 1.94-.803s.804-1.208.804-1.942l-.002-6.667c0-.874-.407-1.589-1.116-1.965-1.057-.556-2.333-.138-3.177.439l-2.418 1.653-21.708.004-2.417-1.652c-1.311-.896-2.82-.926-3.671-.074"/></defs></svg>