<svg width="346" height="400" viewBox="0 0 346 400" fill="none" xmlns="http://www.w3.org/2000/svg">
<path d="M19.9636 111.54V288.46L173.177 376.921L326.036 288.46V111.54L173.177 23.0793L19.9636 111.54Z" fill="url(#paint0_radial_60_101)"/>
<path d="M173.2 33.5L317 116.7V283.3L173.2 366.5L29 283.3V116.7L173.2 33.5ZM173.2 8L4 104V300L173.2 400L342 296V104L173.2 8Z" fill="url(#paint1_linear_60_101)"/>
<path d="M173.2 28.9L321 114.4V285.6L173.2 371L25 285.6V114.4L173.2 29M173.2 4.1L4 104V296L173.2 396L342 296V104L173.2 4V4.1Z" fill="url(#paint2_linear_60_101)"/>
<path d="M173.2 15L333 107.5V292.5L173.2 385L13 292.5V107.5L173.2 15ZM173.2 4L4 104V296L173.2 396L342 296V104L173.2 4Z" fill="#1D5728"/>
<path d="M173.2 12.7L335 106.3V293.7L173.2 387.3L11 293.6V106.4L173.2 12.7ZM173.2 0L0 100V300L173.2 400L346 300V100L173.2 0Z" fill="#E0B568"/>
<path d="M71.9 143.3C71.9 143.3 66.9 139.8 63.6 139C60.2 138.3 53.6 137.4 52.8 137.8C52 138.2 64 148.5 66 153.6C69 158.6 70.7 166.1 72.4 167.9C74.1 169.7 74.3 169.6 76.5 169.5C78.8 169.3 80.1 166.9 80.1 166.9V158.6C80.1 158.6 79.4 153.3 77.8 150.3C76.2 147.3 71.8 143.3 71.8 143.3H71.9ZM100.7 141.6C100.2 141.3 95.5 142 93.1 142.6C90.7 143.2 87.3 146.2 87.3 146.2C87.3 146.2 84.3 149.6 83.2 152C82.1 154.4 81.5 158.9 81.5 158.9V165.8C81.5 165.8 82.5 167.8 84.1 167.9C85.6 168.1 85.8 168.1 87 166.6C88.2 165.1 89.3 159 91.4 154.7C92.9 150.5 101.2 142 100.7 141.7V141.6ZM97.6 159C97.6 159 95.5 159.2 94.6 160L92.1 162.2L91.1 164.4C91.1 164.4 91.1 166.6 91.7 167C92.3 167.4 93.3 167.1 94.1 166.8C94.9 166.5 96.1 164.3 97.8 163.1C99.2 161.8 104.9 160.9 104.8 160.6C104.6 160.4 101.8 159.1 100.8 158.8C99.6 158.6 97.6 159 97.6 159ZM65.1 161C64.1 159.7 61.4 158 61.4 158C61.4 158 58.6 156.7 56.7 156.6C54.8 156.5 51.2 156.6 50.9 156.8C50.5 157.1 57.6 161.3 59.1 163.7C61.1 166 62.5 169.5 63.6 170.3C64.6 171.1 64.7 171 65.9 170.7C67.1 170.5 67.6 169.2 67.6 169.2L67 165C67 165 66.2 162.4 65.1 161Z" fill="#177D35"/>
<path d="M268.3 133C268.3 133 263.4 129.4 260.1 128.6C256.8 127.8 250 127 249.3 127.4C248.6 127.8 260.4 138.1 262.5 143.2C265.5 148.2 267.1 155.7 268.9 157.5C270.7 159.3 270.8 159.2 273 159C275.2 158.9 276.6 156.4 276.6 156.4V148.2C276.6 148.2 275.9 142.8 274.3 139.9C272.7 137 268.3 132.9 268.3 132.9V133ZM297.2 131.2C296.7 130.8 292 131.6 289.6 132.2C287.3 132.8 283.8 135.8 283.8 135.8C283.8 135.8 280.8 139.1 279.6 141.6C278.4 144.1 278 148.5 278 148.5V155.3C278 155.3 279 157.3 280.5 157.5C282 157.7 282.2 157.7 283.5 156.2C284.7 154.7 285.8 148.5 287.9 144.3C289.4 140.1 297.7 131.6 297.2 131.2ZM297.2 148.4C296.1 148.2 294.1 148.6 294.1 148.6C294.1 148.6 292 148.8 291.1 149.6C290.1 150.2 288.5 151.7 288.5 151.7L287.5 154C287.5 154 287.5 156.2 288.1 156.6C288.7 157 289.7 156.7 290.5 156.4C291.3 156 292.5 153.9 294.3 152.7C295.7 151.4 301.3 150.4 301.3 150.2C301.1 150 298.3 148.6 297.3 148.4H297.2ZM261.6 150.6C260.6 149.3 257.9 147.6 257.9 147.6C257.9 147.6 255 146.3 253.2 146.2C251.3 146 247.7 146.2 247.3 146.4C247 146.7 254.1 150.9 255.6 153.2C257.6 155.5 259 159.1 260 159.9C261 160.6 261.2 160.6 262.4 160.3C263.6 160 264.1 158.7 264.1 158.7L263.5 154.6C263.5 154.6 262.7 152 261.6 150.6Z" fill="#177D35"/>
<path d="M73.5 145.4L69.2 141.8L63.4 138.7L59.6 137.9H55.7L53.1 138.1L57.5 140.9L60.2 142.6C59.8 142.6 65 147.1 67.8 149.6L70.5 153.1L72.9 154.7C72.9 154.7 75.2 156.4 76 155.8C76.9 155.2 76.8 154.1 76.8 154.1C76.8 154.1 77.3 153 76.4 150.3C75.4 147.6 73.4 145.3 73.4 145.3L73.5 145.4ZM97.9 143.4L100.2 142.1L96 142.3C96 142.3 92 143.4 91.7 143.6C91.3 143.7 87.9 146.2 87.9 146.2C87.9 146.2 85.4 148.9 84.9 149.6C84.5 150.3 83.3 151.6 83.3 151.9L83 153C83 153 82.5 154.1 84.1 154.2C85.7 154.2 87.5 151.8 87.5 151.8L90 149L92.6 147L95.6 145L97.8 143.4H97.9ZM62.3 159L59.6 157.6C59.2 157.4 56.3 157 55.6 156.9C54.9 156.8 52.2 157 51.8 157.1C51.5 157.2 54.1 157.8 54.1 157.8L55.2 158.4L59.2 160.4L62.2 162.7C62.2 162.7 63.9 163.4 64.7 163.2C65.4 163 64.9 161 64.7 160.7L62.3 158.9V159ZM99.4 158.5L96.3 159.2C96.3 159.2 95.1 159.4 94.7 160.6C94.3 161.8 94.7 161.8 94.7 161.8L95.1 161.6L97.1 159.9L99.6 159.5H102.4L104 159.8L103 159.1L99.4 158.5ZM269.6 134.9L265.3 131.3L259.5 128.2L255.8 127.5H251.8L249.3 127.7L253.6 130.4L256.3 132.2C255.9 132.2 261.1 136.7 263.9 139.2L266.6 142.6L269.1 144.3C269.1 144.3 271.3 145.9 272.1 145.3C273.1 144.7 273 143.6 273 143.6C273 143.6 273.5 142.5 272.5 139.8C271.5 137.2 269.5 134.8 269.5 134.8L269.6 134.9ZM294 133L296.3 131.6L292.1 131.8C292.1 131.8 288.1 132.9 287.8 133.1L284.1 135.7C284.1 135.7 281.5 138.5 281.1 139.2C280.7 139.8 279.5 141.1 279.5 141.4L279.1 142.6C279.1 142.6 278.7 143.7 280.2 143.8C281.7 143.9 283.6 141.4 283.6 141.4L286.3 138.6L288.8 136.5L291.8 134.5L294 133ZM258.4 148.5C258.1 148.2 256.1 147.4 255.8 147.1C255.4 146.9 252.4 146.5 251.8 146.4L247.9 146.7L250.2 147.4L251.3 147.9L255.3 149.9L258.3 152.2C258.3 152.2 260 152.9 260.8 152.7C261.6 152.6 261.1 150.5 260.8 150.3L258.4 148.5ZM299.2 148.7L295.6 148L292.4 148.7C292.4 148.7 291.3 148.9 290.8 150.1C290.4 151.4 290.8 151.4 290.8 151.4L291.3 151.1L293.3 149.5L295.7 149H298.5L300.1 149.4L299.1 148.7H299.2Z" fill="#64B32E"/>
<path d="M168.3 155.2C166 155.2 164.1 153.2 164.1 150.9V136.7L130.5 137.1C129.3 137.1 126.7 137.1 125.9 135.1C125.1 133.1 126.9 131.3 127.5 130.6H127.6L127.7 130.4C127.9 130.4 139.8 121.5 146.7 115.5L137.7 115.6C136.8 115.6 134.5 115.6 133.7 113.8C132.7 111.9 134.3 110 134.9 109.3L135.1 109.1L135.3 109C135.4 108.9 150.3 98.5999 155.5 92.7999C156.2 92.0999 157 90.9999 157.8 89.6999H149.8C147.6 89.6999 146.8 88.8999 146.4 88.0999C146.1 87.2999 145.9 86.0999 147.4 84.3999L147.5 84.0999L147.8 83.9999C147.8 83.9999 157.3 77.6999 160.6 74.0999C163.3 71.1999 168.1 61.2999 169.6 57.6999L169.8 57.4999L170 57.2999C170.7 56.2999 172.1 55.9999 172.7 55.8999H172.9C173.4 55.8999 175 56.2999 175.9 57.2999L176 57.4999L176.1 57.6999C178.565 63.4632 181.614 68.9586 185.2 74.0999C188.6 77.6999 198 83.8999 198.1 83.9999L198.3 84.0999L198.5 84.3999C199.9 85.9999 199.8 87.3999 199.5 88.0999C199.1 88.8999 198.2 89.7999 196.2 89.7999L189.8 89.6999C190.7 90.9999 191.5 92.0999 192.2 92.7999C197.4 98.5999 212.2 108.8 212.4 109L212.6 109.1L212.8 109.3C213.3 110 214.8 111.9 214 113.8C213.2 115.6 210.8 115.6 210 115.6H201C207.8 121.6 219.8 130.3 219.9 130.4L220 130.5L220.1 130.6C220.8 131.3 222.6 133.1 221.8 135.1C221 137.1 218.3 137.1 217.2 137.1L183.2 136.7V151C183.2 153.4 181.3 155.3 179 155.3H168.3V155.2Z" fill="#468332"/>
<path d="M173 57.8999C173 57.8999 174 58.0999 174.3 58.5999C174.3 58.5999 180.3 71.5999 183.8 75.4999C187.3 79.3999 197 85.5999 197 85.5999C198.1 86.9999 197.8 87.7999 196.1 87.7999L186.2 87.5999C187.487 89.9379 188.994 92.1479 190.7 94.1999C196.2 100.2 211.2 110.6 211.2 110.6C213 112.7 212.5 113.6 209.9 113.6L195.9 113.5L197.9 115.5C204.6 121.6 218.7 132 218.7 132C220.8 134.2 220.3 135 217.2 135L181.2 134.7V150.9C181.2 152.2 180.2 153.2 179 153.2H168.3C167.1 153.2 166.1 152.2 166.1 150.9V134.7L130.5 135.1C127.3 135.1 126.8 134.1 128.9 132.1C128.9 132.1 143.1 121.6 149.7 115.6L151.7 113.5L137.7 113.6C135.1 113.6 134.7 112.7 136.4 110.6C136.4 110.6 151.4 100.2 157 94.1999C158.706 92.1479 160.213 89.9379 161.5 87.5999L149.7 87.7999C148 87.7999 147.7 86.9999 148.9 85.5999C148.9 85.5999 158.5 79.2999 162.1 75.4999C165.7 71.6999 171.5 58.4999 171.5 58.4999C171.9 58.0999 172.9 57.8999 172.9 57.8999M172.9 53.8999H172.5C171.5 53.9999 169.5 54.5999 168.5 55.8999L168.1 56.3999L167.9 56.8999C165.519 62.4872 162.57 67.8152 159.1 72.7999C155.237 76.3051 151.09 79.4828 146.7 82.2999L146.2 82.5999L145.8 83.0999C143.6 85.6999 144.1 87.8999 144.6 88.8999C145.1 89.8999 146.4 91.7999 149.6 91.7999H153.7C148.4 97.3999 134.3 107.2 134.2 107.3L133.7 107.6L133.3 108.1C131.3 110.4 130.9 112.6 131.8 114.6C132.8 116.6 134.8 117.6 137.7 117.6H141.1C136.34 121.427 131.505 125.161 126.6 128.8L126.3 129L126.1 129.2C123.8 131.5 123.1 133.7 124.1 135.8C125.4 139.1 129.2 139.1 130.5 139.1L162.1 138.7V151C162.1 154.5 164.9 157.3 168.3 157.3H179C182.4 157.3 185.2 154.5 185.2 151V138.8L217.2 139.2C218.4 139.2 222.2 139.2 223.6 135.9C224.6 133.9 223.8 131.6 221.6 129.3L221.3 129.1L221.1 128.9C221 128.9 213.1 123.1 206.5 117.7H209.9C212.9 117.7 214.9 116.7 215.9 114.7C216.8 112.7 216.3 110.5 214.3 108.2L214 107.7L213.5 107.4C213.3 107.4 199.2 97.4999 193.9 91.8999H196.1C199.4 91.8999 200.7 90.0999 201.2 88.9999C201.7 87.9999 202.2 85.7999 200 83.1999L199.7 82.6999L199.2 82.3999C194.775 79.5881 190.594 76.4103 186.7 72.8999C184.4 70.3999 180.2 61.8999 178 56.9999L177.7 56.4999L177.4 56.0999C176.224 54.8494 174.614 54.0977 172.9 53.9999V53.8999Z" fill="#1D5728"/>
<path d="M129 132H166L198.8 132.3C202.9 132.5 206.2 130.3 197.5 124.1C197.5 124.1 187.3 115.9 181.3 110.8L179.3 109.1L192.3 109.2C194.6 109.2 195 108.5 193.4 106.7L176.4 89.7001C175.025 88.2388 173.818 86.6289 172.8 84.9001H183C183.8 84.9001 175.7 73.9001 174.6 71.6001C172.7 67.6001 171.4 58.6001 171.4 58.6001C170.9 58.6001 165.2 71.6001 161.7 75.5001C158.2 79.4001 148.5 85.6001 148.5 85.6001C147.4 87.0001 147.6 87.8001 149.3 87.8001L161.1 87.6001C159.813 89.938 158.306 92.148 156.6 94.2001C151.1 100.2 136.1 110.6 136.1 110.6C134.3 112.7 134.7 113.6 137.4 113.6L151.4 113.5L149.3 115.5C142.7 121.6 128.6 132 128.6 132C126.5 134.2 127 135 130.1 135H130.3C127.3 135 126.7 134.2 128.8 132H129Z" fill="#54AE32"/>
<defs>
<radialGradient id="paint0_radial_60_101" cx="0" cy="0" r="1" gradientUnits="userSpaceOnUse" gradientTransform="translate(173 200) scale(165.421 165.421)">
<stop stop-color="#209E34"/>
<stop offset="0.5" stop-color="#179838"/>
<stop offset="1" stop-color="#078D40"/>
</radialGradient>
<linearGradient id="paint1_linear_60_101" x1="173" y1="400" x2="173" y2="7.7851e-06" gradientUnits="userSpaceOnUse">
<stop stop-color="#A1E65C"/>
<stop offset="0.5" stop-color="#209E34"/>
<stop offset="0.7" stop-color="#1D5728"/>
</linearGradient>
<linearGradient id="paint2_linear_60_101" x1="173" y1="1.67258e-07" x2="173" y2="400" gradientUnits="userSpaceOnUse">
<stop stop-color="#A1E65C"/>
<stop offset="0.5" stop-color="#209E34"/>
<stop offset="0.7" stop-color="#1D5728"/>
<stop offset="0.8" stop-color="#1D602A"/>
<stop offset="0.9" stop-color="#1E782E"/>
<stop offset="1" stop-color="#209E34"/>
</linearGradient>
</defs>
</svg>
