<svg width="347" height="401" viewBox="0 0 347 401" fill="none" xmlns="http://www.w3.org/2000/svg">
<g clip-path="url(#clip0_64_161)">
<path d="M4.39014 104.695V296.695L173.39 396.695L342.39 296.695V104.695L173.39 4.69507L4.39014 104.695Z" fill="url(#paint0_radial_64_161)"/>
<path d="M173.39 34.1951L317.423 117.395V283.995L173.39 367.195L29.3566 283.995V117.395L173.39 34.1951ZM173.39 4.69507L4.39014 104.695V296.695L173.39 396.695L342.39 296.695V104.695L173.39 4.69507Z" fill="url(#paint1_linear_64_161)"/>
<path d="M173.39 29.5951L321.419 115.095V286.295L173.39 371.695L25.3612 286.295V115.095L173.39 29.6951M173.39 4.69507L4.39014 104.695V296.695L173.39 396.695L342.39 296.695V104.695L173.39 4.69507Z" fill="url(#paint2_linear_64_161)"/>
<path d="M173.39 15.6951L333.405 108.195V293.195L173.39 385.695L13.3751 293.195V108.195L173.39 15.6951ZM173.39 4.69507L4.39014 104.695V296.695L173.39 396.695L342.39 296.695V104.695L173.39 4.69507Z" fill="#BE1622"/>
<path d="M173.39 13.3951L335.403 106.995V294.295L173.39 387.995L11.3774 294.295V107.095L173.39 13.3951ZM173.39 0.695068L0.390137 100.695V300.695L173.39 400.695L346.39 300.695V100.695L173.39 0.695068Z" fill="#E0B568"/>
<path d="M80.6974 136.595C79.0992 136.595 77.6009 136.995 76.3024 137.595C75.4376 135.406 73.9172 133.539 71.9499 132.25C69.9826 130.96 67.6649 130.313 65.3151 130.395C59.0224 130.395 53.9283 134.995 53.9283 140.695L54.0282 141.995H53.7285C48.4347 141.995 44.1396 145.295 44.1396 149.395C44.1396 153.495 48.4347 155.395 53.8284 155.395C58.4231 155.395 60.9202 153.995 63.1177 150.895C63.8169 150.995 66.7135 149.095 67.4127 148.995C69.8099 148.795 71.8076 148.395 74.4046 146.995C76.3024 147.795 79.1991 147.295 81.7961 147.295C86.191 147.295 88.6881 146.495 88.6881 142.995C88.6881 139.495 85.0923 136.595 80.6974 136.595ZM265.284 139.395C266.359 136.482 268.31 133.975 270.868 132.22C273.427 130.465 276.466 129.547 279.567 129.595C287.858 129.595 294.55 135.795 294.55 143.595L294.45 145.195H294.85C301.841 145.195 307.435 149.695 307.435 155.195C307.435 160.695 301.742 163.195 294.75 163.195C288.657 163.195 285.361 161.495 282.464 157.195C281.465 157.395 277.869 154.795 276.87 154.695C273.874 154.495 271.177 153.895 267.581 151.995C261.888 150.395 263.985 138.695 265.184 139.395H265.284Z" fill="#9F5B57"/>
<path d="M53.129 142.295C49.0338 142.295 44.9385 144.895 44.9385 147.495C44.9385 150.095 48.6342 153.895 52.3299 152.195C58.6227 149.195 59.5216 148.895 59.5216 146.295C59.5216 143.695 57.1244 142.295 53.129 142.295Z" fill="#D88E8C"/>
<path d="M64.9157 130.695C59.422 130.695 54.7275 134.095 54.7275 137.395C54.7275 140.695 59.422 144.695 64.616 143.195C68.9111 141.995 70.709 140.195 74.4047 137.395C76.9018 135.395 70.3094 130.795 64.9157 130.795V130.695ZM81.2967 136.695C78.9994 136.695 76.5023 136.895 76.3025 138.795C76.1027 141.495 78.3002 140.695 81.2967 140.695C84.2933 140.695 87.2898 141.995 87.2898 140.095C87.2898 138.295 83.694 136.795 81.2967 136.695ZM294.65 143.695C299.744 143.195 305.238 146.395 305.537 149.995C305.837 153.595 301.642 159.295 296.747 157.395C288.457 153.995 287.258 153.595 286.959 149.995C286.659 146.395 289.456 144.195 294.65 143.695Z" fill="#D88E8C"/>
<path d="M278.269 129.095C285.161 128.495 291.454 132.695 291.853 137.095C292.253 141.595 286.959 147.795 280.167 146.295C274.673 144.995 272.176 142.895 267.182 139.295C263.686 136.895 271.477 129.695 278.269 129.095Z" fill="#D88E8C"/>
<path d="M139.829 98.6951C138.345 98.6951 136.923 98.1051 135.874 97.0549C134.825 96.0047 134.235 94.5803 134.235 93.0951V81.2951C134.235 78.2951 136.732 75.6951 139.829 75.6951H171.193C174.289 75.6951 176.786 78.1951 176.786 81.2951V93.0951C176.786 96.0951 174.289 98.6951 171.193 98.6951H139.829Z" fill="#FCD7C3"/>
<path d="M171.193 77.1951C173.49 77.1951 175.288 79.0951 175.288 81.2951V93.0951C175.288 95.2951 173.49 97.1951 171.193 97.1951H139.829C138.743 97.1951 137.701 96.7631 136.933 95.9942C136.165 95.2253 135.734 94.1825 135.734 93.0951V81.2951C135.734 79.0951 137.531 77.1951 139.829 77.1951H171.193ZM171.193 74.1951H139.829C135.833 74.1951 132.737 77.3951 132.737 81.2951V93.0951C132.737 96.9951 135.933 100.195 139.829 100.195H171.193C175.188 100.195 178.284 96.9951 178.284 93.0951V81.2951C178.284 77.2951 175.088 74.1951 171.193 74.1951Z" fill="#945332"/>
<path d="M183.378 98.6951C182.636 98.7084 181.897 98.5733 181.207 98.2979C180.517 98.0224 179.889 97.612 179.358 97.0907C178.828 96.5693 178.407 95.9475 178.12 95.2615C177.833 94.5755 177.685 93.839 177.685 93.0951V81.2951C177.685 78.2951 180.182 75.6951 183.279 75.6951H214.642C217.739 75.6951 220.336 78.1951 220.336 81.2951V93.0951C220.336 96.0951 217.739 98.6951 214.642 98.6951H183.378Z" fill="#FCD7C3"/>
<path d="M214.642 77.1951C216.94 77.1951 218.837 79.0951 218.837 81.2951V93.0951C218.837 95.2951 216.84 97.1951 214.642 97.1951H183.378C182.292 97.1951 181.251 96.7631 180.483 95.9942C179.715 95.2253 179.283 94.1825 179.283 93.0951V81.2951C179.283 79.0951 181.181 77.1951 183.378 77.1951H214.742M214.742 74.1951H183.378C179.383 74.1951 176.287 77.3951 176.287 81.2951V93.0951C176.287 96.9951 179.483 100.195 183.378 100.195H214.742C218.738 100.195 221.934 96.9951 221.934 93.0951V81.2951C221.934 77.2951 218.738 74.1951 214.742 74.1951Z" fill="#945332"/>
<path d="M139.829 147.195C139.086 147.195 138.35 147.047 137.665 146.759C136.98 146.472 136.359 146.05 135.838 145.52C135.317 144.989 134.907 144.36 134.632 143.669C134.357 142.978 134.222 142.239 134.235 141.495V129.795C134.235 126.695 136.732 124.195 139.829 124.195H171.193C174.289 124.195 176.786 126.695 176.786 129.795V141.495C176.786 144.595 174.289 147.195 171.193 147.195H139.829Z" fill="#FCD7C3"/>
<path d="M171.193 125.695C173.49 125.695 175.288 127.495 175.288 129.695V141.495C175.288 143.795 173.49 145.695 171.193 145.695H139.829C139.282 145.695 138.742 145.586 138.238 145.374C137.735 145.161 137.279 144.85 136.897 144.459C136.515 144.068 136.216 143.604 136.016 143.095C135.816 142.586 135.72 142.042 135.734 141.495V129.795C135.734 127.495 137.531 125.695 139.829 125.695H171.193ZM171.193 122.695H139.829C135.833 122.695 132.737 125.895 132.737 129.695V141.495C132.737 145.495 135.933 148.695 139.829 148.695H171.193C175.188 148.695 178.284 145.495 178.284 141.495V129.795C178.284 125.795 175.088 122.695 171.193 122.695Z" fill="#945332"/>
<path d="M183.378 147.195C182.627 147.209 181.881 147.07 181.184 146.789C180.487 146.507 179.854 146.088 179.322 145.556C178.791 145.024 178.372 144.39 178.091 143.692C177.809 142.995 177.671 142.247 177.685 141.495V129.795C177.685 126.695 180.182 124.195 183.279 124.195H214.642C217.739 124.195 220.336 126.695 220.336 129.795V141.495C220.336 144.595 217.739 147.195 214.642 147.195H183.378Z" fill="#FCD7C3"/>
<path d="M214.642 125.695C216.94 125.695 218.837 127.495 218.837 129.695V141.495C218.837 143.795 216.84 145.695 214.642 145.695H183.378C182.832 145.695 182.291 145.586 181.788 145.374C181.284 145.161 180.828 144.85 180.447 144.459C180.065 144.068 179.766 143.604 179.566 143.095C179.366 142.586 179.27 142.042 179.283 141.495V129.795C179.283 127.495 181.181 125.695 183.378 125.695H214.742M214.742 122.695H183.378C179.383 122.695 176.287 125.895 176.287 129.695V141.495C176.287 145.495 179.483 148.695 183.378 148.695H214.742C218.738 148.695 221.934 145.495 221.934 141.495V129.795C221.934 125.795 218.738 122.695 214.742 122.695Z" fill="#945332"/>
<path d="M115.457 123.195C113.973 123.195 112.551 122.605 111.502 121.555C110.453 120.505 109.863 119.08 109.863 117.595V105.895C109.863 102.795 112.46 100.195 115.557 100.195H146.921C149.917 100.195 152.514 102.795 152.514 105.895V117.595C152.514 120.695 150.017 123.195 146.921 123.195H115.457Z" fill="#FCD7C3"/>
<path d="M146.921 101.695C149.118 101.695 151.016 103.595 151.016 105.895V117.595C151.016 119.895 149.118 121.695 146.921 121.695H115.457C114.378 121.696 113.34 121.281 112.559 120.536C111.778 119.791 111.313 118.774 111.262 117.695V105.895C111.262 103.595 113.16 101.695 115.457 101.695H146.821M146.821 98.6951H115.457C111.462 98.6951 108.265 101.895 108.265 105.895V117.595C108.265 121.595 111.462 124.695 115.457 124.695H146.821C150.716 124.695 153.912 121.495 153.912 117.695V105.895C153.912 101.895 150.716 98.6951 146.821 98.6951Z" fill="#945332"/>
<path d="M159.406 123.195C157.923 123.195 156.5 122.605 155.451 121.555C154.402 120.505 153.813 119.08 153.813 117.595V105.895C153.813 102.795 156.31 100.195 159.406 100.195H190.77C193.866 100.195 196.363 102.795 196.363 105.895V117.595C196.363 120.695 193.866 123.195 190.77 123.195H159.406Z" fill="#FCD7C3"/>
<path d="M190.77 101.695C193.067 101.695 194.865 103.595 194.865 105.895V117.595C194.865 119.895 193.067 121.695 190.77 121.695H159.406C158.337 121.695 157.31 121.277 156.545 120.53C155.78 119.782 155.337 118.765 155.311 117.695V105.895C155.311 103.595 157.109 101.695 159.406 101.695H190.77ZM190.77 98.6951H159.406C155.411 98.6951 152.314 101.895 152.314 105.895V117.595C152.314 121.595 155.511 124.695 159.406 124.695H190.77C194.765 124.695 197.862 121.495 197.862 117.695V105.895C197.862 101.895 194.665 98.6951 190.77 98.6951Z" fill="#945332"/>
<path d="M203.056 123.195C201.572 123.195 200.149 122.605 199.1 121.555C198.051 120.505 197.462 119.08 197.462 117.595V105.895C197.462 102.795 199.959 100.195 203.056 100.195H234.419C237.516 100.195 240.113 102.795 240.113 105.895V117.595C240.113 120.695 237.516 123.195 234.419 123.195H203.056Z" fill="#FCD7C3"/>
<path d="M234.419 101.695C236.717 101.695 238.615 103.595 238.615 105.895V117.595C238.615 119.895 236.717 121.695 234.419 121.695H203.056C201.987 121.695 200.96 121.277 200.195 120.53C199.429 119.782 198.986 118.765 198.96 117.695V105.895C198.96 103.595 200.858 101.695 203.056 101.695H234.419ZM234.419 98.6951H203.056C199.16 98.6951 195.964 101.895 195.964 105.895V117.595C195.964 121.595 199.16 124.695 203.056 124.695H234.419C238.415 124.695 241.611 121.495 241.611 117.695V105.895C241.611 101.895 238.415 98.6951 234.419 98.6951Z" fill="#945332"/>
<path d="M140.328 97.195H171.292C173.59 97.195 175.488 95.295 175.488 92.995V81.295C175.488 78.995 172.791 77.295 172.691 77.695C173.889 81.995 174.189 87.695 173.29 95.195C173.29 95.995 140.328 95.295 140.328 95.295H136.333C136.333 96.595 139.03 97.195 140.328 97.195ZM183.878 97.195H214.842C217.139 97.195 218.937 95.295 218.937 92.995V81.295C218.937 78.995 216.34 77.295 216.24 77.695C217.439 81.995 217.739 87.695 216.84 95.195C216.84 95.995 183.878 95.295 183.878 95.295H179.882C179.882 96.595 182.479 97.195 183.878 97.195ZM172.691 126.195C173.889 130.495 174.189 136.195 173.29 143.695C173.29 144.495 140.328 143.795 140.328 143.795H136.333C136.333 145.095 139.03 145.695 140.328 145.695H171.292C173.59 145.695 175.488 143.795 175.488 141.495V129.795C175.488 127.495 172.791 125.795 172.691 126.195ZM216.34 126.195C217.339 130.495 217.739 136.195 216.84 143.695C216.84 144.495 183.878 143.795 183.878 143.795H179.882C179.882 145.095 182.479 145.695 183.878 145.695H214.842C217.139 145.695 218.937 143.795 218.937 141.495V129.795C218.937 127.495 216.34 125.795 216.24 126.195H216.34ZM151.016 117.695V105.995C151.016 103.695 148.419 101.995 148.319 102.295C149.518 106.695 149.817 112.295 148.918 119.895C148.918 120.695 115.956 119.995 115.956 119.995H111.961C111.961 121.295 114.558 121.895 115.956 121.795H146.921C149.218 121.795 151.016 119.995 151.016 117.695ZM159.806 119.695H155.81C155.81 120.995 158.407 121.695 159.706 121.595H190.67C192.967 121.595 194.865 119.695 194.865 117.495V105.695C194.865 103.395 192.168 101.695 192.068 102.095C193.267 106.395 193.567 112.095 192.668 119.595C192.668 120.395 159.706 119.795 159.706 119.795L159.806 119.695ZM235.718 102.095C236.917 106.395 237.216 112.095 236.317 119.595C236.317 120.395 203.355 119.795 203.355 119.795H199.36C199.36 120.995 202.057 121.595 203.355 121.595H234.32C236.617 121.595 238.515 119.695 238.515 117.495V105.695C238.515 103.395 235.818 101.695 235.718 102.095Z" fill="#D3977D"/>
</g>
<defs>
<radialGradient id="paint0_radial_64_161" cx="0" cy="0" r="1" gradientUnits="userSpaceOnUse" gradientTransform="translate(173.39 200.695) scale(186.884 187.1)">
<stop stop-color="#EB7930"/>
<stop offset="0.3" stop-color="#E7702D"/>
<stop offset="0.8" stop-color="#DD5824"/>
<stop offset="1" stop-color="#D94F21"/>
</radialGradient>
<linearGradient id="paint1_linear_64_161" x1="173.39" y1="400.695" x2="173.39" y2="0.695072" gradientUnits="userSpaceOnUse">
<stop stop-color="#FFC44D"/>
<stop offset="0.5" stop-color="#EB7930"/>
<stop offset="0.7" stop-color="#BE1622"/>
</linearGradient>
<linearGradient id="paint2_linear_64_161" x1="173.39" y1="0.695069" x2="173.39" y2="400.695" gradientUnits="userSpaceOnUse">
<stop stop-color="#FFC44D"/>
<stop offset="0.5" stop-color="#EB7930"/>
<stop offset="0.7" stop-color="#BE1622"/>
<stop offset="1" stop-color="#EB7930"/>
</linearGradient>
<clipPath id="clip0_64_161">
<rect width="346" height="400" fill="white" transform="translate(0.390137 0.695068)"/>
</clipPath>
</defs>
</svg>
