<svg width="346" height="400" viewBox="0 0 346 400" fill="none" xmlns="http://www.w3.org/2000/svg">
<g clip-path="url(#clip0_64_315)">
<path d="M3.7998 104V296L173 396L342.2 296V104L173 4L3.7998 104Z" fill="url(#paint0_radial_64_315)"/>
<path d="M173 33.5L317.2 116.7V283.3L173 366.5L28.7998 283.3V116.7L173 33.5ZM173 4L3.7998 104V296L173 396L342.2 296V104L173 4Z" fill="url(#paint1_linear_64_315)"/>
<path d="M173 28.9L321.2 114.4V285.6L173 371L24.7998 285.6V114.4L173 29M173 4L3.7998 104V296L173 396L342.2 296V104L173 4Z" fill="url(#paint2_linear_64_315)"/>
<path d="M173 15L333.2 107.5V292.5L173 385L12.7998 292.5V107.5L173 15ZM173 4L3.7998 104V296L173 396L342.2 296V104L173 4Z" fill="#4E7200"/>
<path d="M173 12.7L335.2 106.3V293.6L173 387.3L10.7998 293.6V106.4L173 12.7ZM173 0L-0.200195 100V300L173 400L346.2 300V100L173 0Z" fill="#E0B568"/>
<path d="M69.1998 142C69.1998 142 64.1998 138.4 60.8998 137.6C57.4998 136.9 50.8998 136 50.0998 136.4C49.2998 136.8 61.1998 147.1 63.2998 152.2C66.2998 157.2 67.9998 164.7 69.6998 166.5C71.3998 168.3 71.5998 168.2 73.7998 168.1C76.0998 167.9 77.3998 165.5 77.3998 165.5V157.2C77.3998 157.2 76.7998 151.9 75.0998 148.9C73.3998 145.9 69.0998 141.9 69.0998 141.9L69.1998 142ZM97.9998 140.2C97.4998 139.9 92.7998 140.6 90.4998 141.2C88.0998 141.9 84.5998 144.8 84.5998 144.8C84.5998 144.8 81.5998 148.2 80.4998 150.6C79.3998 153 78.7998 157.5 78.7998 157.5V164.4C78.7998 164.4 79.7998 166.4 81.3998 166.5C82.9998 166.6 83.0998 166.7 84.2998 165.2C85.4998 163.7 86.5998 157.6 88.7998 153.3C90.1998 149.1 98.4998 140.6 97.9998 140.3V140.2ZM94.9998 157.6C94.9998 157.6 92.7998 157.8 91.7998 158.6C90.8998 159.2 89.3998 160.8 89.3998 160.8L88.3998 163C88.3998 163 88.3998 165.2 88.9998 165.6C89.5998 166 90.5998 165.7 91.3998 165.4C92.1998 165.1 93.3998 162.9 95.0998 161.7C96.4998 160.4 102.2 159.5 102.1 159.2C101.9 159 99.0998 157.7 98.0998 157.4C96.8998 157.2 94.8998 157.6 94.8998 157.6H94.9998ZM62.3998 159.7C61.3998 158.4 58.6998 156.7 58.6998 156.7C58.6998 156.7 55.8998 155.3 53.9998 155.2C52.1998 155.1 48.4998 155.2 48.1998 155.5C47.8998 155.8 54.8998 159.9 56.3998 162.3C58.3998 164.6 59.7998 168.1 60.8998 168.9C61.8998 169.7 61.9998 169.6 63.1998 169.3C64.3998 169.1 64.8998 167.8 64.8998 167.8L64.2998 163.6C64.2998 163.6 63.4998 161 62.3998 159.6V159.7Z" fill="#769113"/>
<path d="M265.6 131.5C265.6 131.5 260.7 128 257.4 127.2C254 126.4 247.3 125.6 246.6 126C245.9 126.4 257.7 136.7 259.8 141.8C262.8 146.8 264.4 154.3 266.2 156.1C267.9 157.9 268.1 157.8 270.3 157.6C272.5 157.5 273.9 155 273.9 155V146.8C273.9 146.8 273.2 141.4 271.6 138.5C270 135.5 265.6 131.5 265.6 131.5ZM294.5 129.8C294 129.5 289.3 130.2 286.9 130.8C284.6 131.5 281.1 134.4 281.1 134.4C281.1 134.4 278.1 137.8 276.9 140.2C275.7 142.6 275.3 147.1 275.3 147.1V153.9C275.3 153.9 276.3 155.9 277.8 156.1C279.3 156.3 279.5 156.3 280.8 154.8C282 153.3 283.1 147.1 285.2 142.9C286.7 138.7 295 130.2 294.5 129.9V129.8ZM294.5 147C293.5 146.8 291.4 147.2 291.4 147.2C291.4 147.2 289.3 147.4 288.4 148.2C287.4 148.8 285.8 150.4 285.8 150.4L284.8 152.6C284.8 152.6 284.8 154.8 285.5 155.2C286.2 155.6 287 155.3 287.8 155C288.6 154.7 289.8 152.5 291.6 151.3C293 150 298.6 149 298.6 148.8C298.4 148.6 295.6 147.3 294.6 147H294.5ZM259 149.3C257.8 147.9 255.2 146.3 255.2 146.3C255.2 146.3 252.3 144.9 250.5 144.8C248.6 144.6 245 144.8 244.6 145C244.3 145.3 251.4 149.5 252.9 151.8C254.9 154.1 256.3 157.8 257.3 158.5C258.3 159.2 258.5 159.2 259.7 158.9C260.8 158.7 261.4 157.3 261.4 157.3L260.8 153.2C260.8 153.2 260 150.6 258.9 149.2L259 149.3Z" fill="#769113"/>
<path d="M71.5998 143.6L67.2998 140L61.4998 136.9L57.7998 136.1H53.8998L51.2998 136.3L55.6998 139.1L58.2998 140.8C57.8998 140.8 63.1998 145.3 65.8998 147.8L68.5998 151.3L71.0998 152.9C71.0998 152.9 73.2998 154.6 74.1998 154C75.0998 153.4 74.9998 152.3 74.9998 152.3C74.9998 152.3 75.4998 151.2 74.4998 148.5C73.5998 145.8 71.5998 143.5 71.5998 143.5V143.6ZM95.9998 141.6L98.3998 140.3L94.1998 140.5L89.7998 141.7L86.0998 144.4L83.0998 147.8C82.6998 148.5 81.4998 149.8 81.4998 150.1L81.0998 151.3C81.0998 151.3 80.6998 152.3 82.2998 152.5C83.8998 152.7 85.5998 150.1 85.5998 150.1L88.2998 147.2L90.8998 145.2L93.8998 143.2L95.9998 141.6ZM60.3998 157.1C60.0998 156.9 58.0998 156.1 57.7998 155.8C57.3998 155.5 54.4998 155.1 53.7998 155.1L49.9998 155.3C49.5998 155.4 52.1998 156 52.1998 156L53.3998 156.6L57.3998 158.6L60.2998 160.9C60.2998 160.9 62.0998 161.6 62.7998 161.4C63.5998 161.2 63.0998 159.2 62.7998 158.9L60.3998 157.1ZM97.5998 156.7L94.3998 157.3C94.3998 157.3 93.2998 157.6 92.8998 158.8C92.3998 160 92.8998 160 92.8998 160L93.2998 159.8L95.2998 158.1L97.7998 157.7H100.5L102.2 158L101.2 157.3L97.5998 156.7ZM267.8 133L263.4 129.5L257.7 126.4L253.9 125.6H250L247.4 125.9L251.8 128.6L254.5 130.3C254.1 130.3 259.3 134.9 262.1 137.4L264.8 140.8L267.2 142.5C267.2 142.5 269.5 144.1 270.3 143.5C271.2 142.9 271.1 141.8 271.1 141.8C271.1 141.8 271.6 140.7 270.7 138C269.7 135.3 267.7 133 267.7 133H267.8ZM292.2 131.1L294.5 129.8L290.3 130C290.3 130 286.3 131.1 286 131.3L282.2 133.9L279.2 137.4C278.8 138 277.6 139.2 277.6 139.6L277.3 140.8C277.3 140.8 276.8 141.9 278.3 142C279.8 142.1 281.8 139.6 281.8 139.6L284.4 136.7L287 134.7L290 132.7L292.2 131.1ZM256.6 146.7L253.9 145.3C253.6 145 250.6 144.7 249.9 144.6C249.2 144.5 246.4 144.8 246.1 144.8C245.8 144.9 248.4 145.6 248.4 145.6L249.5 146.1L253.5 148.1L256.4 150.4C256.4 150.4 258.2 151.1 259 150.9C259.8 150.7 259.2 148.7 259 148.5L256.6 146.7ZM297.4 146.9L293.7 146.2L290.5 146.9C290.5 146.9 289.5 147.1 289 148.3C288.6 149.5 289 149.5 289 149.5L289.4 149.3L291.4 147.6L293.9 147.2H296.7L298.3 147.6L297.3 146.9H297.4Z" fill="#A2C62F"/>
<path d="M143.5 160L141.6 159.8C140.8 159.7 139.9 159.5 139 158.9C137.5 157.7 137.3 155.6 137.2 154.6C137.1 152.3 137.1 149.8 137.3 147.5L137.8 146.5C138.2 146 138.8 145.9 139.1 145.9C140.629 145.762 142.166 145.729 143.7 145.8L144 145.6C144.6 145.3 145.2 145 145.7 145H146.2L146.7 145.3C147.3 145.7 147.6 146.3 147.7 146.7C148.5 148.8 148.5 151.5 148.4 153.9V155.2C148.4 157.7 147.3 158.8 146.4 159.3C145.7 159.8 144.9 159.9 144.3 159.9H143.5V160Z" fill="white"/>
<path d="M145.7 146.5H145.8C146.1 146.7 146.2 147 146.3 147.3C147.2 149.5 146.9 152.8 146.8 155.3C146.8 156.3 146.6 157.5 145.7 158C145.2 158.3 144.7 158.4 144.2 158.4C143.401 158.467 142.599 158.467 141.8 158.4C141.1 158.2 140.5 158.1 140 157.7C139 157 138.8 155.7 138.7 154.5C138.6 152.2 138.6 149.9 138.8 147.5V147.9L138.9 147.6H139.2C140.793 147.413 142.397 147.346 144 147.4C144.3 147.4 145.4 146.6 145.7 146.6M145.7 143.6C144.8 143.6 144 144 143.4 144.4C141.899 144.331 140.396 144.364 138.9 144.5C137.7 144.6 136.9 145.2 136.6 145.7C136.2 146.2 135.9 146.7 135.9 147.4C135.6 149.9 135.6 152.4 135.7 154.8C135.8 156 136 158.6 138.1 160.2C139.3 161 140.5 161.2 141.4 161.4C142.398 161.485 143.402 161.485 144.4 161.4C145.376 161.398 146.337 161.158 147.2 160.7C148.2 160.2 149.8 158.7 149.9 155.4V154C149.9 151.6 150 148.6 149.1 146.3C148.9 145.8 148.6 144.9 147.5 144.1C147 143.8 146.4 143.6 145.7 143.6Z" fill="#6E6F72"/>
<path d="M199.5 162.7C198.6 162.7 196.5 162.7 195.7 162.4H195.5C194.8 162.1 193.9 161.7 193.3 160.8C192.678 159.781 192.398 158.59 192.5 157.4V148.5C192.5 145.3 192.7 144.9 192.9 144.5C193.4 143.7 194.5 143.5 196.3 143.1L197.1 142.9L200.6 141.5C201 141.4 201.4 141.2 201.9 141.2L202.7 141.4C203.9 141.9 204 143.3 204.2 145.4V145.7C204.4 147.6 204.2 149.4 204.2 151.1L203.6 158.8C203.6 159.4 203.6 160.2 203.1 160.9C202.5 161.9 201.4 162.6 200.1 162.7H199.5Z" fill="white"/>
<path d="M201.9 142.7L202.1 142.8C202.5 143 202.7 145.5 202.7 145.9C202.9 147.6 202.7 149.3 202.7 151L202.1 158.7C202.1 159.2 202.1 159.7 201.8 160.2C201.5 160.8 200.8 161.2 200 161.2H199.5L196 161C195.4 160.7 194.9 160.4 194.5 160C194 159.2 194 158.3 194 157.4V148.5C194 148.1 194 145.7 194.2 145.3C194.5 144.8 197.1 144.6 197.6 144.3L201.2 142.9L201.9 142.7ZM201.9 139.7C201.1 139.7 200.6 139.9 200.1 140.1L199.5 140.4L196.5 141.5L196 141.6C194.2 142 192.5 142.3 191.6 143.8C191.2 144.5 191 145.1 191 148.5V157.4C191 158.4 191 160.2 192 161.7C193 162.9 194.1 163.4 194.9 163.7L195.1 163.8L195.4 163.9C197.021 164.146 198.661 164.246 200.3 164.2C202.1 164 203.6 163.1 204.4 161.7C205 160.7 205.1 159.5 205.1 158.9L205.4 154.9L205.7 151.2C205.7 149.4 205.9 147.5 205.7 145.6V145.3C205.5 143 205.3 140.9 203.3 140C202.9 139.8 202.3 139.7 201.9 139.7Z" fill="#6E6F72"/>
<path d="M188.8 164.7C187.4 164.7 184.9 164.1 183.9 162.5C183.6 162 183.3 161.5 183.2 160.7L183 160.3C182.68 159.06 182.578 157.774 182.7 156.5C182.5 155.2 182.7 154.1 182.7 152.9L182.9 150.9V149.6V148.9C182.8 148.1 182.6 147.4 182.3 146.7C181.683 146.18 181.144 145.574 180.7 144.9C172.7 144.9 164.2 144.5 155.8 142.5C154.831 142.85 153.824 143.084 152.8 143.2C150.847 144.96 148.549 146.295 146.054 147.121C143.558 147.947 140.917 148.247 138.3 148C138.219 149.936 138.085 151.871 137.9 153.8V154.9C138 156.4 138.1 158 137.3 159.2C136.3 160.6 134.3 161.5 131.9 161.5C129.8 161.5 127.7 160.8 126.6 159.7C124.5 157.6 124.9 153.7 125.2 150.7L125.4 148.3C125.5 144.1 124.4 140.3 123 136.2L121.3 130.2C120.3 126 120.1 121.9 120.4 118.2L120 118.5C119.544 118.763 119.026 118.901 118.5 118.9C117 118.9 115.7 118.1 115.3 116.9C114.514 114.458 114.358 111.858 114.848 109.34C115.337 106.822 116.456 104.469 118.1 102.5C120.094 100.532 122.271 98.7571 124.6 97.1999L126 96.1999C128.4 94.1999 130.6 92.4999 133.4 91.0999C136.3 89.5999 139.4 89.1999 142.5 88.8999C144.6 88.6999 146.7 88.4999 148.5 87.8999L151.5 87.2999L154 86.7999C155.1 86.4999 156 86.2999 156.9 86.2999C157.5 86.2999 158.1 86.2999 159.1 86.4999L164 87.0999C165.2 87.0999 166.2 87.3999 167.1 87.5999C168.2 87.7999 169.3 88.0999 170.5 88.0999H170.6C171.7 88.0999 172.8 87.8999 173.9 87.5999C175.754 87.3172 177.625 87.1502 179.5 87.0999L183.1 87.1999L186.5 87.2999C188.8 87.2999 191.5 87.0999 193.8 85.4999C195.4 84.4999 196.8 83.0999 198.3 81.6999C199.446 80.5737 200.647 79.5057 201.9 78.4999C205.631 75.6544 210.208 74.1406 214.9 74.1999C217.3 74.1999 219.7 74.5999 221.9 75.2999C223.788 75.8736 225.505 76.9041 226.9 78.2999C229.6 81.0999 229.5 83.1999 228.9 84.4999V84.5999C228.6 85.3999 228.3 86.0999 227.5 86.7999C226.6 87.5999 225.3 87.6999 224.3 87.7999H223.7C223.4 87.8149 223.1 87.8149 222.8 87.7999C221.8 87.7999 220.9 87.6999 220 87.4999L218.1 87.2999C217.8 87.2999 216.8 87.6999 216.2 87.9999L214.8 90.6999V93.1999C215 93.9999 215 94.7999 215 95.6999C215 96.8999 214.1 97.9999 213.3 98.8999L212.4 100.2L212.5 100.8L213 101.1C214.1 101.9 214.3 103.1 214.4 104.1C214.4 104.5 214.6 105.1 214.7 105.2C215.477 105.958 216.278 106.691 217.1 107.4H217.9C218.3 107.4 218.9 107.4 219.6 107.8L221.1 108.1L223.1 108.6L222.1 110.3L221.5 111.3C221.312 111.633 221.076 111.936 220.8 112.2C220.4 113.2 220.2 113.4 219.5 114L219.3 114.1C218.3 116.1 217.8 117.9 217.4 119.7L216.9 121.7C214.171 130.234 208.773 137.666 201.5 142.9C200.5 143.6 199.5 143.9 198.8 144.1H198.4C198.3 144.3 198.1 144.3 198 144.4C197.8 144.4 197.7 144.6 197.5 144.7C196.8 145.1 196.1 145.4 195.7 145.9C195.3 146.4 195.2 147.2 195.1 147.9C194.7 149.5 194.6 151.2 194.5 152.9V153L194.6 155.3V156C194.9 159.6 194.6 161.8 193.7 163C192.7 164.4 190.7 164.7 188.9 164.7H188.8Z" fill="white"/>
<path d="M214.9 75.7001C217.1 75.7001 219.3 76.1001 221.4 76.7001C223 77.3001 224.6 78.0001 225.8 79.3001C227 80.6001 228.3 82.3001 227.6 83.9001C227.3 84.7001 227.1 85.2001 226.4 85.7001C225.9 86.3001 224.4 86.2001 223.6 86.3001H222.8C221.3 86.3001 219.8 85.9001 218.2 85.8001C217.4 85.8001 215.7 86.5001 215.2 86.9001C215 87.0001 213.7 89.5001 213.4 90.3001C213.1 92.1001 213.6 93.8001 213.5 95.6001C213.5 97.2001 210.7 98.8001 210.9 100.4L211.1 101.4C211.3 101.8 211.7 102.1 212.1 102.4C213.3 103.2 212.6 105.1 213.6 106.2C213.9 106.6 215.4 108.2 215.8 108.4C216.3 108.8 216.7 108.9 217.1 108.9H217.9C218.3 108.9 218.6 108.9 219.1 109.2L220.8 109.6L220.2 110.6L219.4 111.5C219 112.7 219.1 112.3 218.1 113.2C216.5 116.3 216.1 118.7 215.4 121.4C212.748 129.594 207.523 136.714 200.5 141.7C199.6 142.5 198.5 142.5 197.7 142.8L197.3 143.1C196.3 143.6 195.2 144.1 194.5 145.1C193.982 145.847 193.64 146.702 193.5 147.6C193.199 149.351 193.032 151.123 193 152.9V153L193.2 156C193.2 157.8 193.3 161 192.5 162.2C191.9 163.1 190.1 163.2 188.9 163.2H188.8C187.7 163.2 185.8 162.7 185.2 161.7C184.9 161.3 184.7 160.7 184.6 160.2L184.4 159.8C184.1 158.8 184.1 157.6 184.2 156.5C184 154.5 184.3 153.1 184.4 151V149.8V149.5C184.407 149.233 184.407 148.967 184.4 148.7C184.3 147.7 184 146.7 183.6 145.7C182.781 145.121 182.099 144.37 181.6 143.5H181.5L181.3 143.4C172.6 143.4 164 143 155.7 140.9C154.583 141.368 153.404 141.671 152.2 141.8C150.189 143.709 147.753 145.112 145.092 145.894C142.432 146.677 139.624 146.816 136.9 146.3L136.4 153.8C136.4 154.9 136.8 157.3 136.1 158.3C135.3 159.5 133.6 160 131.9 160C130.2 160 128.5 159.4 127.6 158.6C125.6 156.6 126.9 151.3 126.9 148.3C127.1 141.9 124.3 136.1 122.8 129.8C121.044 123.345 121.465 116.491 124 110.3L123.4 110C121.6 111.1 121.1 113.5 120.4 115.6C120.3 116.1 119.7 117 119.2 117.2L118.5 117.4C117.7 117.4 116.9 117 116.7 116.4C115.2 112.5 116.3 106.4 119.2 103.5C121.2 101.5 123.4 100.1 125.5 98.4001C128.4 96.2001 130.9 94.0001 134.1 92.4001C138.6 90.1001 144.1 90.8001 149 89.4001C150.6 88.9001 153 88.8001 154.5 88.3001C155.5 87.9001 156.2 87.8001 156.9 87.8001C158.1 87.8001 159.4 88.2001 163.9 88.6001C166.4 88.8001 168 89.6001 170.5 89.6001H170.6C172.4 89.6001 174.1 89.1001 175.8 88.8001C177.026 88.6381 178.263 88.5713 179.5 88.6001L186.5 88.8001C189.4 88.8001 192.2 88.4001 194.7 86.8001C197.7 84.8001 200 81.8001 202.9 79.6001C206.2 77.0001 210.6 75.7001 214.9 75.7001ZM214.9 72.7001C209.7 72.7001 204.8 74.3001 201 77.3001C199.712 78.3369 198.477 79.4383 197.3 80.6001C195.8 82.0001 194.5 83.3001 193 84.3001C191.4 85.3001 189.4 85.8001 186.5 85.8001L183.2 85.7001C180.532 85.6243 177.861 85.6911 175.2 85.9001L173.6 86.2001C172.6 86.4001 171.6 86.6001 170.6 86.6001C169.5 86.6001 168.6 86.4001 167.5 86.1001C166.5 85.9001 165.5 85.7001 164.1 85.6001C161.689 85.4474 159.286 85.1804 156.9 84.8001C155.8 84.8001 154.9 85.0001 153.6 85.4001L151.3 85.9001C150.2 86.0001 149.1 86.2001 148.1 86.5001C146.4 87.0001 144.4 87.2001 142.4 87.5001C139.2 87.8001 135.9 88.1001 132.7 89.7001C129.8 91.2001 127.4 93.1001 125.1 95.0001L123.7 96.0001L122 97.3001C120.4 98.5001 118.7 99.8001 117 101.4C113.4 105 112 112.4 113.9 117.4C114.309 118.343 114.999 119.137 115.876 119.674C116.753 120.211 117.774 120.464 118.8 120.4C118.7 123.6 119.1 127.1 119.8 130.5C120.327 132.554 120.928 134.589 121.6 136.6C122.8 140.6 124 144.4 123.9 148.3C123.9 148.9 123.9 149.6 123.7 150.5C123.4 153.9 122.9 158.2 125.6 160.7C127.341 162.224 129.587 163.044 131.9 163C134.8 163 137.2 161.9 138.5 160C139.7 158.5 139.5 156.4 139.4 154.8V153.8L139.6 150.3V149.6H140.1C145.1 149.6 149.7 147.9 153.5 144.6C154.313 144.454 155.115 144.254 155.9 144C163.9 146 172.2 146.3 179.9 146.4L181.1 147.6L181.4 149V149.8C181.466 150.801 181.432 151.806 181.3 152.8C181.2 153.9 181 155.1 181.2 156.5C180.998 158.854 181.485 161.217 182.6 163.3C184.1 165.6 187.2 166.3 188.8 166.3H188.9C190.4 166.2 193.4 166.1 194.9 163.9C196 162.4 196.4 159.9 196.2 155.9V155.2L196 153C196 151.3 196.2 149.7 196.5 148.1C196.5 147.8 196.7 147.1 196.9 146.8L198.2 146C198.469 145.871 198.735 145.737 199 145.6H199.2C200 145.3 201.2 145 202.4 144C210.487 138.146 216.285 129.661 218.8 120C219.3 118.4 219.6 116.9 220.5 115.1C221.4 114.4 221.7 113.9 222 113.1L222.8 112L223.3 111L225.3 107.6L221.5 106.6L220 106.3C219.212 105.963 218.354 105.825 217.5 105.9C216.994 105.407 216.494 104.907 216 104.4L215.9 103.9C215.8 102.9 215.5 101.4 214.2 100.2L214.5 99.9001C215.3 98.9001 216.5 97.5001 216.5 95.6001L216.4 93.1001L216.3 91.1001L217.3 89.1001L218.3 88.8001L219.8 89.0001C221.121 89.2217 222.46 89.3221 223.8 89.3001H224.4C225.5 89.2001 227.2 89.1001 228.4 87.9001C229.5 86.9001 229.9 86.1001 230.3 85.2001V85.0001C231.1 83.4001 231.3 80.6001 228 77.2001C226.404 75.643 224.445 74.5087 222.3 73.9001C219.916 73.098 217.416 72.6927 214.9 72.7001Z" fill="#6E6F72"/>
<path d="M146.1 147.3C145.9 147.2 144.6 148.1 144.3 148.1C142.631 148.036 140.959 148.103 139.3 148.3V155.6V148.4C139 150.6 139 152.9 139.2 155.2C139.2 156.3 139.5 157.6 140.4 158.2C140.9 158.7 141.5 158.8 142.2 158.9H144.5C145 158.9 145.5 158.9 146 158.6C147 158.1 147.1 156.9 147.2 155.8C147.2 153.5 147.5 150.2 146.6 148.1C146.6 147.8 146.4 147.5 146.1 147.3ZM202.7 144.2H201.7C200.8 144.7 199.7 145.1 198.7 145.5C197.784 145.891 196.939 146.432 196.2 147.1L196 150.1V158.4C196 159.2 195.5 160.4 195.9 161C196.1 161.5 197.2 161.5 197.7 161.7C198.2 161.9 200.3 162 200.8 161.9C201.4 161.9 202 161.6 202.3 160.9C202.5 160.6 202.5 160.1 202.5 159.6L202.9 152.4C203 150.8 203.1 149.2 202.9 147.6C202.9 147.2 203 144.4 202.7 144.2Z" fill="#D1D3D4"/>
<path d="M225.7 79.3C225.5 79 224.8 78.5 225 80.2C225.4 82.7 226.4 83.2 224.2 84.4C223.8 84.6 218.7 84.4 217.5 84.6C215.5 84.9 214.8 86 213.8 87.6C212.8 89.2 211.4 93.8 211.9 95.2C212.9 98.2 208 96.7 208.7 100C209.3 102.9 209.7 105.8 209.5 108.4C209.5 110.4 213.8 110.4 214 112.4C214.5 116.4 210.6 122.1 210.8 124.9C211 128.3 206.6 131 206 131.4C200.5 135.1 202.5 136.2 196 137.2C195.3 137.4 193.5 143 191.5 144.2C191.3 144.4 191.9 158.6 191 159.7C189.1 161.9 187.7 161 186.1 160.9C185.3 160.9 184.9 144.6 184.5 144.6C183.8 144.6 180.5 139.6 180.1 139.6C177.6 139.6 175.1 139 172.5 138.8C165.5 138.2 163.8 136.5 160.8 137.4C159.2 137.9 153.1 138 151.5 138.4C146.7 139.9 144.1 145.3 139 143.6C138.6 143.5 136.2 144.9 135.3 146.1C135.1 146.4 134.9 156.7 134.3 157.5C132.3 160.5 128.1 159.1 127.3 157.3C127.1 157 127.1 149.2 127.7 143.2C128.1 138.9 125.3 135.9 125.2 135.7C124.3 132 123.9 124.4 123 120.7C121.6 114.7 124.9 107.2 123.8 108.1C121.6 109.7 121.2 111.9 119.3 113.8C116.4 116.7 115.2 112.6 116.6 116.4C117 117.4 118.4 117.8 119.2 117.3C119.6 117.1 120.2 116.1 120.4 115.7C121 113.7 121.5 111.2 123.4 110.1L124 110.4C121.2 116.2 121.3 123.6 122.8 129.9C124.3 136.2 127 141.9 126.8 148.4C126.8 151.4 125.5 156.6 127.6 158.7C129.4 160.4 134.4 160.7 136.1 158.4C136.8 157.4 136.3 155 136.3 153.8L136.8 146.4C142.6 147.4 148 145.8 152.2 141.9C153.394 141.718 154.566 141.417 155.7 141C164 143 172.6 143.5 181.2 143.5L181.4 143.6H181.6C182.1 144.5 182.7 145.2 183.6 145.9C184 146.8 184.2 147.7 184.3 148.8V149C184.35 149.331 184.384 149.665 184.4 150V151C184.3 153.2 183.9 154.6 184.1 156.6C184.1 157.7 184.1 158.8 184.4 159.9L184.6 160.3C184.6 160.8 184.9 161.3 185.1 161.8C185.8 162.8 187.7 163.3 188.8 163.3C190 163.3 191.8 163.2 192.4 162.3C193.3 161 193.2 157.9 193.1 156.2L193 153.2V152.9C193 151.2 193.2 149.4 193.5 147.7C193.625 146.767 193.967 145.876 194.5 145.1C195.2 144.2 196.3 143.7 197.3 143.1L197.7 142.9C198.5 142.6 199.6 142.6 200.5 141.9C207.54 136.888 212.767 129.731 215.4 121.5C216.1 118.8 216.4 116.4 218 113.3C219 112.4 219 112.8 219.4 111.5C219.4 111.5 220.1 110.8 220.1 110.6L220.7 109.6L219.1 109.3C217.7 108.5 216.9 109.3 215.7 108.3C214.979 107.656 214.279 106.989 213.6 106.3C212.6 105.3 213.2 103.3 212 102.4C211.7 102.2 211.3 101.9 211.1 101.4C211.024 101.102 210.958 100.802 210.9 100.5C210.6 98.9 213.5 97.3 213.5 95.7C213.5 93.9 213.1 92.1 213.3 90.4L215.1 87C215.7 86.6 217.4 85.9 218.1 86C219.9 86 221.8 86.5 223.5 86.4C224.4 86.3 225.8 86.4 226.5 85.8C227 85.3 227.2 84.8 227.5 84C228.2 82.4 226.6 80.8 225.7 79.3Z" fill="#D1D3D4"/>
<path d="M225.3 108.9C223.4 108.9 222 108.6 220.7 108.1C220.5 107.9 220.2 107.8 219.8 107.7L217.4 106.6C215.6 105.3 211.7 102.6 211.2 98C211 96.4 211.3 93.5 211.8 91.6C212.2 89.8 213.8 87.3 213.9 87L214.2 86.5L214.8 86.3C216.5 85.8 218.7 85.3 219.3 85.3H219.6C220.6 85.5 221.5 85.9 222.1 86.2C222.7 86.5 223.1 86.6 223.5 86.6H223.7L224 86.5C224.4 86.3 224.9 86.1 225.5 86.1H225.7C226.9 86.1 228 87.1 228.9 87.7L229.2 88C230.7 89.2 231.9 90.6 233 92L233.8 93.1C235.1 94.7 236.8 97.1 237.3 100C237.7 103 236.3 106.1 233.8 107.4C233.1 107.8 232.3 108.1 231.3 108.2C229.6 108.5 227.4 108.9 225.3 108.9Z" fill="#A7A9AC"/>
<path d="M219.3 86.8C221.2 87 222 88.1 223.5 88.1H223.8C224.5 88.1 224.9 87.6 225.5 87.6H225.6C226.4 87.6 227.6 88.6 228.2 89.2C230.1 90.6 231.2 92.3 232.7 94.1C234.1 95.9 235.5 97.9 235.7 100.1C236.1 102.4 235.2 105 233.1 106.1C230.555 106.816 227.939 107.252 225.3 107.4C223.933 107.443 222.571 107.204 221.3 106.7C220.5 106.3 219.1 105.9 218.3 105.3C216 103.8 213.1 101.6 212.7 97.8C212.6 96.5 212.7 93.8 213.2 92C213.7 90.3 215.2 87.7 215.2 87.7C215.2 87.7 218.7 86.8 219.3 86.8ZM219.3 83.8C219 83.8 218.3 83.8 214.4 84.8L213.3 85.2L212.6 86.2C212.3 86.7 210.8 89.2 210.3 91.2C209.8 93.3 209.5 96.4 209.7 98.2C210.3 103.5 214.7 106.5 216.7 107.8C217.4 108.4 218.4 108.8 219.3 109.1L220.1 109.4C221.5 110.1 223.2 110.4 225.3 110.4C227.5 110.4 229.8 110 231.5 109.7C232.7 109.5 233.7 109.2 234.5 108.7C237.5 107.1 239.3 103.5 238.7 99.7C238.3 96.5 236.4 93.9 235 92.2L234.1 91.1C233 89.6 231.8 88.1 230.1 86.8L229.8 86.6C228.8 85.8 227.4 84.6 225.8 84.6H225.5C224.806 84.626 224.125 84.7963 223.5 85.1L222.8 84.8C222.1 84.5 221.1 84 219.8 83.8H219.3Z" fill="#6E6F72"/>
<path d="M201.8 99.8C201.567 99.8273 201.332 99.8273 201.1 99.8C200.1 99.5 199.2 98.6 198.8 97.3C198.5 96.1 198.5 94.7 198.9 93.3C199.4 91.9 200 90.8 200.9 90C201 89.9 201.4 89.5 201.9 89.5H202.1C202.6 89.6 202.7 89.8 203.4 90.7L204.9 92.7L205.1 92.8C205.5 93.2 206 93.7 206.3 94.3L206.6 95.4C206.6 96.4 206.1 97.2 205.7 97.7C205.21 98.2949 204.601 98.7804 203.912 99.1249C203.223 99.4694 202.469 99.6654 201.7 99.7L201.8 99.8Z" fill="#A7A9AC"/>
<path d="M202 90.5001C202 90.5001 203.4 92.5001 204.2 93.3001C204.6 93.8001 205.2 94.3001 205.4 94.8001L205.6 95.5001C205.6 96.1001 205.3 96.5001 204.9 97.0001C204.2 98.0001 203.1 98.7001 201.9 98.8001C201.734 98.8145 201.566 98.8145 201.4 98.8001C200.6 98.6001 200 97.8001 199.8 97.0001C199.4 96.0001 199.6 94.7001 199.9 93.6001C200.2 92.5001 200.8 91.5001 201.6 90.6001H201.9M201.9 88.6001C201.3 88.6001 200.7 88.8001 200.2 89.2001C199.2 90.2001 198.4 91.5001 198 93.0001C197.511 94.4895 197.476 96.0908 197.9 97.6001C198.098 98.3169 198.479 98.97 199.004 99.4958C199.53 100.022 200.183 100.402 200.9 100.6C201.256 100.718 201.626 100.785 202 100.8C203.6 100.7 205.2 99.8001 206.5 98.3001C206.8 98.0001 207.7 96.9001 207.6 95.3001C207.6 94.9001 207.5 94.3001 207.2 93.8001C206.8 93.1001 206.2 92.5001 205.8 92.1001L205.6 91.9001L204.2 90.1001C203.5 89.1001 203.2 88.7001 202.3 88.6001H201.9Z" fill="#6E6F72"/>
</g>
<defs>
<radialGradient id="paint0_radial_64_315" cx="0" cy="0" r="1" gradientUnits="userSpaceOnUse" gradientTransform="translate(173 200) scale(187.1 187.1)">
<stop stop-color="#A4B800"/>
<stop offset="0.3" stop-color="#9BB705"/>
<stop offset="0.9" stop-color="#83B413"/>
<stop offset="1" stop-color="#7CB317"/>
</radialGradient>
<linearGradient id="paint1_linear_64_315" x1="173" y1="400" x2="173" y2="3.89255e-06" gradientUnits="userSpaceOnUse">
<stop stop-color="#E6E600"/>
<stop offset="0.5" stop-color="#A4B800"/>
<stop offset="0.7" stop-color="#4E7200"/>
</linearGradient>
<linearGradient id="paint2_linear_64_315" x1="173" y1="1.67258e-07" x2="173" y2="400" gradientUnits="userSpaceOnUse">
<stop stop-color="#E6E600"/>
<stop offset="0.5" stop-color="#A4B800"/>
<stop offset="0.7" stop-color="#4E7200"/>
<stop offset="1" stop-color="#A4B800"/>
</linearGradient>
<clipPath id="clip0_64_315">
<rect width="346" height="400" fill="white"/>
</clipPath>
</defs>
</svg>
