<svg width="347" height="401" viewBox="0 0 347 401" fill="none" xmlns="http://www.w3.org/2000/svg">
<g clip-path="url(#clip0_64_214)">
<path d="M4.41016 104.695V296.695L173.41 396.695L342.41 296.695V104.695L173.41 4.69507L4.41016 104.695Z" fill="url(#paint0_radial_64_214)"/>
<path d="M173.41 34.1951L317.443 117.395V283.995L173.41 367.195L29.3767 283.995V117.395L173.41 34.1951ZM173.41 4.69507L4.41016 104.695V296.695L173.41 396.695L342.41 296.695V104.695L173.41 4.69507Z" fill="url(#paint1_linear_64_214)"/>
<path d="M173.41 29.5951L321.439 115.095V286.295L173.41 371.695L25.3813 286.295V115.095L173.41 29.6951M173.41 4.69507L4.41016 104.695V296.695L173.41 396.695L342.41 296.695V104.695L173.41 4.69507Z" fill="url(#paint2_linear_64_214)"/>
<path d="M173.41 15.6951L333.425 108.195V293.195L173.41 385.695L13.3952 293.195V108.195L173.41 15.6951ZM173.41 4.69507L4.41016 100.695V300.695L173.41 396.695L342.41 300.695V100.695L173.41 4.69507Z" fill="#966502"/>
<path d="M173.41 13.3951L335.423 106.995V294.295L173.41 387.995L11.3975 294.295V107.095L173.41 13.3951ZM173.41 0.695068L0.410156 100.695V300.695L173.41 400.695L346.41 300.695V100.695L173.41 0.695068Z" fill="#E0B568"/>
<path d="M72.2271 142.895C72.2271 142.895 67.2328 139.395 63.9367 138.595C60.4079 137.729 56.7817 137.326 53.1491 137.395C52.4499 137.795 64.2363 148.095 66.3339 153.195C69.3304 158.195 71.0285 165.695 72.7265 167.495C74.4245 169.295 74.6243 169.195 76.8218 168.995C79.1191 168.795 80.4176 166.395 80.4176 166.395V158.195C80.4176 158.195 79.7184 152.795 78.1203 149.895C76.5221 146.895 72.1272 142.895 72.1272 142.895H72.2271ZM100.994 141.195C100.494 140.795 95.7998 141.495 93.4026 142.195C91.1052 142.795 87.6093 145.795 87.6093 145.795C87.6093 145.795 84.6128 149.095 83.4141 151.595C82.2155 154.095 81.816 158.495 81.816 158.495V165.295C81.816 165.295 82.8148 167.295 84.413 167.495C86.0111 167.695 86.0111 167.695 87.3096 166.195C88.5082 164.695 89.607 158.495 91.7045 154.295C93.2028 150.095 101.493 141.495 100.994 141.195ZM97.8974 158.595C97.8974 158.595 95.7998 158.795 94.9009 159.495C93.902 160.195 92.4037 161.695 92.4037 161.695L91.4049 163.995C91.4049 163.995 91.4049 166.195 92.0042 166.595C92.6035 166.995 93.6024 166.595 94.4014 166.395C95.1006 165.995 96.3991 163.895 98.0972 162.695C99.4955 161.395 105.089 160.395 105.089 160.195C104.889 159.895 102.092 158.595 101.094 158.395C99.8951 158.195 97.8974 158.595 97.8974 158.595ZM65.5348 160.695C64.3362 159.295 61.7392 157.695 61.7392 157.695C61.7392 157.695 58.8425 156.295 57.0446 156.095C55.1468 156.095 51.551 156.095 51.2513 156.395C50.8518 156.695 57.9436 160.795 59.4419 163.195C61.4395 165.495 62.8379 169.095 63.9367 169.895C65.0354 170.695 64.9355 170.595 66.234 170.295C67.4326 169.995 67.932 168.695 67.932 168.695L67.3327 164.595C67.3327 164.595 66.5337 161.995 65.4349 160.595L65.5348 160.695Z" fill="#CC9127"/>
<path d="M268.4 132.495C268.4 132.495 263.506 128.895 260.21 128.195C256.913 127.495 250.121 126.495 249.422 126.995C248.723 127.395 260.509 137.595 262.607 142.695C265.603 147.795 267.202 155.195 268.999 156.995C270.698 158.795 270.897 158.795 272.995 158.595C275.292 158.395 276.691 155.995 276.691 155.995V147.695C276.691 147.695 275.991 142.395 274.393 139.495C272.695 136.495 268.4 132.495 268.4 132.495ZM297.267 130.695C296.767 130.395 292.073 131.095 289.676 131.695C287.278 132.295 283.882 135.295 283.882 135.295C283.882 135.295 280.886 138.695 279.687 141.095C278.588 143.595 278.089 148.095 278.089 148.095V154.895C278.089 154.895 279.088 156.895 280.586 157.095C282.184 157.095 282.284 157.295 283.583 155.795C284.681 154.295 285.88 148.095 287.978 143.795C289.476 139.595 297.766 131.095 297.267 130.795V130.695ZM297.267 147.995C296.168 147.695 294.17 148.195 294.17 148.195C294.17 148.195 292.073 148.395 291.174 149.095C290.175 149.795 288.577 151.295 288.577 151.295L287.578 153.495C287.578 153.495 287.578 155.695 288.177 156.095C288.876 156.495 289.775 156.295 290.575 155.895C291.374 155.595 292.572 153.495 294.27 152.295C295.669 150.895 301.462 149.995 301.262 149.795C301.062 149.595 298.366 148.195 297.267 147.995ZM261.708 150.195C260.709 148.895 258.012 147.195 258.012 147.195C258.012 147.195 255.116 145.795 253.318 145.695C251.52 145.595 247.824 145.695 247.424 145.995C247.025 146.295 254.217 150.395 255.615 152.795C257.613 155.095 259.111 158.695 260.11 159.395C261.109 160.195 261.308 160.095 262.407 159.895C263.506 159.695 264.205 158.295 264.205 158.295L263.606 154.195C263.606 154.195 262.807 151.495 261.708 150.195Z" fill="#CC9127"/>
<path d="M73.8253 144.695L69.4304 141.095L63.737 138.095L59.9414 137.295H56.0459L53.4489 137.495L57.8438 140.295L60.5407 141.995C60.1411 141.995 65.3351 146.495 68.1319 148.995L70.8288 152.495L73.226 154.095C73.226 154.095 75.5234 155.795 76.3224 155.095C77.2214 154.595 77.1215 153.395 77.1215 153.395C77.1215 153.395 77.6209 152.395 76.722 149.595C75.7231 146.995 73.7254 144.695 73.7254 144.695H73.8253ZM98.1971 142.695L100.494 141.395L96.2993 141.695C96.2993 141.695 92.304 142.695 92.0043 142.895L88.2087 145.595L85.2121 148.995C84.8126 149.695 83.614 150.895 83.614 151.195L83.3143 152.395C83.3143 152.395 82.8149 153.495 84.3132 153.595C85.9113 153.695 87.8092 151.195 87.8092 151.195L90.4061 148.395L93.0031 146.395L95.9997 144.395L98.1971 142.795V142.695ZM62.5384 158.295C62.2387 157.995 60.3409 157.195 59.9414 156.895C59.6417 156.695 56.6452 156.295 55.946 156.195C55.2468 156.095 52.45 156.395 52.1504 156.495L54.4477 157.195L55.5464 157.695L59.5418 159.795L62.4385 161.995C62.4385 161.995 64.2364 162.695 65.0355 162.595C65.7347 162.395 65.2352 160.395 65.0355 160.095L62.6382 158.295H62.5384ZM99.6954 157.795L96.4991 158.495C96.4991 158.495 95.5003 158.795 95.0008 159.995C94.5014 161.195 95.0008 161.195 95.0008 161.195L95.4004 160.895L97.3981 159.295L99.8952 158.795H102.692L104.29 159.195L103.291 158.495L99.6954 157.795ZM269.699 134.195L265.304 130.695L259.51 127.695L255.815 126.895H251.819L249.222 127.095L253.617 129.895L256.314 131.595C255.915 131.595 261.109 136.095 263.905 138.595L266.602 142.095L269.099 143.695C269.099 143.695 271.297 145.395 272.096 144.695C272.895 143.995 272.895 143.095 272.895 143.095C272.895 143.095 273.494 141.895 272.495 139.295C271.497 136.695 269.499 134.295 269.499 134.295L269.699 134.195ZM294.07 132.295L296.368 130.895L292.173 131.195C292.173 131.195 288.177 132.195 287.878 132.395L284.182 135.095C284.182 135.095 281.585 137.795 281.185 138.495C280.786 139.195 279.487 140.495 279.487 140.695L279.188 141.995C279.188 141.995 278.788 142.995 280.286 143.195C281.885 143.195 283.682 140.695 283.682 140.695L286.379 137.895L288.876 135.895L291.873 133.895L294.07 132.295ZM258.512 147.795C258.212 147.595 256.214 146.795 255.915 146.495C255.515 146.195 252.519 145.795 251.919 145.695L248.024 145.995L250.321 146.695L251.42 147.295L255.415 149.295L258.412 151.595C258.412 151.595 260.11 152.295 260.909 152.095C261.708 151.895 261.208 149.895 260.909 149.595L258.512 147.795ZM299.264 147.995L295.669 147.295L292.472 147.995C292.472 147.995 291.374 148.295 290.874 149.495C290.475 150.695 290.874 150.695 290.874 150.695L291.374 150.395L293.371 148.795L295.769 148.395H298.565L300.163 148.695L299.165 147.995H299.264Z" fill="#E3C33B"/>
<path d="M174.509 165.495L172.911 165.195C172.056 164.836 171.32 164.241 170.789 163.48C170.259 162.719 169.955 161.822 169.914 160.895C169.814 159.395 170.214 157.995 170.713 156.695C171.013 155.995 171.312 155.095 171.912 154.295C175.108 148.795 180.202 144.495 185.196 140.695C188.692 138.095 191.389 136.195 194.186 134.595C197.982 132.295 215.162 127.995 218.258 127.995C219.157 127.995 219.756 128.295 220.056 128.895C220.955 130.595 220.056 131.095 211.166 135.895C205.673 138.895 198.781 142.795 196.084 145.095C192.641 148.254 189.436 151.663 186.495 155.295C184.497 157.695 182.3 160.295 180.002 162.595C179.196 163.476 178.251 164.219 177.206 164.795C176.374 165.237 175.45 165.477 174.509 165.495ZM161.923 163.995C160.924 163.995 159.926 163.595 159.326 163.295C156.862 161.932 154.663 160.137 152.834 157.995L152.534 157.695C148.339 153.395 143.944 149.295 139.349 145.495C137.02 143.502 134.512 141.728 131.858 140.195C130.46 139.395 127.663 139.195 125.765 138.995C123.468 138.795 121.87 138.595 122.069 136.995C122.069 135.795 122.669 134.995 128.362 134.995C130.16 134.995 133.556 135.095 135.953 135.995C141.539 137.925 146.77 140.763 151.435 144.395C154.632 146.695 157.428 149.395 160.125 152.095L162.123 154.095C163.422 155.395 166.019 157.895 165.419 161.095C165.219 161.995 164.82 162.695 164.221 163.195C163.621 163.695 162.822 163.995 161.923 163.995ZM168.416 149.995H167.717L167.617 149.795H166.418C165.219 149.495 164.221 148.095 162.523 145.795C162.013 145.078 161.48 144.378 160.924 143.695C159.926 142.495 159.126 141.495 158.028 140.495C156.704 139.303 155.303 138.2 153.833 137.195L150.437 134.495C147.04 131.695 145.243 128.495 145.143 125.495C145.143 123.595 145.842 122.095 147.14 121.495C147.64 121.295 148.139 121.095 148.738 121.095C149.338 121.095 150.037 121.295 150.736 121.595C151.735 121.895 152.734 122.395 153.433 122.995C152.534 122.095 151.435 121.395 150.337 120.795L149.138 120.195L147.14 119.195C146.141 118.595 145.143 117.895 144.543 117.195C143.644 116.495 142.546 115.395 141.747 114.195C140.548 112.395 139.849 110.195 139.949 107.995C139.949 105.995 140.648 104.595 141.846 103.595C142.745 102.895 143.844 102.595 145.043 102.595C146.441 102.595 147.74 102.995 148.539 103.395C151.535 104.695 154.132 107.195 156.529 110.995C157.229 111.995 157.628 112.995 158.028 113.895C159.252 117.598 159.594 121.536 159.027 125.395L158.827 128.195L157.828 127.495C158.543 128.599 159.21 129.733 159.826 130.895L160.525 132.995L160.625 133.595C160.924 134.595 161.424 135.795 162.123 137.095L162.323 136.495C162.523 135.995 162.223 135.195 161.923 134.495V134.295C161.224 132.495 160.725 130.595 160.525 128.795C160.292 127.039 160.497 125.252 161.124 123.595L159.426 121.895L159.626 121.095C159.626 120.295 159.626 119.295 159.426 118.395L159.326 117.195C159.154 115.722 159.255 114.231 159.626 112.795L158.527 113.695L157.828 111.495C157.129 109.295 155.73 107.295 153.733 105.995C153.034 105.495 152.234 104.995 151.335 104.595C149.338 103.595 147.34 102.495 146.141 100.595C145.516 99.5813 145.076 98.4637 144.843 97.295C144.543 96.095 144.344 94.495 144.943 92.995C145.409 92.0731 146.149 91.3185 147.062 90.835C147.974 90.3515 149.013 90.1629 150.037 90.295C151.435 90.395 152.534 91.095 153.533 91.895C151.827 90.1598 150.86 87.8296 150.836 85.395C150.936 83.895 151.535 82.495 152.634 81.695C153.333 81.195 154.232 80.895 155.331 80.895C156.13 80.895 157.129 81.095 157.928 81.495C159.326 82.295 160.325 83.695 160.924 84.695C162.323 86.895 163.222 88.895 163.621 90.895C163.721 91.895 163.821 92.895 163.721 93.795L166.418 87.495L166.318 87.595L163.322 88.595V86.495C163.322 85.795 163.022 84.995 162.323 84.195L161.324 82.995C160.825 82.495 160.325 81.995 159.926 81.295C159.126 80.195 158.527 78.995 158.228 77.595C157.728 75.395 158.327 74.095 159.027 73.395C159.418 72.9663 159.897 72.628 160.432 72.4035C160.966 72.1791 161.544 72.0738 162.123 72.095C163.122 72.095 164.121 72.395 164.92 72.895C166.218 73.695 167.117 74.995 167.717 76.995V77.095C167.48 75.7722 167.146 74.4686 166.718 73.195C166.118 71.195 165.519 68.595 166.618 66.195C167.117 65.095 167.717 64.295 168.616 63.795C169.115 63.595 169.714 63.395 170.314 63.395C171.113 63.395 171.812 63.695 172.311 64.195C173.01 64.695 173.31 65.395 173.31 65.795C173.51 66.095 173.51 66.395 173.61 66.795L174.209 64.795C174.509 64.195 174.808 63.495 175.508 62.895C176.066 62.4262 176.776 62.1773 177.505 62.195C177.905 62.195 178.304 62.295 178.704 62.595C179.303 62.895 180.002 63.595 180.102 65.195C180.102 66.495 179.902 67.795 179.403 68.995C179.902 68.695 180.402 68.595 181.001 68.595C181.501 68.595 182 68.695 182.4 68.995C183.299 69.495 183.898 70.495 183.898 71.695C183.898 73.495 182.899 75.195 181.201 76.495C179.902 77.495 178.204 78.095 176.806 78.695L174.509 79.495C175.169 79.6416 175.793 79.9211 176.343 80.3164C176.892 80.7118 177.356 81.2148 177.705 81.795C178.704 83.395 178.604 85.495 177.705 87.295C177.006 88.595 175.807 89.695 174.209 90.895C173.11 91.6724 171.94 92.3421 170.713 92.895C171.196 92.9943 171.652 93.1978 172.049 93.4914C172.446 93.785 172.774 94.1616 173.01 94.595C174.609 96.995 174.309 100.395 172.211 102.895C170.443 104.877 168.161 106.331 165.619 107.095H166.418C168.416 107.095 170.214 107.995 171.213 109.395C171.712 110.095 171.912 110.895 172.111 111.695C173.074 112.088 173.905 112.747 174.509 113.595C173.909 109.995 174.509 106.595 176.107 104.195C176.806 103.195 177.605 102.695 178.604 102.595H178.804C179.503 102.595 180.202 102.895 180.901 103.595C181.501 104.095 181.9 104.795 182.3 105.495C182.4 103.795 182.799 101.995 183.898 100.495C184.451 99.6543 185.207 98.9665 186.095 98.495C186.695 98.095 187.494 97.895 188.093 97.895C188.692 97.895 189.092 97.995 189.491 98.195C190.491 98.532 191.317 99.2509 191.789 100.195L191.988 97.195C191.988 96.295 192.188 95.195 192.688 94.295C192.934 93.7427 193.323 93.2662 193.815 92.9146C194.306 92.5631 194.883 92.3492 195.484 92.295H195.584C196.783 92.295 197.882 93.095 198.581 94.295L198.98 95.095C199.58 92.495 200.778 89.995 202.376 87.795C202.576 87.395 203.375 86.295 204.774 86.295C205.972 86.295 206.871 87.095 207.171 88.195C207.371 88.995 207.171 89.695 207.171 90.195L207.371 89.895C208.769 88.395 210.367 86.895 212.764 86.695H213.164C213.663 86.695 213.963 86.695 214.363 86.895C215.162 87.295 215.761 88.095 215.961 89.095C216.161 90.595 215.162 92.095 213.564 92.895C212.764 93.295 211.965 93.495 211.266 93.695C212.764 93.795 214.363 94.695 214.662 96.395C214.962 97.795 213.963 99.195 212.265 100.095C210.867 100.795 209.269 101.095 207.87 101.295L203.375 101.995C203.827 102.207 204.219 102.528 204.516 102.929C204.812 103.331 205.004 103.8 205.073 104.295C205.173 105.195 205.073 106.495 203.275 107.795C200.984 109.545 198.166 110.462 195.285 110.395H193.986C194.585 110.495 195.085 110.695 195.584 110.995C197.083 111.995 197.882 113.895 197.582 115.695C197.361 116.484 196.982 117.219 196.466 117.855C195.951 118.492 195.311 119.016 194.585 119.395C193.387 120.295 191.889 120.695 190.69 120.895L187.693 121.495C188.692 122.195 189.691 123.295 189.891 124.495C190.191 126.095 189.691 127.795 188.493 129.195C187.394 130.395 185.896 131.195 184.897 131.695C182.144 133.06 179.165 133.908 176.107 134.195L174.109 134.295L174.409 132.895L173.81 134.095L172.811 135.995L172.012 138.595C171.512 140.295 171.013 142.795 170.813 144.795C170.114 148.995 169.814 149.995 168.416 149.995ZM162.622 137.795C164.124 140.206 165.589 142.64 167.017 145.095C167.313 141.966 167.814 138.859 168.516 135.795C167.417 136.795 166.118 137.595 164.82 138.395L163.821 138.995L162.622 137.795ZM176.606 124.295C176.407 125.995 176.307 127.695 175.807 129.295C176.973 126.861 178.524 124.632 180.402 122.695C180.801 122.295 181.401 121.795 182.1 121.395H181.401L183.598 118.395L184.797 116.195L182.799 115.995V115.695C182.999 114.695 182.999 113.895 182.899 112.895C182.899 114.195 182.699 115.595 182.4 116.895C181.8 119.495 180.702 121.695 179.103 123.395L178.804 123.695L176.606 124.295ZM191.189 108.695L190.79 109.495C190.191 110.495 189.491 111.295 188.792 111.995C189.391 111.595 190.091 111.095 190.99 110.795L191.189 108.695ZM191.789 110.495L192.488 110.395L192.088 109.895L191.789 110.495ZM161.024 109.995C161.424 109.395 162.023 108.995 162.523 108.495C161.723 108.495 160.924 108.095 160.525 107.395L161.024 109.995ZM194.386 105.695L195.085 105.095C196.741 103.994 198.44 102.96 200.179 101.995L198.98 100.495L198.181 100.995V100.495C197.682 101.495 196.883 102.495 196.184 103.295L194.386 105.595V105.695ZM155.131 93.395C156.43 94.795 157.329 96.095 157.928 97.395C158.627 98.895 158.927 100.395 159.226 101.895L160.125 105.595V105.195C160.425 103.595 160.725 102.095 161.324 100.595L160.725 101.495L159.826 97.895C159.526 96.695 158.228 95.695 156.829 94.695L155.83 93.995L155.131 93.395ZM163.721 94.795C163.721 95.395 163.521 95.995 163.322 96.495C163.899 95.745 164.57 95.0728 165.319 94.495L163.721 94.795ZM168.516 79.895C168.616 81.095 168.516 82.395 168.316 83.495C168.676 82.8694 169.076 82.2681 169.514 81.695L168.516 79.895ZM171.912 77.395L171.113 79.595L170.813 80.395C171.391 79.9089 172.075 79.5662 172.811 79.395L171.812 78.795V77.995V77.395H171.912ZM173.21 72.795L172.611 75.195L173.41 73.995L173.21 72.795Z" fill="#976014"/>
<path d="M177.505 63.6951C177.705 63.6951 177.905 63.6951 178.105 63.8951C178.604 64.0951 178.704 64.6951 178.704 65.2951C178.74 66.6313 178.394 67.9499 177.705 69.0951C177.029 70.3235 175.979 71.3043 174.708 71.8951L174.609 71.0951C174.609 69.0951 175.008 67.1951 175.707 65.3951C175.907 64.8951 176.107 64.3951 176.506 64.0951C176.806 63.8951 177.206 63.6951 177.505 63.6951ZM170.413 64.8951C170.813 64.8951 171.213 64.9951 171.412 65.2951C171.812 65.5951 171.912 65.8951 172.012 66.2951C172.611 68.0951 172.311 69.9951 172.012 71.7951C171.412 74.2951 170.613 76.6951 169.714 78.9951L169.614 78.7951C169.614 76.7951 168.815 74.7951 168.216 72.7951C167.617 70.7951 167.217 68.6951 168.116 66.7951C168.316 66.0951 168.815 65.4951 169.415 65.1951C169.714 64.9951 170.114 64.8951 170.413 64.8951ZM181.101 70.0951C181.301 70.0951 181.501 70.0951 181.7 70.2951C182.3 70.5951 182.499 71.1951 182.499 71.7951C182.499 73.1951 181.601 74.4951 180.502 75.2951C179.303 76.2951 177.805 76.6951 176.407 77.2951L173.71 78.2951L173.41 77.9951C173.41 76.6951 174.009 75.2951 175.208 74.3951C175.807 73.9951 176.506 73.6951 177.106 73.1951C177.805 72.7951 178.304 72.1951 178.804 71.4951L180.102 70.3951C180.403 70.2083 180.747 70.1048 181.101 70.0951ZM162.223 73.6951C162.922 73.6951 163.621 73.8951 164.221 74.1951C165.325 75.0392 166.101 76.2411 166.418 77.5951C167.417 80.5951 167.417 83.8951 165.419 86.3951L165.02 86.5951C165.02 85.3951 164.42 84.2951 163.621 83.2951C162.822 82.2951 161.923 81.4951 161.224 80.4951C160.525 79.4951 160.025 78.4951 159.826 77.3951C159.526 76.3951 159.526 75.2951 160.225 74.3951C160.725 73.8951 161.424 73.6951 162.223 73.6951ZM173.61 80.9951C174.808 80.9951 175.907 81.6951 176.606 82.6951C177.206 83.8951 177.106 85.3951 176.407 86.6951C175.707 87.9951 174.609 88.8951 173.41 89.6951C171.136 91.311 168.551 92.4348 165.819 92.9951L167.916 87.9951C168.616 86.2951 169.415 84.5951 170.513 82.9951C171.013 82.1951 171.712 81.3951 172.711 81.0951L173.61 80.9951ZM155.431 82.3951C156.095 82.4012 156.747 82.5731 157.329 82.8951C158.327 83.4951 159.226 84.4951 159.826 85.4951C160.987 87.2209 161.802 89.1571 162.223 91.1951C162.523 93.1951 162.423 95.2951 161.424 97.1951L161.324 97.4951C160.725 95.4951 158.527 94.1951 156.829 92.7951C154.432 90.9951 152.434 88.3951 152.534 85.4951C152.534 84.4951 152.834 83.4951 153.533 82.8951C154.132 82.4951 154.732 82.3951 155.431 82.3951ZM204.874 87.7951C205.373 87.7951 205.773 88.1951 205.872 88.5951V89.8951C205.573 90.8951 205.273 92.0951 204.674 93.0951C203.675 94.8951 201.977 96.2951 200.379 97.5951L200.079 97.7951C200.479 94.4951 201.677 91.3951 203.675 88.5951C203.975 88.1951 204.374 87.7951 204.874 87.7951ZM213.264 88.1951H213.863C214.263 88.4951 214.463 88.8951 214.562 89.1951C214.562 90.1951 213.863 91.0951 212.964 91.5951C212.065 91.9951 210.967 92.1951 209.968 92.3951L206.971 93.4951C207.171 92.4951 207.97 91.6951 208.569 90.9951C209.768 89.6951 211.166 88.3951 213.064 88.1951H213.264ZM149.637 91.6951H150.037C151.435 91.8951 152.634 92.8951 153.633 93.9951C154.732 95.1951 155.83 96.5951 156.629 97.9951L157.828 102.195L159.726 110.795L159.426 110.995C158.567 108.449 156.878 106.266 154.632 104.795C152.234 103.095 149.038 102.095 147.44 99.7951C146.941 98.7951 146.641 97.8951 146.441 96.8951C146.142 95.8951 145.942 94.6951 146.441 93.5951C146.742 93.0095 147.201 92.5206 147.766 92.1845C148.332 91.8485 148.98 91.6788 149.637 91.6951ZM195.684 93.8951C196.383 93.8951 197.083 94.3951 197.382 94.9951C198.081 96.1951 197.882 97.6951 197.382 98.9951C196.783 100.195 195.884 101.295 194.985 102.295C194.221 103.19 193.551 104.162 192.987 105.195L193.587 97.1951C193.587 96.4951 193.687 95.6951 194.086 94.9951C194.386 94.3951 194.985 93.9951 195.584 93.8951H195.684ZM170.014 94.2951C170.314 94.2951 170.713 94.2951 171.013 94.4951C171.412 94.6951 171.712 94.9951 171.912 95.3951C173.21 97.3951 172.711 100.095 171.113 101.995C169.614 103.895 167.317 104.995 164.92 105.795C164.121 106.095 163.222 106.395 162.622 106.795V106.995H162.423C162.276 106.969 162.138 106.911 162.017 106.824C161.896 106.738 161.796 106.625 161.724 106.495C161.524 106.195 161.524 105.795 161.624 105.395C161.823 103.895 162.223 102.395 162.622 100.995C163.222 99.4951 163.921 97.9951 165.02 96.7951C165.647 96.0703 166.411 95.4765 167.268 95.0475C168.125 94.6186 169.058 94.3629 170.014 94.2951ZM210.767 95.0951H211.066C212.065 95.1951 213.064 95.6951 213.264 96.5951C213.464 97.5951 212.565 98.2951 211.666 98.6951C210.467 99.3951 209.069 99.6951 207.67 99.8951C205.573 100.295 203.375 100.595 201.178 100.795L200.778 100.295C202.343 98.871 204.09 97.6605 205.972 96.6951C207.471 95.8951 208.969 95.0951 210.767 95.0951ZM188.293 99.3951C188.592 99.3951 188.892 99.3951 189.092 99.5951C189.891 99.8951 190.49 100.595 190.69 101.395C190.89 102.195 190.89 102.995 190.69 103.795C190.69 105.495 190.29 107.195 189.491 108.795C187.993 111.395 184.797 113.195 184.297 116.095V115.895C184.697 113.395 184.198 110.895 183.898 108.495C183.698 105.995 183.898 103.395 185.296 101.295C185.696 100.695 186.195 100.095 186.894 99.7951C187.321 99.5488 187.801 99.4114 188.293 99.3951ZM201.777 103.195C202.676 103.195 203.575 103.695 203.775 104.495C203.775 105.295 203.176 106.095 202.476 106.595C200.472 108.129 198.008 108.94 195.484 108.895H195.085L193.287 108.995C193.886 107.895 194.885 107.095 195.984 106.395C197.735 105.251 199.535 104.183 201.378 103.195H201.777ZM145.143 104.095C146.142 104.095 147.14 104.395 148.039 104.795C151.236 106.195 153.533 108.895 155.331 111.795C155.83 112.595 156.33 113.495 156.729 114.495C158.128 117.895 157.928 121.695 157.628 125.295L156.829 124.695C155.47 122.425 153.496 120.587 151.136 119.395C150.137 118.895 148.938 118.495 147.939 117.895C147.14 117.395 146.341 116.795 145.642 116.095C144.643 115.295 143.744 114.395 143.045 113.295C142.03 111.754 141.508 109.94 141.547 108.095C141.547 106.895 141.846 105.595 142.845 104.795C143.545 104.295 144.344 104.095 145.143 104.095ZM178.904 104.095C179.303 104.095 179.703 104.395 180.002 104.695C181.501 105.995 181.601 108.195 181.501 110.095C181.501 112.295 181.401 114.495 180.901 116.595C180.402 118.695 179.603 120.695 178.005 122.395H177.905C178.204 119.695 176.906 116.995 176.307 114.395C175.508 111.195 175.607 107.795 177.505 105.095C177.805 104.595 178.204 104.095 178.804 104.095M192.987 105.095V105.595L192.688 105.695C192.688 105.495 192.887 105.395 192.987 105.195M166.518 108.595C167.916 108.595 169.315 109.195 170.114 110.195C170.613 110.995 170.713 111.995 170.813 112.895C171.412 112.895 172.012 113.195 172.511 113.595C173.51 114.395 174.209 115.595 174.609 116.895C175.208 119.095 175.208 121.295 175.108 123.595C174.908 126.295 174.609 129.095 173.51 131.595L171.512 135.395L170.613 138.295C169.614 141.695 168.915 148.495 168.616 148.495C168.116 148.495 168.815 141.395 169.614 137.895C170.114 135.795 170.613 133.595 170.613 131.495C170.214 132.195 169.614 132.795 169.015 133.495C167.48 134.866 165.806 136.072 164.021 137.095L163.821 136.895C164.221 135.895 163.821 134.795 163.322 133.795C162.722 132.095 162.323 130.395 162.123 128.595C162.023 127.395 161.923 126.095 162.323 124.895C162.489 124.254 162.788 123.656 163.201 123.139C163.614 122.622 164.132 122.198 164.72 121.895C165.445 121.578 166.226 121.408 167.017 121.395C166.621 120.44 166.385 119.427 166.318 118.395L165.319 118.895C163.821 119.595 162.622 120.595 161.624 121.795L161.124 121.295C161.324 119.895 161.124 118.495 160.924 116.995C160.725 115.395 160.825 113.695 161.524 112.095C161.868 111.284 162.387 110.559 163.043 109.971C163.699 109.384 164.476 108.948 165.319 108.695L166.518 108.595ZM193.187 111.895C193.786 111.895 194.386 111.895 194.885 112.295C195.35 112.628 195.71 113.088 195.922 113.62C196.135 114.151 196.191 114.733 196.084 115.295C195.946 115.894 195.689 116.46 195.328 116.958C194.968 117.456 194.512 117.877 193.986 118.195C192.987 118.795 191.689 119.195 190.49 119.495C188.432 119.993 186.313 120.196 184.198 120.095L184.897 119.095C185.896 117.095 187.394 115.095 189.192 113.595C189.991 112.995 190.79 112.395 191.789 112.095C192.288 111.895 192.788 111.895 193.187 111.895ZM184.797 122.095C186.495 122.095 188.193 123.295 188.493 124.795C188.598 125.4 188.563 126.022 188.39 126.612C188.217 127.201 187.91 127.743 187.494 128.195C186.595 129.195 185.496 129.795 184.297 130.395C181.8 131.595 179.004 132.395 176.107 132.695V131.995C177.605 129.095 179.103 126.095 181.501 123.795C182.14 123.124 182.927 122.61 183.798 122.295L184.797 122.095ZM148.838 122.595C149.338 122.595 149.837 122.795 150.337 122.995C153.133 123.995 155.331 126.295 156.929 128.695C157.528 129.495 158.128 130.495 158.527 131.395C158.927 132.295 159.126 133.195 159.326 133.995C160.725 138.995 167.717 148.295 166.917 148.295C165.919 147.995 163.721 144.595 162.223 142.695L159.226 139.395C156.829 137.195 153.933 135.395 151.435 133.395C149.038 131.295 146.841 128.495 146.741 125.395C146.741 124.395 146.941 123.295 147.939 122.795L148.838 122.595ZM218.258 129.495H218.758C219.157 130.495 200.279 139.495 195.085 143.995C189.092 149.295 184.497 155.795 178.904 161.495C178.204 162.195 177.405 162.995 176.506 163.495C175.907 163.795 175.208 163.995 174.509 163.995L173.51 163.795C172.211 163.295 171.512 161.995 171.412 160.795C171.312 159.595 171.712 158.395 172.111 157.195C175.546 151.094 180.329 145.86 186.095 141.895C188.892 139.695 191.789 137.695 194.885 135.895C198.481 133.695 215.162 129.495 218.258 129.495ZM128.362 136.495C130.759 136.495 133.656 136.695 135.354 137.395C140.829 139.279 145.957 142.049 150.536 145.595C154.293 148.46 157.802 151.638 161.024 155.095C162.622 156.695 164.321 158.595 164.021 160.795C163.821 161.295 163.621 161.795 163.222 162.095C162.849 162.376 162.389 162.518 161.923 162.495C161.324 162.495 160.525 162.295 159.926 161.995C157.428 160.695 155.431 158.595 153.533 156.595C149.438 152.295 144.943 148.195 140.348 144.295C137.851 142.295 135.354 140.395 132.657 138.895C129.86 137.295 123.468 137.595 123.568 137.095C123.568 136.795 125.765 136.495 128.362 136.495ZM177.505 60.6951C176.686 60.7022 175.884 60.9285 175.181 61.3505C174.479 61.7724 173.902 62.3748 173.51 63.0951C172.611 62.2951 171.512 61.8951 170.413 61.8951C169.614 61.8951 168.715 62.0951 168.016 62.4951C166.798 63.1533 165.845 64.2133 165.319 65.4951C164.52 67.4951 164.52 69.3951 164.72 71.0951C163.921 70.6951 163.122 70.5951 162.223 70.5951C160.525 70.5951 159.027 71.1951 157.928 72.3951C157.129 73.3951 156.23 75.1951 156.929 77.9951C156.929 78.5951 157.229 79.0951 157.428 79.6951C156.781 79.4988 156.108 79.3978 155.431 79.3951C154.032 79.3951 152.834 79.7951 151.835 80.4951C151.107 81.0848 150.522 81.8321 150.124 82.6808C149.726 83.5296 149.526 84.4576 149.538 85.3951C149.538 86.4951 149.538 87.6951 150.037 88.6951H149.637C148.389 88.6695 147.159 89.0049 146.096 89.6611C145.033 90.3174 144.182 91.2666 143.644 92.3951C143.001 94.0577 142.931 95.8879 143.445 97.5951C143.644 98.5951 144.044 99.8951 144.743 101.095C143.345 101.095 142.046 101.595 141.047 102.395C140.234 103.077 139.586 103.936 139.154 104.907C138.721 105.877 138.515 106.933 138.55 107.995C138.55 110.495 139.15 112.995 140.548 114.995C141.547 116.395 142.646 117.495 143.545 118.295C144.344 118.995 145.143 119.695 146.142 120.295C144.543 121.295 143.644 123.295 143.744 125.495C143.844 128.995 145.842 132.495 149.538 135.695L153.133 138.395C154.532 139.395 155.93 140.395 157.129 141.595C158.128 142.495 158.927 143.595 159.926 144.595L161.424 146.595C163.422 149.295 164.42 150.795 166.118 151.195L166.518 151.295H166.917L168.216 151.495H168.416C171.013 151.495 171.512 148.895 171.712 147.895L172.211 145.095L173.41 139.095C173.711 137.961 174.112 136.857 174.609 135.795L176.207 135.695C179.503 135.395 182.699 134.495 185.496 133.095C186.695 132.495 188.293 131.595 189.591 130.095C190.321 129.314 190.863 128.377 191.174 127.354C191.486 126.331 191.56 125.251 191.389 124.195L190.69 122.495H191.09C192.288 122.095 193.986 121.695 195.484 120.695C197.282 119.495 198.481 117.895 198.98 115.995C199.32 114.493 199.07 112.917 198.281 111.595C200.456 111.214 202.51 110.323 204.274 108.995C206.572 107.095 206.672 105.095 206.572 104.095C206.572 103.795 206.472 103.395 206.272 103.095C206.906 103.003 207.538 102.903 208.17 102.795C209.668 102.595 211.366 102.195 212.964 101.395C215.262 100.295 216.56 98.1951 216.161 96.0951C215.961 95.1951 215.561 94.3951 214.962 93.7951C216.66 92.5951 217.659 90.7951 217.359 88.7951C217.21 87.696 216.633 86.7006 215.753 86.0262C214.874 85.3517 213.763 85.053 212.665 85.1951C210.967 85.3951 209.468 86.0951 208.37 86.9951C208.042 86.3444 207.544 85.7956 206.927 85.4079C206.311 85.0202 205.601 84.8083 204.874 84.7951H204.774C203.775 84.7951 202.376 85.0951 201.078 86.7951C200.079 88.3951 199.08 90.0951 198.381 91.7951C197.528 91.1253 196.469 90.7719 195.385 90.7951C194.532 90.8714 193.715 91.1701 193.014 91.6614C192.313 92.1527 191.753 92.8194 191.389 93.5951C190.859 94.6543 190.553 95.8119 190.49 96.9951C189.781 96.6202 188.995 96.4148 188.193 96.3951C187.194 96.3951 186.195 96.6951 185.396 97.0951C184.397 97.6951 183.398 98.4951 182.699 99.5951C182.1 100.395 181.7 101.195 181.501 102.095C180.651 101.418 179.59 101.063 178.504 101.095C177.505 101.195 176.107 101.695 174.908 103.295C173.748 105.057 173.06 107.089 172.911 109.195C172.318 108.093 171.415 107.189 170.314 106.595C171.512 105.795 172.511 104.895 173.31 103.895C175.907 100.795 176.307 96.6951 174.309 93.6951L173.71 92.9951L175.108 92.0951C176.714 91.0589 178.05 89.6531 179.004 87.9951C179.608 86.9277 179.925 85.7219 179.925 84.4951C179.925 83.2683 179.608 82.0625 179.004 80.9951L178.005 79.7951C179.458 79.3277 180.837 78.6542 182.1 77.7951C183.105 77.1253 183.931 76.219 184.506 75.1556C185.081 74.0922 185.386 72.9041 185.396 71.6951C185.396 69.8951 184.397 68.3951 183.099 67.6951C182.599 67.3951 182.1 67.1951 181.501 67.0951L181.601 65.0951C181.601 62.7951 180.202 61.6951 179.403 61.2951C178.804 60.8951 178.105 60.6951 177.405 60.6951H177.505ZM165.519 139.695H165.719L166.318 139.295L166.019 140.795L165.419 139.795L165.519 139.695ZM218.258 126.495C214.762 126.495 197.382 130.895 193.287 133.295C190.59 134.895 187.793 136.795 184.297 139.495C178.07 143.815 172.939 149.534 169.315 156.195C168.815 157.595 168.316 159.195 168.316 160.995C168.38 162.212 168.79 163.386 169.498 164.378C170.206 165.37 171.182 166.139 172.311 166.595C173.11 166.795 173.81 166.995 174.509 166.995C175.707 166.995 176.806 166.695 177.905 166.095C179.203 165.395 180.202 164.495 181.101 163.595C183.398 161.195 185.596 158.695 187.693 156.195C190.69 152.595 193.687 149.195 197.083 146.195C199.68 143.995 206.771 140.195 211.965 137.195L217.958 133.895C219.956 132.695 222.753 130.995 221.454 128.195C221.055 127.595 220.256 126.495 218.258 126.495ZM128.362 133.495C124.866 133.495 120.771 133.495 120.571 136.795C120.571 137.095 120.371 139.795 123.667 140.295L125.665 140.495C127.163 140.595 130.06 140.895 131.159 141.495C133.756 142.995 136.153 144.795 138.45 146.695C142.945 150.395 147.34 154.495 151.435 158.695L151.735 159.095C153.633 161.095 155.73 163.195 158.627 164.695C159.426 164.995 160.625 165.495 161.923 165.495C163.084 165.511 164.214 165.122 165.12 164.395C166.06 163.644 166.699 162.579 166.917 161.395C167.617 157.395 164.52 154.395 163.122 152.895L162.123 151.995L161.124 150.995C158.427 148.395 155.631 145.595 152.334 143.195C147.462 139.526 142.078 136.594 136.353 134.495C133.856 133.595 130.36 133.495 128.362 133.495Z" fill="#976014"/>
<path d="M161.923 163.495C160.924 163.495 160.125 163.095 159.526 162.895C156.929 161.595 155.031 159.595 153.133 157.695L152.834 157.295C148.739 152.995 144.344 148.895 139.649 145.095C137.322 143.07 134.814 141.262 132.158 139.695C130.659 138.895 127.763 138.695 125.765 138.495C123.568 138.295 122.469 138.195 122.569 136.995C122.569 136.295 122.569 135.495 128.362 135.495C130.16 135.495 133.456 135.595 135.754 136.495C141.302 138.396 146.499 141.201 151.136 144.795C154.332 147.095 157.129 149.795 159.726 152.495L161.724 154.395C163.022 155.695 165.419 158.095 164.92 160.995C164.809 161.694 164.456 162.332 163.921 162.795C163.362 163.264 162.652 163.513 161.923 163.495Z" fill="url(#paint3_radial_64_214)"/>
<path d="M128.462 136.495C130.759 136.495 133.656 136.695 135.454 137.395C140.893 139.289 145.988 142.058 150.536 145.595C154.293 148.46 157.802 151.638 161.024 155.095C162.622 156.695 164.321 158.595 164.021 160.795C163.821 161.295 163.621 161.795 163.222 162.095C162.849 162.376 162.389 162.518 161.923 162.495C161.324 162.495 160.525 162.295 159.926 161.995C157.428 160.695 155.431 158.595 153.533 156.595C149.438 152.295 144.943 148.195 140.348 144.295C137.851 142.295 135.354 140.395 132.657 138.895C129.86 137.295 123.468 137.595 123.568 137.095C123.568 136.795 125.765 136.495 128.362 136.495M128.362 134.495C123.168 134.495 121.67 135.095 121.57 136.895C121.37 139.095 123.568 139.295 125.665 139.495C127.463 139.595 130.36 139.895 131.658 140.595C134.355 142.095 136.752 143.995 139.05 145.895C143.644 149.695 148.039 153.795 152.035 157.995L152.434 158.395C154.432 160.395 156.43 162.395 159.027 163.795C159.726 164.095 160.825 164.495 162.023 164.495C162.934 164.489 163.815 164.171 164.52 163.595C165.258 162.988 165.754 162.137 165.919 161.195C166.518 157.795 163.921 155.095 162.423 153.695L161.424 152.695L160.425 151.695C156.369 147.659 151.918 144.041 147.14 140.895C143.693 138.686 140.007 136.875 136.153 135.495C133.656 134.595 130.16 134.495 128.362 134.495Z" fill="#976014"/>
<path d="M174.509 164.995C173.462 164.928 172.473 164.487 171.722 163.754C170.971 163.02 170.507 162.041 170.413 160.995C170.314 159.495 170.713 158.095 171.213 156.895C171.412 156.195 171.812 155.295 172.311 154.595C175.408 149.095 180.502 144.795 185.496 141.095C188.992 138.495 191.689 136.595 194.386 135.095C198.181 132.695 215.162 128.495 218.258 128.495C218.558 128.495 219.257 128.495 219.657 129.095C220.256 130.295 219.457 130.795 210.967 135.495C205.373 138.495 198.481 142.395 195.784 144.695C192.188 147.795 189.092 151.395 186.095 154.895C184.098 157.395 181.9 159.895 179.603 162.195C178.904 162.995 178.005 163.795 177.006 164.295C176.207 164.695 175.308 164.995 174.509 164.995Z" fill="url(#paint4_radial_64_214)"/>
<path d="M218.258 129.495H218.758C219.157 130.495 200.279 139.495 195.085 143.995C189.092 149.295 184.497 155.795 178.904 161.495C178.204 162.195 177.405 162.995 176.506 163.495C175.907 163.795 175.208 163.995 174.509 163.995L173.51 163.795C172.211 163.295 171.512 161.995 171.412 160.795C171.312 159.595 171.712 158.395 172.111 157.195C175.546 151.094 180.329 145.86 186.095 141.895C188.892 139.695 191.789 137.695 194.885 135.895C198.481 133.695 215.162 129.495 218.258 129.495ZM218.258 127.495C214.862 127.495 197.882 131.795 193.886 134.195C191.189 135.795 188.393 137.595 184.897 140.195C178.84 144.424 173.847 150.004 170.314 156.495C169.714 157.895 169.315 159.395 169.315 160.995C169.514 163.095 170.913 164.995 172.711 165.595C173.31 165.795 173.909 165.995 174.509 165.995C175.508 165.995 176.506 165.695 177.505 165.195C178.604 164.595 179.503 163.695 180.302 162.895C182.699 160.595 184.797 157.995 186.894 155.595C189.891 152.095 192.887 148.595 196.383 145.495C199.08 143.195 205.872 139.495 211.366 136.395C213.863 135.095 215.961 133.895 217.359 132.995C219.557 131.795 221.454 130.595 220.555 128.695C220.256 128.095 219.557 127.495 218.258 127.495Z" fill="#976014"/>
<path d="M166.818 149.295H166.618C165.619 148.995 164.62 147.695 163.022 145.495L161.424 143.295C160.425 142.295 159.526 141.095 158.427 140.095C157.104 138.903 155.702 137.8 154.232 136.795L150.836 134.095C147.64 131.395 145.842 128.395 145.742 125.395C145.742 123.795 146.341 122.495 147.44 121.895C147.84 121.695 148.339 121.595 148.838 121.595C149.438 121.595 150.037 121.795 150.736 121.995C154.032 123.295 156.33 125.995 157.728 127.995L159.526 130.995L160.125 133.095L160.325 133.795C161.024 136.595 163.921 141.095 165.819 144.095C167.816 147.395 168.216 148.095 167.816 148.795L167.517 149.295H166.818Z" fill="url(#paint5_radial_64_214)"/>
<path d="M148.838 122.695C149.338 122.695 149.837 122.695 150.337 122.995C153.133 123.995 155.331 126.295 156.929 128.695C157.528 129.495 158.128 130.495 158.527 131.395C158.927 132.295 159.126 133.195 159.326 133.995C160.725 138.995 167.717 148.295 166.917 148.295C165.919 147.995 163.721 144.595 162.223 142.695L159.226 139.395C156.829 137.195 153.933 135.395 151.435 133.395C149.038 131.295 146.841 128.495 146.741 125.395C146.741 124.395 146.941 123.295 147.939 122.795L148.838 122.595M148.838 120.595C148.139 120.595 147.54 120.795 147.04 120.995C145.542 121.795 144.643 123.395 144.743 125.495C144.843 128.695 146.741 131.995 150.237 134.895C151.236 135.895 152.534 136.695 153.633 137.595C155.131 138.595 156.629 139.595 157.828 140.895C158.827 141.795 159.726 142.895 160.625 143.895L162.223 146.095C164.021 148.495 165.02 149.895 166.418 150.195L166.618 150.295H166.917C167.28 150.307 167.638 150.221 167.955 150.044C168.272 149.868 168.534 149.609 168.715 149.295C169.415 147.995 168.915 147.295 166.718 143.595C164.72 140.595 162.023 136.195 161.224 133.595L161.124 132.895L160.425 130.695C159.926 129.495 159.226 128.395 158.527 127.495C157.029 125.395 154.632 122.495 151.036 121.095C150.237 120.795 149.538 120.595 148.838 120.595Z" fill="#976014"/>
<path d="M156.13 125.395L156.03 125.195C154.732 123.195 152.834 121.495 150.636 120.295L149.438 119.795L147.44 118.795C146.543 118.214 145.706 117.544 144.943 116.795C144.144 116.095 143.045 115.095 142.246 113.895C141.088 112.15 140.495 110.09 140.548 107.995C140.548 106.295 141.147 104.895 142.246 103.995C143.045 103.395 144.044 102.995 145.143 102.995C146.441 102.995 147.64 103.495 148.439 103.795C151.691 105.426 154.373 108.006 156.13 111.195C156.829 112.295 157.329 113.195 157.628 114.095C159.226 117.795 158.827 121.795 158.627 125.395L158.427 127.295L156.13 125.295V125.395Z" fill="url(#paint6_radial_64_214)"/>
<path d="M145.143 104.095C146.142 104.095 147.14 104.395 148.039 104.795C151.236 106.195 153.533 108.895 155.331 111.795C155.83 112.595 156.33 113.495 156.729 114.495C158.128 117.895 157.928 121.695 157.628 125.295L156.829 124.695C155.47 122.425 153.496 120.587 151.136 119.395C150.137 118.895 148.938 118.495 147.939 117.895C147.14 117.395 146.341 116.795 145.642 116.095C144.643 115.295 143.744 114.395 143.045 113.295C142.03 111.754 141.508 109.94 141.547 108.095C141.547 106.895 141.846 105.595 142.845 104.795C143.545 104.295 144.344 104.095 145.143 104.095ZM145.143 102.095C143.744 102.095 142.546 102.495 141.647 103.195C140.248 104.195 139.549 105.895 139.549 107.995C139.549 110.295 140.148 112.595 141.447 114.495C142.246 115.695 143.445 116.795 144.244 117.495C145.043 118.295 145.942 118.995 146.941 119.695L149.038 120.695L150.237 121.195C152.234 122.195 154.032 123.895 155.131 125.695L155.331 125.995L155.631 126.295L156.33 126.895L159.326 129.195L159.626 125.495C159.926 121.795 160.225 117.595 158.627 113.695C158.228 112.695 157.628 111.795 157.029 110.695C155.154 107.322 152.297 104.602 148.838 102.895C147.939 102.495 146.641 102.095 145.143 102.095Z" fill="#976014"/>
<path d="M158.427 111.295C157.728 108.995 156.23 106.995 154.132 105.595L151.635 104.195C149.737 103.195 147.84 102.195 146.641 100.195C145.942 99.1951 145.642 98.0951 145.442 97.1951C145.017 95.8896 145.053 94.4777 145.542 93.1951C145.978 92.3787 146.65 91.7128 147.469 91.2847C148.289 90.8565 149.219 90.6858 150.137 90.7951C151.935 90.9951 153.333 92.1951 154.332 93.2951C155.83 94.7951 156.829 96.2951 157.428 97.6951C158.128 99.0951 158.427 100.595 158.727 101.995L160.725 111.095L158.927 112.795L158.427 111.295Z" fill="url(#paint7_radial_64_214)"/>
<path d="M149.637 91.6951H150.037C151.435 91.8951 152.634 92.8951 153.633 93.9951C154.732 95.1951 155.83 96.5951 156.629 97.9951L157.828 102.195L159.726 110.795L159.426 110.995C158.567 108.449 156.878 106.266 154.632 104.795C152.234 103.095 149.038 102.095 147.44 99.7951C146.941 98.7951 146.641 97.8951 146.441 96.8951C146.142 95.8951 145.942 94.6951 146.441 93.5951C146.742 93.0095 147.201 92.5206 147.766 92.1845C148.332 91.8485 148.98 91.6788 149.637 91.6951ZM149.637 89.6951C148.597 89.6854 147.576 89.9716 146.692 90.5204C145.807 91.0692 145.097 91.858 144.643 92.7951C144.06 94.262 143.99 95.8831 144.443 97.3951C144.643 98.3951 145.043 99.5951 145.742 100.795C147.14 102.795 149.338 103.995 151.236 105.095L153.533 106.395C155.416 107.623 156.826 109.457 157.528 111.595L158.327 114.595L160.725 112.595L161.024 112.295L161.923 111.495L161.624 110.295L160.225 104.095L159.726 101.795C159.461 100.219 159.026 98.6767 158.427 97.1951C157.628 95.6951 156.629 94.1951 155.031 92.5951C153.813 91.125 152.115 90.1332 150.237 89.7951C150.037 89.7831 149.837 89.7831 149.637 89.7951V89.6951Z" fill="#976014"/>
<path d="M160.325 97.695C159.926 96.395 158.627 95.395 157.129 94.295L156.13 93.595C153.133 91.295 151.435 88.295 151.535 85.495C151.535 83.995 152.035 82.795 153.034 82.095C153.633 81.595 154.432 81.395 155.431 81.395C156.234 81.4072 157.022 81.613 157.728 81.995C159.127 82.695 160.025 83.995 160.725 84.995C162.023 86.995 162.822 88.995 163.222 90.995C163.621 93.395 163.322 95.695 162.323 97.595L160.924 100.195L160.325 97.695Z" fill="url(#paint8_radial_64_214)"/>
<path d="M155.431 82.395C156.095 82.4011 156.747 82.573 157.329 82.895C158.327 83.495 159.226 84.495 159.826 85.495C160.987 87.2208 161.802 89.157 162.223 91.195C162.523 93.195 162.423 95.295 161.424 97.195L161.324 97.495C160.725 95.495 158.527 94.195 156.829 92.795C154.432 90.995 152.434 88.395 152.534 85.495C152.534 84.495 152.834 83.495 153.533 82.895C154.132 82.495 154.732 82.395 155.431 82.395ZM155.431 80.395C154.232 80.395 153.233 80.695 152.434 81.395C151.825 81.871 151.33 82.477 150.984 83.169C150.638 83.861 150.451 84.6215 150.437 85.395C150.437 88.595 152.234 91.795 155.631 94.395L156.53 95.095C157.828 96.095 159.126 96.995 159.326 97.995L160.625 102.795L163.022 98.495L163.222 98.095C164.321 95.895 164.62 93.395 164.221 90.795C163.821 88.795 162.922 86.595 161.524 84.395C160.723 83.0324 159.589 81.8967 158.228 81.095C157.329 80.595 156.33 80.395 155.431 80.395Z" fill="#976014"/>
<path d="M164.021 86.495C164.021 85.695 163.621 84.795 162.822 83.895L161.823 82.695C161.324 82.195 160.825 81.695 160.425 80.995C159.626 79.995 159.126 78.795 158.827 77.495C158.427 75.895 158.727 74.595 159.526 73.695C160.125 72.995 161.124 72.595 162.223 72.595C163.122 72.595 164.021 72.795 164.72 73.295C165.919 74.095 166.718 75.295 167.417 77.195C168.616 80.795 168.216 84.395 166.318 86.895L166.118 87.195L164.021 87.895V86.495Z" fill="url(#paint9_radial_64_214)"/>
<path d="M162.223 73.5951C162.922 73.5951 163.621 73.7951 164.221 74.0951C165.325 74.9392 166.101 76.141 166.418 77.4951C167.417 80.4951 167.417 83.7951 165.419 86.2951L165.02 86.4951C165.02 85.2951 164.42 84.1951 163.621 83.1951C162.822 82.1951 161.923 81.3951 161.224 80.3951C160.525 79.3951 160.025 78.3951 159.826 77.2951C159.526 76.2951 159.526 75.1951 160.225 74.2951C160.725 73.7951 161.424 73.5951 162.223 73.5951ZM162.223 71.5951C160.825 71.5951 159.526 72.0951 158.727 73.0951C158.028 73.8951 157.329 75.2951 157.828 77.6951C158.128 79.0951 158.827 80.3951 159.626 81.6951L161.124 83.3951L162.123 84.3951C162.722 85.2951 163.022 85.8951 163.022 86.3951V89.1951L165.619 88.3951L166.019 88.2951L166.718 88.0951L167.117 87.4951C169.115 84.6951 169.614 80.7951 168.316 76.7951C167.617 74.7951 166.618 73.2951 165.319 72.4951C164.32 71.8951 163.322 71.4951 162.323 71.4951L162.223 71.5951Z" fill="#976014"/>
<path d="M168.616 79.0952V78.6952C168.616 77.1952 168.116 75.7952 167.617 74.2952L167.217 72.9952C166.718 70.9952 166.218 68.5952 167.217 66.2952C167.523 65.4192 168.123 64.6768 168.915 64.1952C169.415 63.9952 169.914 63.7952 170.413 63.7952C171.113 63.7952 171.712 64.0952 172.111 64.3952C172.611 64.8952 172.911 65.3952 173.01 65.8952C173.61 67.8952 173.31 69.8952 172.911 71.8952C172.311 74.3952 171.612 76.8952 170.613 79.2952L169.814 81.2952L168.616 78.9952V79.0952Z" fill="url(#paint10_radial_64_214)"/>
<path d="M170.413 64.895C170.813 64.895 171.213 64.995 171.412 65.295C171.812 65.595 171.912 65.895 172.012 66.295C172.611 68.095 172.311 69.995 172.012 71.795C171.412 74.295 170.613 76.695 169.714 78.995L169.614 78.795C169.614 76.795 168.815 74.795 168.216 72.795C167.617 70.795 167.217 68.695 168.116 66.795C168.316 66.095 168.815 65.495 169.415 65.195C169.714 64.995 170.114 64.895 170.413 64.895ZM170.413 62.895C169.714 62.895 169.115 63.095 168.416 63.395C167.402 63.9775 166.624 64.8976 166.218 65.995C165.365 68.3877 165.365 71.0024 166.218 73.395L166.718 74.695C167.117 76.095 167.617 77.495 167.617 78.795V79.295L167.816 79.795L167.916 79.995L169.914 83.695L171.612 79.695C172.611 77.295 173.31 74.695 173.909 72.195C174.309 70.195 174.708 67.895 173.909 65.695C173.727 64.9715 173.347 64.3134 172.811 63.795C172.211 63.195 171.312 62.895 170.413 62.895Z" fill="#976014"/>
<path d="M173.61 71.0951C173.61 68.9951 174.009 66.9951 174.808 65.0951C175.007 64.4075 175.387 63.7859 175.907 63.2951C176.407 62.9951 176.906 62.6951 177.505 62.6951C177.905 62.6951 178.304 62.7951 178.504 62.9951C179.303 63.3951 179.703 64.1951 179.703 65.1951C179.818 66.7607 179.471 68.3257 178.704 69.6951C177.805 71.0951 176.506 72.1951 175.008 72.7951L173.81 73.2951L173.61 71.0951Z" fill="url(#paint11_radial_64_214)"/>
<path d="M177.505 63.6951C177.705 63.6951 177.905 63.6951 178.105 63.8951C178.604 64.0951 178.704 64.6951 178.704 65.2951C178.74 66.6313 178.394 67.9499 177.705 69.0951C177.029 70.3235 175.979 71.3043 174.708 71.8951L174.609 71.0951C174.609 69.0951 175.008 67.1951 175.707 65.3951C175.907 64.8951 176.107 64.3951 176.506 64.0951C176.806 63.8951 177.206 63.6951 177.505 63.6951ZM177.505 61.6951C176.706 61.6951 175.907 61.9951 175.308 62.5951C174.684 63.1358 174.203 63.823 173.909 64.5951C173.11 66.6951 172.611 68.7951 172.611 70.9951V71.9951L172.911 74.7951L175.408 73.7951C177.083 73.104 178.498 71.9 179.449 70.3553C180.4 68.8106 180.838 67.0044 180.702 65.1951C180.702 63.3951 179.703 62.4951 179.004 62.1951C178.604 61.8951 178.005 61.6951 177.505 61.6951Z" fill="#976014"/>
<path d="M162.722 137.195L162.922 136.595C163.122 135.995 162.822 135.195 162.523 134.295V134.095C161.823 132.395 161.324 130.495 161.124 128.695C161.024 127.595 160.924 126.095 161.324 124.595C161.54 123.817 161.919 123.093 162.436 122.472C162.952 121.852 163.595 121.348 164.32 120.995C165.12 120.595 166.118 120.395 167.317 120.395C167.916 120.395 168.516 120.395 169.215 120.695C170.913 121.195 172.211 122.895 172.711 125.395C172.911 126.495 172.911 127.395 172.811 128.395C172.611 130.395 171.512 132.395 169.814 134.095C168.227 135.577 166.486 136.885 164.62 137.995L163.921 138.395L162.722 137.195Z" fill="url(#paint12_radial_64_214)"/>
<path d="M167.417 121.395C167.916 121.395 168.416 121.395 168.915 121.595C170.613 122.095 171.412 123.895 171.712 125.595C171.812 126.495 171.912 127.295 171.812 128.195C171.49 130.194 170.505 132.026 169.015 133.395C167.485 134.801 165.811 136.041 164.021 137.095L163.821 136.895C164.221 135.895 163.821 134.895 163.322 133.795C162.722 132.095 162.323 130.395 162.123 128.595C162.023 127.395 161.923 126.095 162.323 124.895C162.489 124.254 162.788 123.656 163.201 123.139C163.614 122.622 164.132 122.198 164.72 121.895C165.57 121.529 166.492 121.358 167.417 121.395ZM167.417 119.395H167.317C165.919 119.395 164.82 119.695 163.821 120.095C162.995 120.521 162.266 121.114 161.681 121.837C161.097 122.56 160.669 123.397 160.425 124.295C159.926 125.995 160.025 127.595 160.125 128.795C160.425 130.795 160.825 132.595 161.524 134.495V134.595C161.823 135.195 162.023 135.995 161.923 136.295L161.524 137.495L162.523 138.395L162.722 138.595L163.821 139.595L165.12 138.795C166.917 137.695 168.815 136.395 170.413 134.795C172.411 132.795 173.61 130.695 173.81 128.495C173.909 127.495 173.81 126.495 173.61 125.195C173.11 122.295 171.612 120.395 169.514 119.695C168.835 119.489 168.127 119.388 167.417 119.395Z" fill="#976014"/>
<path d="M160.125 121.695V121.195C160.325 120.195 160.125 119.295 160.125 118.195L159.926 117.195C159.726 114.995 159.926 113.195 160.625 111.695C161.019 110.746 161.617 109.896 162.377 109.205C163.136 108.513 164.039 107.998 165.02 107.695L166.518 107.595C168.316 107.595 170.014 108.395 170.913 109.595C171.612 110.595 171.712 111.795 171.912 112.895L171.812 114.495C171.512 116.095 170.214 117.295 169.115 117.895C168.516 118.395 167.717 118.795 167.017 119.095L165.719 119.695C164.42 120.495 163.322 121.395 162.323 122.395L161.624 123.295L160.125 121.695Z" fill="url(#paint13_radial_64_214)"/>
<path d="M166.518 108.595C167.916 108.595 169.315 109.195 170.114 110.195C170.613 111.095 170.713 112.095 170.813 112.995V114.295C170.613 115.495 169.714 116.395 168.616 117.095C167.617 117.795 166.318 118.295 165.219 118.895C163.821 119.595 162.622 120.595 161.624 121.795L161.124 121.295C161.324 119.895 161.124 118.495 160.924 116.995C160.725 115.395 160.825 113.695 161.524 112.095C161.88 111.303 162.404 110.597 163.059 110.027C163.715 109.458 164.486 109.037 165.319 108.795C165.719 108.595 166.118 108.595 166.518 108.595ZM166.518 106.595C165.919 106.595 165.319 106.595 164.72 106.795C163.611 107.137 162.59 107.717 161.728 108.494C160.865 109.271 160.182 110.227 159.726 111.295C158.927 112.995 158.727 114.895 158.927 117.295L159.027 118.395C159.226 119.395 159.326 120.295 159.226 121.095L159.027 122.095L159.726 122.695L160.125 123.195L161.624 124.695L163.022 123.095C164.021 122.095 165.02 121.295 166.218 120.595L167.417 119.995L169.714 118.795C170.478 118.342 171.138 117.734 171.654 117.011C172.17 116.288 172.53 115.465 172.711 114.595C172.911 113.995 172.811 113.395 172.811 112.895C172.811 111.695 172.511 110.295 171.812 109.095C170.713 107.595 168.715 106.595 166.518 106.595Z" fill="#976014"/>
<path d="M162.423 107.995C162.095 107.973 161.777 107.87 161.498 107.696C161.22 107.521 160.988 107.28 160.825 106.995C160.525 106.295 160.625 105.595 160.625 105.195C160.825 103.695 161.224 102.195 161.723 100.695C162.423 98.6952 163.222 97.2952 164.32 96.0952C165.772 94.4432 167.82 93.436 170.014 93.2952C170.513 93.2952 171.013 93.3952 171.412 93.5952C171.912 93.8952 172.411 94.2952 172.711 94.7952C174.209 97.0952 173.909 100.295 171.912 102.595C170.123 104.601 167.802 106.058 165.219 106.795H164.92L164.121 107.195L164.32 107.395L163.022 107.895L162.423 107.995Z" fill="url(#paint14_radial_64_214)"/>
<path d="M170.014 94.2952C170.314 94.2952 170.713 94.2952 171.013 94.4952C171.412 94.6952 171.712 94.9952 171.912 95.3952C173.21 97.3952 172.711 100.095 171.113 101.995C169.614 103.895 167.317 104.995 164.92 105.795C164.121 106.095 163.222 106.395 162.622 106.795V106.995H162.423C162.276 106.969 162.138 106.911 162.017 106.824C161.896 106.738 161.796 106.625 161.723 106.495C161.524 106.195 161.524 105.795 161.624 105.395C161.823 103.895 162.223 102.395 162.622 100.995C163.222 99.4952 163.921 97.9952 165.02 96.7952C165.647 96.0704 166.411 95.4766 167.268 95.0476C168.125 94.6187 169.058 94.363 170.014 94.2952ZM170.014 92.2952H169.015C167.017 92.6952 165.02 93.7952 163.521 95.4952C162.423 96.7952 161.524 98.2952 160.825 100.395C160.325 101.895 159.826 103.395 159.626 105.095C159.626 105.495 159.426 106.395 159.926 107.395C160.167 107.856 160.525 108.245 160.963 108.526C161.4 108.806 161.904 108.968 162.423 108.995L163.422 108.895L165.919 107.895L165.719 107.695C168.427 106.885 170.851 105.325 172.711 103.195C174.908 100.495 175.308 96.8952 173.61 94.1952C173.11 93.5952 172.611 93.0952 171.912 92.6952C171.312 92.4952 170.713 92.2952 169.914 92.2952H170.014Z" fill="#976014"/>
<path d="M167.017 87.595C167.717 85.795 168.516 83.995 169.614 82.295C170.214 81.595 171.113 80.495 172.411 80.095L173.61 79.895C175.108 79.895 176.606 80.795 177.405 82.095C178.204 83.495 178.204 85.395 177.305 87.095C176.706 88.295 175.607 89.395 174.009 90.495C171.609 92.1688 168.888 93.3264 166.019 93.895L164.221 94.195L167.017 87.595Z" fill="url(#paint15_radial_64_214)"/>
<path d="M173.61 80.895C174.808 80.895 175.907 81.595 176.606 82.595C177.206 83.795 177.106 85.295 176.407 86.595C175.707 87.895 174.609 88.795 173.41 89.595C171.136 91.2109 168.551 92.3348 165.819 92.895L167.916 87.895C168.616 86.195 169.415 84.495 170.513 82.895C171.013 82.095 171.712 81.295 172.711 80.995L173.61 80.895ZM173.61 78.895C173.11 78.895 172.611 78.895 172.111 79.095C170.737 79.5914 169.573 80.5443 168.815 81.795C167.617 83.495 166.818 85.395 166.118 87.195L165.12 89.595L164.021 92.095L162.423 95.695L166.118 94.995C169.115 94.295 172.111 93.095 174.509 91.395C175.995 90.4365 177.229 89.1329 178.105 87.595C179.103 85.595 179.103 83.395 178.105 81.595C177.618 80.8103 176.943 80.1608 176.14 79.7064C175.337 79.252 174.432 79.0074 173.51 78.995L173.61 78.895Z" fill="#976014"/>
<path d="M172.411 78.595V77.995C172.411 76.295 173.21 74.695 174.609 73.595L175.607 72.895L176.606 72.395L178.105 70.895C178.504 70.395 178.904 69.895 179.603 69.495C180.059 69.2324 180.575 69.0944 181.101 69.095C181.501 69.095 181.9 69.195 182.2 69.395C182.999 69.795 183.498 70.695 183.498 71.695C183.498 73.295 182.599 74.995 181.001 76.095C179.703 77.095 178.105 77.695 176.706 78.095L173.51 79.295L172.411 78.595Z" fill="url(#paint16_radial_64_214)"/>
<path d="M181.101 70.095C181.301 70.095 181.501 70.095 181.7 70.295C182.3 70.595 182.499 71.195 182.499 71.795C182.499 73.195 181.601 74.495 180.502 75.295C179.303 76.295 177.805 76.695 176.407 77.295L173.71 78.295L173.41 77.995C173.41 76.695 174.009 75.295 175.208 74.395C175.807 73.995 176.506 73.695 177.106 73.195C177.805 72.795 178.304 72.195 178.804 71.495L180.102 70.395C180.403 70.2082 180.747 70.1047 181.101 70.095ZM181.101 68.095C180.403 68.0841 179.714 68.2564 179.103 68.595C178.304 69.095 177.705 69.695 177.305 70.195L175.907 71.595L175.208 72.095L174.009 72.795C173.189 73.4105 172.527 74.2116 172.075 75.1328C171.624 76.054 171.397 77.0691 171.412 78.095V79.095L172.211 79.695L172.511 79.895L173.41 80.495L174.409 80.095L177.106 79.095C178.504 78.595 180.202 77.995 181.601 76.895C183.498 75.595 184.597 73.695 184.497 71.695C184.497 70.295 183.798 69.095 182.699 68.495C182.2 68.295 181.7 68.095 181.101 68.095Z" fill="#976014"/>
<path d="M175.208 131.695V131.595C176.606 128.895 178.204 125.595 180.801 123.095C181.401 122.495 182.3 121.695 183.498 121.295L184.797 121.095C187.094 121.095 189.092 122.695 189.491 124.595C189.625 125.363 189.577 126.153 189.352 126.899C189.126 127.646 188.729 128.329 188.193 128.895C187.194 129.995 185.696 130.895 184.797 131.295C182.104 132.613 179.192 133.426 176.207 133.695H174.908L175.208 131.695Z" fill="url(#paint17_radial_64_214)"/>
<path d="M184.797 122.095C186.495 122.095 188.193 123.295 188.493 124.795C188.598 125.4 188.563 126.022 188.39 126.612C188.217 127.201 187.91 127.743 187.494 128.195C186.595 129.195 185.496 129.795 184.297 130.395C181.8 131.595 179.004 132.395 176.107 132.695V131.995C177.605 129.095 179.103 126.095 181.501 123.795C182.14 123.124 182.927 122.611 183.798 122.295L184.797 122.095ZM184.797 120.095L183.199 120.395C182.025 120.811 180.965 121.496 180.102 122.395C177.405 124.995 175.707 128.395 174.409 131.095L174.309 131.395V131.695L174.109 132.295L173.71 134.895L176.207 134.695C179.303 134.395 182.4 133.495 185.196 132.195C186.195 131.695 187.793 130.795 188.992 129.495C189.602 128.828 190.053 128.033 190.313 127.167C190.572 126.301 190.633 125.388 190.49 124.495C189.991 121.995 187.494 120.095 184.797 120.095Z" fill="#976014"/>
<path d="M176.906 122.295C177.106 120.495 176.506 118.695 175.907 116.795L175.308 114.595C174.309 110.595 174.808 107.095 176.706 104.495C176.906 104.195 177.605 103.195 178.704 103.095H178.904C179.503 103.095 180.102 103.395 180.702 103.895C182.499 105.495 182.599 107.995 182.499 110.195C182.499 112.295 182.4 114.595 181.9 116.795C181.465 119.14 180.394 121.319 178.804 123.095L178.604 123.295L176.806 123.695L176.906 122.295Z" fill="url(#paint18_radial_64_214)"/>
<path d="M178.904 104.095C179.303 104.095 179.703 104.395 180.002 104.695C181.501 105.995 181.601 108.195 181.501 110.095C181.501 112.295 181.401 114.495 180.901 116.595C180.402 118.695 179.603 120.695 178.005 122.395H177.905C178.204 119.695 176.906 116.995 176.307 114.395C175.508 111.195 175.607 107.795 177.505 105.095C177.805 104.595 178.204 104.095 178.804 104.095M178.804 102.095H178.604C177.605 102.195 176.606 102.795 175.807 103.895C173.81 106.795 173.31 110.595 174.409 114.895L175.008 117.095C175.607 118.895 176.007 120.595 176.007 122.195L175.607 125.095L178.404 124.295H178.604L179.103 124.095L179.503 123.695C181.224 121.813 182.398 119.496 182.899 116.995C183.398 114.695 183.498 112.395 183.498 110.195C183.498 108.495 183.698 105.195 181.301 103.195C180.602 102.495 179.703 102.195 178.904 102.195L178.804 102.095Z" fill="#976014"/>
<path d="M183.398 115.995V115.695C183.598 113.995 183.398 112.295 183.199 110.495L182.899 108.495C182.5 105.8 183.028 103.049 184.397 100.695C184.997 99.895 185.696 99.295 186.395 98.895C186.976 98.573 187.628 98.4011 188.293 98.395L189.491 98.695C190.49 98.995 191.289 99.995 191.689 101.095C191.889 102.095 191.889 103.095 191.689 103.895C191.689 105.595 191.289 107.495 190.29 109.195C189.691 110.395 188.792 111.295 187.893 112.195C186.695 113.595 185.596 114.795 185.296 116.295L183.299 115.995H183.398Z" fill="url(#paint19_radial_64_214)"/>
<path d="M188.293 99.395C188.592 99.395 188.892 99.395 189.092 99.595C189.891 99.895 190.49 100.595 190.69 101.395C190.89 102.195 190.89 102.995 190.69 103.795C190.69 105.495 190.29 107.195 189.491 108.795C187.993 111.395 184.797 113.195 184.297 116.095V115.895C184.697 113.395 184.198 110.895 183.898 108.495C183.698 105.995 183.898 103.395 185.296 101.295C185.696 100.695 186.195 100.095 186.894 99.795C187.321 99.5487 187.801 99.4114 188.293 99.395ZM188.293 97.395C187.49 97.4072 186.702 97.613 185.995 97.995C184.997 98.495 184.297 99.195 183.598 100.195C181.7 102.995 181.7 106.395 182 108.695C182 109.295 182 109.995 182.2 110.695C182.4 112.395 182.599 113.995 182.4 115.595V115.895L186.295 116.495C186.495 115.295 187.494 114.095 188.692 112.895C189.591 111.895 190.49 110.895 191.189 109.695C192.188 107.795 192.588 105.695 192.788 103.995C192.788 102.995 192.887 101.995 192.588 100.895C192.406 100.179 192.057 99.5163 191.572 98.9603C191.086 98.4043 190.476 97.9708 189.791 97.695L188.293 97.395Z" fill="#976014"/>
<path d="M191.789 105.295L191.988 104.795L194.386 100.495L193.886 105.595V106.095L190.49 108.295L191.789 105.295Z" fill="url(#paint20_radial_64_214)"/>
<path d="M192.987 105.195V105.595L192.688 105.695C192.688 105.495 192.887 105.395 192.987 105.195ZM195.784 95.7952L191.189 104.195V104.295L190.79 104.895L188.293 110.895L193.786 107.395L193.986 107.295L194.885 106.695V105.695V105.395L195.884 95.7952H195.784Z" fill="#976014"/>
<path d="M192.088 109.095L192.388 108.495C193.137 107.273 194.164 106.245 195.385 105.495L199.28 103.095C199.779 102.695 200.479 102.295 201.278 102.195H201.777C203.275 102.195 204.474 103.195 204.774 104.395C204.774 105.095 204.574 106.195 203.076 107.395C200.898 109.059 198.224 109.94 195.484 109.895H195.085L193.487 109.995L192.887 110.095L192.088 109.095Z" fill="url(#paint21_radial_64_214)"/>
<path d="M201.777 103.195C202.676 103.195 203.575 103.695 203.775 104.495C203.775 105.295 203.176 106.095 202.476 106.595C200.472 108.129 198.007 108.94 195.484 108.895H195.085L193.287 108.995C193.886 107.895 194.885 107.095 195.984 106.395C197.735 105.251 199.535 104.183 201.378 103.195H201.777ZM201.777 101.195H201.078C200.079 101.395 199.38 101.795 198.681 102.195L194.885 104.695C193.505 105.507 192.341 106.639 191.489 107.995L190.89 109.095L191.689 110.095V110.195L192.488 111.195L193.687 110.995L195.085 110.895H196.184C198.881 110.795 201.577 109.895 203.675 108.195C205.673 106.695 205.872 105.195 205.673 104.195C205.473 102.495 203.675 101.195 201.677 101.195H201.777Z" fill="#976014"/>
<path d="M168.416 149.495H168.016L167.717 148.995C166.917 147.995 168.216 139.595 168.715 137.595C169.757 134.357 169.861 130.89 169.015 127.595C168.715 126.495 168.016 125.495 167.517 124.395C166.618 122.895 165.719 121.395 165.519 119.595C165.12 117.995 165.319 116.295 165.919 114.795C166.293 113.765 166.995 112.887 167.916 112.295C168.616 111.995 169.315 111.795 170.014 111.795C171.113 111.795 172.211 112.195 173.01 112.795C174.209 113.595 175.008 114.895 175.607 116.595C176.307 118.995 176.207 121.495 176.107 123.595C176.021 127.192 175.098 130.719 173.41 133.895L172.411 135.795L171.612 138.495C171.113 140.195 170.713 142.695 170.413 144.795C169.714 148.995 169.614 149.495 168.516 149.495H168.416Z" fill="url(#paint22_radial_64_214)"/>
<path d="M170.014 112.695C170.913 112.695 171.812 113.095 172.511 113.595C173.51 114.395 174.209 115.595 174.609 116.895C175.208 119.095 175.208 121.295 175.108 123.595C174.908 126.295 174.609 129.095 173.51 131.595L171.512 135.395L170.613 138.295C169.614 141.695 168.915 148.495 168.616 148.495C168.116 148.495 168.815 141.395 169.614 137.895C170.413 134.395 171.213 130.595 170.014 127.195C169.015 124.495 167.017 122.195 166.418 119.395C166.118 117.995 166.318 116.495 166.918 115.195C167.217 114.371 167.778 113.668 168.516 113.195C168.915 112.895 169.515 112.795 170.014 112.795M170.014 110.795C169.115 110.795 168.216 110.995 167.517 111.395C166.374 112.088 165.495 113.144 165.02 114.395C164.321 116.095 164.021 117.995 164.42 119.795C164.82 121.795 165.719 123.295 166.618 124.895L168.116 127.895C169.115 130.895 168.416 134.195 167.717 137.395C167.317 138.995 166.918 141.495 166.718 144.095C166.218 148.695 166.518 149.095 166.918 149.595L167.417 150.395H168.316L168.416 150.495H168.516C170.314 150.495 170.613 148.795 170.913 147.795L171.312 144.895L172.511 138.895V138.795C173.074 136.549 174.02 134.418 175.308 132.495C176.455 129.701 177.065 126.715 177.106 123.695C177.206 121.295 177.305 118.695 176.506 116.295C175.907 114.395 175.008 112.995 173.71 111.995C172.711 111.195 171.312 110.795 170.014 110.795Z" fill="#976014"/>
<path d="M199.38 100.295L200.079 99.595C201.677 98.095 203.675 96.895 205.473 95.895C207.168 94.7804 209.139 94.1574 211.166 94.095C212.565 94.195 214.063 94.995 214.263 96.395C214.462 97.695 213.663 98.895 212.165 99.595C210.767 100.295 209.269 100.595 207.87 100.895L201.278 101.795H200.778L199.48 100.295H199.38Z" fill="url(#paint23_radial_64_214)"/>
<path d="M210.767 95.095H211.066C212.065 95.195 213.064 95.695 213.264 96.595C213.464 97.595 212.565 98.295 211.666 98.695C210.467 99.395 209.069 99.695 207.67 99.895C205.573 100.295 203.375 100.595 201.178 100.795L200.778 100.295C202.343 98.8709 204.09 97.6604 205.972 96.695C207.471 95.895 208.969 95.095 210.767 95.095ZM210.767 93.095C208.569 93.095 206.572 94.095 204.973 94.995C203.076 95.995 201.078 97.295 199.38 98.895L198.081 100.195L199.28 101.595L199.58 101.995L200.279 102.895L201.278 102.795L208.07 101.795C209.468 101.595 211.066 101.295 212.565 100.495C214.562 99.495 215.561 97.995 215.262 96.295C214.962 94.295 212.964 93.295 211.266 93.095H210.767Z" fill="#976014"/>
<path d="M199.08 97.6952C199.48 94.1952 200.778 90.8952 202.876 88.0952C203.076 87.6952 203.775 86.7952 204.874 86.7952C205.872 86.7952 206.572 87.4952 206.871 88.2952C206.971 88.9952 206.871 89.6952 206.771 90.0952C206.472 91.1952 206.172 92.4952 205.573 93.5952C204.574 95.5952 202.576 97.0952 200.978 98.3952L198.881 99.8952L199.08 97.6952Z" fill="url(#paint24_radial_64_214)"/>
<path d="M204.874 87.6952C205.373 87.7952 205.773 88.1952 205.872 88.6952V89.8952C205.573 90.8952 205.273 92.0952 204.674 93.0952C203.675 94.8952 201.977 96.2952 200.379 97.5952L200.079 97.7952C200.479 94.4952 201.677 91.3952 203.675 88.5952C203.975 88.1952 204.374 87.7952 204.874 87.7952M204.874 85.7952C203.875 85.7952 202.876 86.3952 202.077 87.4952C199.879 90.4952 198.481 93.9952 198.081 97.4952L197.582 102.095L201.278 99.3952L201.577 99.1952C203.275 97.7952 205.273 96.1952 206.472 94.0952C207.171 92.7952 207.471 91.4952 207.77 90.2952C207.77 89.7952 207.97 88.9952 207.77 88.0952C207.618 87.459 207.263 86.8899 206.758 86.4747C206.253 86.0595 205.626 85.8209 204.973 85.7952H204.874Z" fill="#976014"/>
<path d="M207.87 93.9952V93.8952L205.872 93.4952L206.072 92.7952L208.37 91.7952L207.87 93.7952V93.9952Z" fill="url(#paint25_radial_64_214)"/>
<path d="M209.968 89.7952L206.172 91.7952L205.173 92.0952L204.974 93.1952V93.3952L208.969 93.9952L208.769 94.2952L208.869 94.0952L210.068 89.7952H209.968Z" fill="#976014"/>
<path d="M192.588 97.195C192.588 96.395 192.788 95.395 193.187 94.495C193.42 94.0481 193.762 93.6673 194.181 93.3876C194.6 93.108 195.083 92.9386 195.584 92.895H195.684C196.883 92.895 197.782 93.695 198.281 94.495C198.98 95.895 198.98 97.595 198.281 99.295C197.638 100.646 196.796 101.893 195.784 102.995C194.985 103.895 194.286 104.695 193.786 105.695L191.589 109.895L192.588 97.195Z" fill="url(#paint26_radial_64_214)"/>
<path d="M195.684 93.895C196.383 93.895 197.083 94.395 197.382 94.995C198.081 96.195 197.882 97.695 197.382 98.995C196.783 100.195 195.884 101.295 194.985 102.295C194.221 103.19 193.551 104.162 192.987 105.195L193.587 97.195C193.587 96.495 193.687 95.695 194.086 94.995C194.386 94.395 194.985 93.995 195.584 93.895H195.684ZM195.684 91.895H195.484C194.186 91.895 192.987 92.795 192.288 94.095C191.789 95.095 191.689 96.195 191.589 97.095L191.389 99.795L190.99 104.995L190.191 114.595L194.685 106.095L196.583 103.595C197.482 102.595 198.581 101.295 199.18 99.695C200.079 97.695 199.979 95.695 199.18 93.995C198.839 93.363 198.335 92.8345 197.72 92.465C197.105 92.0955 196.402 91.8986 195.684 91.895Z" fill="#976014"/>
<path d="M185.396 121.095H184.098L182.4 120.895L183.998 118.595C185.096 116.495 186.695 114.495 188.592 112.895C189.292 112.295 190.29 111.495 191.589 111.095C192.088 110.895 192.588 110.895 193.187 110.895C193.986 110.895 194.785 111.095 195.385 111.395C196.059 111.841 196.582 112.481 196.885 113.231C197.188 113.981 197.257 114.805 197.083 115.595C196.701 117.028 195.767 118.251 194.486 118.995C193.287 119.795 191.789 120.195 190.69 120.495C188.892 120.895 187.094 121.095 185.496 121.095H185.396Z" fill="url(#paint27_radial_64_214)"/>
<path d="M193.187 111.895C193.786 111.895 194.386 111.895 194.885 112.295C195.35 112.628 195.71 113.088 195.922 113.62C196.135 114.151 196.191 114.733 196.084 115.295C195.946 115.894 195.689 116.46 195.328 116.958C194.968 117.456 194.512 117.877 193.986 118.195C192.987 118.795 191.689 119.195 190.49 119.495C188.432 119.993 186.313 120.196 184.198 120.095L184.897 119.095C185.896 117.095 187.394 115.095 189.192 113.595C189.991 112.995 190.79 112.395 191.789 112.095C192.288 111.895 192.788 111.895 193.187 111.895ZM193.187 109.895C192.488 109.895 191.889 109.895 191.189 110.195C189.967 110.631 188.845 111.312 187.893 112.195C185.896 113.795 184.297 115.795 183.199 118.095L182.599 118.895L180.502 121.795L184.098 121.995C186.379 122.178 188.675 121.976 190.89 121.395C192.088 121.195 193.687 120.695 195.085 119.895C196.683 118.895 197.682 117.395 198.081 115.895C198.303 114.893 198.211 113.846 197.818 112.898C197.425 111.95 196.749 111.146 195.884 110.595C195.085 110.095 194.186 109.895 193.187 109.895Z" fill="#976014"/>
<path d="M205.972 93.2951C206.272 92.0951 207.071 91.0951 207.87 90.2951C209.169 88.8951 210.867 87.2951 212.864 87.1951H213.264C213.663 87.1951 213.963 87.1951 214.263 87.3951C214.962 87.6951 215.461 88.3951 215.561 89.0951C215.661 90.3951 214.862 91.6951 213.464 92.4951C212.665 92.8951 211.766 93.0951 210.967 93.1951L210.267 93.3951C209.269 93.5951 208.27 93.9951 207.371 94.3951L205.373 95.3951L205.972 93.2951Z" fill="url(#paint28_radial_64_214)"/>
<path d="M213.364 88.1951H213.863C214.263 88.4951 214.463 88.8951 214.562 89.1951C214.562 90.1951 213.863 91.0951 212.964 91.5951C212.065 91.9951 210.967 92.1951 209.968 92.3951L206.971 93.4951C207.171 92.4951 207.97 91.6951 208.569 90.9951C209.768 89.6951 211.166 88.3951 213.064 88.1951H213.264M213.264 86.1951C213.131 86.1898 212.998 86.1898 212.864 86.1951C210.367 86.3951 208.469 88.1951 207.171 89.5951C206.196 90.5325 205.474 91.7024 205.073 92.9951L203.975 97.1951L207.87 95.2951C208.698 94.8696 209.568 94.5343 210.467 94.2951H211.166C211.965 93.9951 212.964 93.7951 213.863 93.2951C215.661 92.3951 216.76 90.6951 216.56 88.9951C216.492 88.4216 216.271 87.8771 215.919 87.4193C215.568 86.9616 215.099 86.6077 214.562 86.3951L213.264 86.1951Z" fill="#976014"/>
<path d="M149.538 105.495C151.835 106.995 156.23 111.495 154.032 113.995C151.835 116.595 147.44 113.495 145.842 112.395C142.646 110.295 140.448 106.595 142.845 104.595C145.342 102.595 147.34 104.095 149.538 105.595V105.495ZM148.539 98.1949C149.837 99.3949 152.734 100.695 154.332 99.1949C157.029 96.4949 150.636 90.1949 148.039 92.1949C145.442 94.1949 146.741 96.3949 148.539 98.1949ZM153.733 82.8949C155.431 81.2949 158.228 82.6949 159.326 84.8949C160.125 86.2949 160.924 88.9949 159.326 90.4949C157.528 91.8949 154.831 89.4949 153.933 87.8949C153.034 86.2949 152.035 84.4949 153.733 82.8949ZM165.02 79.0949C163.521 80.3949 161.424 79.5949 160.525 77.8949C159.726 76.2949 159.826 74.3949 161.624 73.7949C164.62 72.7949 166.918 77.2949 165.02 79.0949ZM171.612 70.1949C172.511 69.1949 172.711 64.3949 170.413 64.9949C165.619 66.2949 168.915 73.1949 171.612 70.1949ZM177.106 68.6949C178.105 68.3949 178.804 66.3949 178.704 65.4949C178.604 64.4949 177.705 63.0949 176.506 64.1949C175.208 65.1949 174.409 69.7949 177.106 68.6949ZM181.8 70.3949C180.202 69.4949 177.106 72.5949 178.204 75.0949C178.904 76.7949 183.398 71.2949 181.8 70.3949ZM174.808 87.0949C173.31 88.7949 170.813 90.0949 169.315 88.6949C167.617 87.0949 169.614 83.6949 170.913 82.1949C171.912 80.7949 174.908 79.8949 175.907 82.3949C176.706 84.3949 175.907 85.8949 174.908 87.0949H174.808ZM169.514 94.2949C165.919 93.8949 161.124 101.795 166.718 103.095C168.915 103.595 170.913 101.995 171.712 99.8949C172.211 98.8949 173.21 94.6949 169.514 94.2949ZM169.015 110.795C169.614 110.095 167.417 108.995 166.518 108.995C165.12 108.795 163.222 109.695 162.523 110.895C161.324 113.195 162.123 115.495 164.42 116.895C164.92 115.295 164.92 114.395 165.719 113.195C166.618 111.895 167.717 111.295 169.015 110.795ZM165.02 121.795C161.624 123.495 161.224 131.595 166.518 131.195C171.412 130.695 165.419 124.095 165.02 121.795ZM147.44 123.495C150.736 119.295 157.329 128.295 154.432 130.395C151.635 132.395 145.942 125.395 147.44 123.395V123.495ZM166.718 115.595C166.944 114.798 167.411 114.092 168.055 113.572C168.699 113.053 169.488 112.746 170.314 112.695C171.912 112.695 172.611 113.195 173.31 114.495C174.509 116.795 174.309 120.995 171.812 122.395C168.216 124.195 166.019 117.695 166.718 115.595ZM176.407 107.895C176.906 106.395 177.605 104.395 179.103 104.395C180.102 104.395 181.001 106.295 181.101 107.195C181.7 108.995 181.101 111.195 180.002 112.595C178.304 114.595 176.706 113.695 176.207 111.495C175.907 109.895 176.007 109.495 176.407 107.895ZM186.994 99.7949C183.998 100.795 182.499 108.195 186.395 108.295C188.493 108.295 189.791 105.295 189.991 103.395C190.191 101.995 189.491 98.1949 187.394 100.095C187.394 100.295 187.194 100.095 187.394 100.095C187.394 100.095 189.791 98.8949 186.994 99.7949ZM195.385 93.7949C198.181 93.9949 198.181 99.3949 195.584 99.7949C192.488 100.395 193.587 93.7949 195.484 93.7949H195.385ZM203.076 93.0949C204.174 92.8949 205.273 91.0949 205.573 90.1949C205.673 89.6949 205.872 86.7949 204.274 88.0949C202.576 89.2949 200.678 93.4949 203.076 93.0949ZM212.864 88.2949C210.867 88.2949 208.07 91.0949 210.867 91.5949C211.459 91.6721 212.06 91.5706 212.594 91.3033C213.128 91.0361 213.57 90.6153 213.863 90.0949C214.263 89.1949 214.862 88.1949 212.864 88.2949ZM212.165 95.2949C213.863 96.2949 212.465 97.7949 211.366 98.3949C210.367 98.9949 207.97 99.4949 206.871 98.9949C203.375 97.5949 209.868 93.9949 212.165 95.2949ZM202.876 103.395C201.478 102.395 197.382 104.795 197.382 106.695C197.382 107.895 200.379 107.595 201.178 107.095C201.777 106.795 204.674 104.595 202.876 103.395ZM193.986 112.195C196.783 112.495 195.085 116.395 193.986 117.395C192.288 118.695 189.691 119.595 188.093 118.095C186.795 116.795 187.693 114.695 189.092 113.495C190.59 112.495 191.289 111.995 194.086 112.195H193.986ZM187.594 124.095C188.992 128.395 179.503 133.195 179.503 127.595C179.503 125.595 181.8 122.795 183.898 122.495C185.696 122.195 187.094 122.495 187.594 124.095ZM123.568 137.095C125.166 135.895 133.157 136.495 136.153 137.595C142.026 139.881 147.516 143.051 152.434 146.995C156.43 150.195 167.117 159.795 162.423 160.395C141.347 138.495 132.557 137.595 129.261 137.095C126.964 136.695 123.068 137.495 123.568 137.095ZM218.658 129.695C207.756 132.445 197.637 137.681 189.092 144.995C186.395 147.595 174.109 159.695 174.209 161.595C178.304 167.695 187.094 148.095 199.08 140.895C202.177 138.995 218.458 130.395 218.658 129.795V129.695Z" fill="#EACE59"/>
</g>
<defs>
<radialGradient id="paint0_radial_64_214" cx="0" cy="0" r="1" gradientUnits="userSpaceOnUse" gradientTransform="translate(173.41 200.695) scale(186.884 187.1)">
<stop stop-color="#FFC640"/>
<stop offset="0.2" stop-color="#FCC337"/>
<stop offset="0.6" stop-color="#F2B91F"/>
<stop offset="1" stop-color="#E6AD00"/>
</radialGradient>
<linearGradient id="paint1_linear_64_214" x1="173.41" y1="400.695" x2="173.41" y2="0.695072" gradientUnits="userSpaceOnUse">
<stop stop-color="#FFEE99"/>
<stop offset="0.1" stop-color="#FFE482"/>
<stop offset="0.2" stop-color="#FFD765"/>
<stop offset="0.3" stop-color="#FFCD51"/>
<stop offset="0.4" stop-color="#FFC844"/>
<stop offset="0.5" stop-color="#FFC640"/>
<stop offset="0.7" stop-color="#966502"/>
</linearGradient>
<linearGradient id="paint2_linear_64_214" x1="173.41" y1="0.695069" x2="173.41" y2="400.695" gradientUnits="userSpaceOnUse">
<stop stop-color="#FFEE99"/>
<stop offset="0.1" stop-color="#FFE482"/>
<stop offset="0.2" stop-color="#FFD765"/>
<stop offset="0.3" stop-color="#FFCD51"/>
<stop offset="0.4" stop-color="#FFC844"/>
<stop offset="0.5" stop-color="#FFC640"/>
<stop offset="0.7" stop-color="#966502"/>
<stop offset="1" stop-color="#FFC640"/>
</linearGradient>
<radialGradient id="paint3_radial_64_214" cx="0" cy="0" r="1" gradientUnits="userSpaceOnUse" gradientTransform="translate(143.744 149.495) scale(17.9792 18)">
<stop stop-color="#F2C024"/>
<stop offset="1" stop-color="#F2C024"/>
</radialGradient>
<radialGradient id="paint4_radial_64_214" cx="0" cy="0" r="1" gradientUnits="userSpaceOnUse" gradientTransform="translate(195.085 146.695) scale(21.6749 21.7)">
<stop stop-color="#F2C024"/>
<stop offset="1" stop-color="#F2C024"/>
</radialGradient>
<radialGradient id="paint5_radial_64_214" cx="0" cy="0" r="1" gradientUnits="userSpaceOnUse" gradientTransform="translate(156.829 135.495) scale(12.5854 12.6)">
<stop stop-color="#F2C024"/>
<stop offset="1" stop-color="#F2C024"/>
</radialGradient>
<radialGradient id="paint6_radial_64_214" cx="0" cy="0" r="1" gradientUnits="userSpaceOnUse" gradientTransform="translate(149.637 115.195) scale(10.6876 10.7)">
<stop stop-color="#F2C024"/>
<stop offset="1" stop-color="#F2C024"/>
</radialGradient>
<radialGradient id="paint7_radial_64_214" cx="0" cy="0" r="1" gradientUnits="userSpaceOnUse" gradientTransform="translate(152.934 101.795) scale(9.58891 9.6)">
<stop stop-color="#F2C024"/>
<stop offset="1" stop-color="#F2C024"/>
</radialGradient>
<radialGradient id="paint8_radial_64_214" cx="0" cy="0" r="1" gradientUnits="userSpaceOnUse" gradientTransform="translate(157.428 90.795) scale(7.89087 7.9)">
<stop stop-color="#F2C024"/>
<stop offset="1" stop-color="#F2C024"/>
</radialGradient>
<radialGradient id="paint9_radial_64_214" cx="0" cy="0" r="1" gradientUnits="userSpaceOnUse" gradientTransform="translate(163.322 80.195) scale(6.29273 6.3)">
<stop stop-color="#F2C024"/>
<stop offset="1" stop-color="#F2C024"/>
</radialGradient>
<radialGradient id="paint10_radial_64_214" cx="0" cy="0" r="1" gradientUnits="userSpaceOnUse" gradientTransform="translate(170.014 72.5952) scale(6.59238 6.6)">
<stop stop-color="#F2C024"/>
<stop offset="1" stop-color="#F2C024"/>
</radialGradient>
<radialGradient id="paint11_radial_64_214" cx="0" cy="0" r="1" gradientUnits="userSpaceOnUse" gradientTransform="translate(176.606 67.9951) scale(4.29504 4.3)">
<stop stop-color="#F2C024"/>
<stop offset="1" stop-color="#F2C024"/>
</radialGradient>
<radialGradient id="paint12_radial_64_214" cx="0" cy="0" r="1" gradientUnits="userSpaceOnUse" gradientTransform="translate(166.917 129.395) scale(7.59123 7.6)">
<stop stop-color="#F2C024"/>
<stop offset="1" stop-color="#F2C024"/>
</radialGradient>
<radialGradient id="paint13_radial_64_214" cx="0" cy="0" r="1" gradientUnits="userSpaceOnUse" gradientTransform="translate(165.819 115.395) scale(6.99192 7)">
<stop stop-color="#F2C024"/>
<stop offset="1" stop-color="#F2C024"/>
</radialGradient>
<radialGradient id="paint14_radial_64_214" cx="0" cy="0" r="1" gradientUnits="userSpaceOnUse" gradientTransform="translate(167.117 100.695) scale(6.99192 7)">
<stop stop-color="#F2C024"/>
<stop offset="1" stop-color="#F2C024"/>
</radialGradient>
<radialGradient id="paint15_radial_64_214" cx="0" cy="0" r="1" gradientUnits="userSpaceOnUse" gradientTransform="translate(171.113 87.095) scale(6.99191 7)">
<stop stop-color="#F2C024"/>
<stop offset="1" stop-color="#F2C024"/>
</radialGradient>
<radialGradient id="paint16_radial_64_214" cx="0" cy="0" r="1" gradientUnits="userSpaceOnUse" gradientTransform="translate(177.905 74.195) scale(5.29388 5.3)">
<stop stop-color="#F2C024"/>
<stop offset="1" stop-color="#F2C024"/>
</radialGradient>
<radialGradient id="paint17_radial_64_214" cx="0" cy="0" r="1" gradientUnits="userSpaceOnUse" gradientTransform="translate(182.2 127.495) scale(6.89203 6.9)">
<stop stop-color="#F2C024"/>
<stop offset="1" stop-color="#F2C024"/>
</radialGradient>
<radialGradient id="paint18_radial_64_214" cx="0" cy="0" r="1" gradientUnits="userSpaceOnUse" gradientTransform="translate(178.704 113.395) scale(7.79101 7.8)">
<stop stop-color="#F2C024"/>
<stop offset="1" stop-color="#F2C024"/>
</radialGradient>
<radialGradient id="paint19_radial_64_214" cx="0" cy="0" r="1" gradientUnits="userSpaceOnUse" gradientTransform="translate(187.394 107.395) scale(7.09181 7.1)">
<stop stop-color="#F2C024"/>
<stop offset="1" stop-color="#F2C024"/>
</radialGradient>
<radialGradient id="paint20_radial_64_214" cx="0" cy="0" r="1" gradientUnits="userSpaceOnUse" gradientTransform="translate(192.388 104.395) scale(3.09642 3.1)">
<stop stop-color="#F2C024"/>
<stop offset="1" stop-color="#F2C024"/>
</radialGradient>
<radialGradient id="paint21_radial_64_214" cx="0" cy="0" r="1" gradientUnits="userSpaceOnUse" gradientTransform="translate(198.381 106.095) scale(5.29388 5.3)">
<stop stop-color="#F2C024"/>
<stop offset="1" stop-color="#F2C024"/>
</radialGradient>
<radialGradient id="paint22_radial_64_214" cx="0" cy="0" r="1" gradientUnits="userSpaceOnUse" gradientTransform="translate(170.713 130.595) scale(13.8839 13.9)">
<stop stop-color="#F2C024"/>
<stop offset="1" stop-color="#F2C024"/>
</radialGradient>
<radialGradient id="paint23_radial_64_214" cx="0" cy="0" r="1" gradientUnits="userSpaceOnUse" gradientTransform="translate(206.871 97.995) scale(5.89318 5.9)">
<stop stop-color="#F2C024"/>
<stop offset="1" stop-color="#F2C024"/>
</radialGradient>
<radialGradient id="paint24_radial_64_214" cx="0" cy="0" r="1" gradientUnits="userSpaceOnUse" gradientTransform="translate(202.876 93.3952) scale(5.39376 5.4)">
<stop stop-color="#F2C024"/>
<stop offset="1" stop-color="#F2C024"/>
</radialGradient>
<radialGradient id="paint25_radial_64_214" cx="0" cy="0" r="1" gradientUnits="userSpaceOnUse" gradientTransform="translate(207.171 92.8952) scale(1.09873 1.1)">
<stop stop-color="#F2C024"/>
<stop offset="1" stop-color="#F2C024"/>
</radialGradient>
<radialGradient id="paint26_radial_64_214" cx="0" cy="0" r="1" gradientUnits="userSpaceOnUse" gradientTransform="translate(195.185 101.395) scale(6.49249 6.5)">
<stop stop-color="#F2C024"/>
<stop offset="1" stop-color="#F2C024"/>
</radialGradient>
<radialGradient id="paint27_radial_64_214" cx="0" cy="0" r="1" gradientUnits="userSpaceOnUse" gradientTransform="translate(189.791 115.995) scale(6.39261 6.4)">
<stop stop-color="#F2C024"/>
<stop offset="1" stop-color="#F2C024"/>
</radialGradient>
<radialGradient id="paint28_radial_64_214" cx="0" cy="0" r="1" gradientUnits="userSpaceOnUse" gradientTransform="translate(210.467 91.2951) scale(4.59469 4.6)">
<stop stop-color="#F2C024"/>
<stop offset="1" stop-color="#F2C024"/>
</radialGradient>
<clipPath id="clip0_64_214">
<rect width="346" height="400" fill="white" transform="translate(0.410156 0.695068)"/>
</clipPath>
</defs>
</svg>
