<svg width="347" height="401" viewBox="0 0 347 401" fill="none" xmlns="http://www.w3.org/2000/svg">
<g clip-path="url(#clip0_64_282)">
<path d="M4.40991 104.695V296.695L173.41 396.695L342.41 296.695V104.695L173.41 4.69507L4.40991 104.695Z" fill="url(#paint0_radial_64_282)"/>
<path d="M173.41 34.1951L317.443 117.395V283.995L173.41 367.195L29.3764 283.995V117.395L173.41 34.1951ZM173.41 4.69507L4.40991 104.695V296.695L173.41 396.695L342.41 296.695V104.695L173.41 4.69507Z" fill="url(#paint1_linear_64_282)"/>
<path d="M173.41 29.5951L321.439 115.095V286.295L173.41 371.695L25.381 286.295V115.095L173.41 29.6951M173.41 4.69507L4.40991 104.695V296.695L173.41 396.695L342.41 296.695V104.695L173.41 4.69507Z" fill="url(#paint2_linear_64_282)"/>
<path d="M173.41 15.6951L333.425 108.195V293.195L173.41 385.695L13.3949 293.195V108.195L173.41 15.6951ZM173.41 4.69507L4.40991 104.695V296.695L173.41 396.695L342.41 296.695V104.695L173.41 4.69507Z" fill="#636664"/>
<path d="M173.41 13.3951L335.423 106.995V294.295L173.41 387.995L11.3972 294.295V107.095L173.41 13.3951ZM173.41 0.695068L0.409912 100.695V300.695L173.41 400.695L346.41 300.695V100.695L173.41 0.695068Z" fill="#E0B568"/>
<path d="M82.6149 136.495C81.0167 136.495 79.5185 136.895 78.22 137.595C77.3714 135.387 75.8579 133.499 73.8892 132.191C71.9205 130.883 69.5942 130.22 67.2327 130.295C61.0398 130.295 55.8458 134.995 55.8458 140.695L55.9457 141.895H55.6461C50.3522 141.895 46.0571 145.295 46.0571 149.395C46.0571 153.495 50.4521 155.295 55.7459 155.295C60.3406 155.295 62.8377 153.995 65.0352 150.795C65.8343 150.995 68.6311 148.995 69.3302 148.995C71.7275 148.795 73.7252 148.395 76.3222 146.995C78.22 147.795 81.1166 147.295 83.7136 147.295C88.1085 147.295 90.6056 146.495 90.6056 142.995C90.6056 139.495 87.0098 136.495 82.6149 136.495ZM267.102 139.295C268.182 136.366 270.149 133.847 272.727 132.091C275.305 130.334 278.367 129.427 281.485 129.495C289.775 129.495 296.468 135.795 296.468 143.495V145.195H296.767C303.759 145.195 309.353 149.695 309.353 155.195C309.353 160.695 303.659 163.195 296.667 163.195C290.575 163.195 287.278 161.395 284.382 157.195C283.383 157.395 279.787 154.695 278.788 154.695C275.792 154.395 273.095 153.895 269.599 151.995C263.805 150.395 265.903 138.695 267.102 139.295Z" fill="#6A6A6A"/>
<path d="M55.0467 142.195C51.0514 142.195 46.9561 144.795 46.9561 147.395C46.9561 149.995 50.5519 153.895 54.2477 152.195C60.5404 149.195 61.4394 148.895 61.4394 146.195C61.4394 143.495 59.0421 142.195 55.0467 142.195Z" fill="#BAC8CA"/>
<path d="M66.8332 130.695C61.4394 130.695 56.7449 134.095 56.7449 137.295C56.7449 140.495 61.3396 144.695 66.5336 143.195C70.8286 141.895 72.6265 140.195 76.3222 137.295C78.8194 135.295 72.3269 130.695 66.8332 130.695ZM83.2143 136.695C81.0168 136.595 78.5197 136.795 78.22 138.795C78.0203 141.395 80.2177 140.595 83.2143 140.595C86.2108 140.595 89.2073 141.995 89.2073 140.095C89.2073 138.195 85.6115 136.795 83.2143 136.695ZM296.568 143.695C301.662 143.195 307.155 146.295 307.455 149.895C307.755 153.595 303.56 159.295 298.765 157.295C290.475 153.895 289.276 153.595 288.877 149.995C288.477 146.395 291.374 144.095 296.568 143.695ZM280.286 129.095C287.079 128.495 293.471 132.595 293.871 137.095C294.27 141.495 288.876 147.695 282.184 146.195C276.591 144.995 273.994 142.795 268.999 139.195C265.603 136.795 273.394 129.695 280.286 129.095Z" fill="#BAC8CA"/>
<path d="M162.622 126.095C160.483 126.133 158.358 125.746 156.369 124.957C154.38 124.167 152.568 122.991 151.036 121.495C146.641 117.795 143.045 113.495 140.049 108.695C138.251 105.595 134.255 93.6951 137.052 87.8951C139.649 82.3951 144.543 78.5951 148.539 75.8951C151.14 74.0081 154.223 72.8984 157.428 72.6951C158.527 72.6951 159.626 72.8951 160.625 73.2951C162.922 74.2951 164.42 75.9951 165.719 77.4951L178.404 91.6951C181.001 94.6951 183.698 97.6951 185.896 101.195C186.695 102.395 187.494 103.995 187.893 105.795C188.393 108.295 187.693 111.195 185.896 114.095C183.684 117.358 180.785 120.097 177.403 122.118C174.02 124.139 170.237 125.395 166.318 125.795L162.722 126.095H162.622Z" fill="#E9F4EC"/>
<path d="M157.428 74.695C158.228 74.695 159.126 74.695 159.926 75.095C161.624 75.795 162.922 77.295 164.221 78.695L176.806 93.095C179.403 95.995 182 98.895 184.098 102.195C184.797 103.395 185.596 104.695 185.796 106.195C186.122 108.613 185.553 111.067 184.198 113.095C182.12 116.11 179.406 118.632 176.247 120.481C173.088 122.33 169.562 123.461 165.919 123.795C164.92 123.995 163.721 124.095 162.622 124.095C160.924 124.095 159.226 123.895 157.628 123.295C155.631 122.495 153.932 121.295 152.334 119.895C148.146 116.413 144.568 112.256 141.747 107.595C139.849 104.495 136.652 93.395 138.85 88.695C141.147 83.995 145.342 80.495 149.637 77.695C151.898 75.9763 154.6 74.9359 157.428 74.695ZM157.428 70.695C153.433 70.695 149.837 72.695 147.44 74.295C142.313 77.3568 138.104 81.7436 135.254 86.995C131.958 93.795 136.453 106.595 138.351 109.695C141.347 114.695 145.243 119.195 149.737 122.995C151.435 124.295 153.633 125.995 156.33 126.995C158.228 127.695 160.325 127.995 162.622 127.995C163.821 127.995 165.12 127.995 166.518 127.795C175.707 126.595 183.498 121.895 187.494 115.095C189.491 111.795 190.29 108.395 189.791 105.395C189.292 103.295 188.393 101.495 187.394 100.095C185.196 96.495 182.4 93.395 179.803 90.395L167.217 76.095C165.686 74.0902 163.7 72.4792 161.424 71.395C160.125 70.895 158.827 70.595 157.428 70.595V70.695Z" fill="#6A6A6A"/>
<path d="M184.098 112.995C185.488 110.981 186.093 108.526 185.796 106.095C185.496 104.695 184.797 103.395 184.098 102.195C183.698 105.195 170.114 101.195 167.417 102.195C162.423 103.895 162.622 110.995 156.829 110.195C149.837 109.195 142.845 106.295 138.151 96.1951C138.151 106.295 148.139 116.395 152.334 119.895C153.933 121.195 155.73 122.495 157.628 123.195C160.325 124.195 163.222 124.195 165.919 123.795C169.553 123.435 173.065 122.282 176.206 120.416C179.347 118.55 182.041 116.017 184.098 112.995Z" fill="#9FA5A5"/>
<path d="M140.248 136.495C135.445 136.536 130.695 135.476 126.364 133.395C122.968 131.695 120.371 128.895 119.472 125.695C118.652 120.601 118.89 115.393 120.172 110.395C120.871 107.895 122.469 104.395 125.565 102.095C125.765 101.895 127.363 100.895 129.461 100.895L130.859 100.995C133.157 101.695 134.855 103.395 136.253 104.995L142.346 112.395L145.143 115.995C146.841 118.195 148.838 120.695 149.737 123.695C150.346 125.326 150.519 127.089 150.239 128.808C149.959 130.527 149.235 132.142 148.139 133.495C146.48 135.234 144.241 136.302 141.846 136.495H140.248Z" fill="#E9F4EC"/>
<path d="M129.461 102.895H130.26C132.158 103.495 133.456 104.895 134.755 106.295C136.852 108.695 138.75 111.195 140.748 113.695L143.545 117.195C145.243 119.395 147.04 121.695 147.84 124.195C148.739 126.895 148.539 130.095 146.641 132.195C145.305 133.536 143.533 134.352 141.647 134.495H140.248C138.85 134.495 137.352 134.295 135.953 134.095C132.957 133.595 129.96 132.995 127.363 131.595C124.666 130.295 122.369 127.995 121.37 125.095C120.65 120.363 120.888 115.534 122.069 110.895C122.968 108.095 124.467 105.495 126.764 103.695C126.764 103.695 127.963 102.895 129.461 102.895ZM129.461 98.895C127.686 98.9018 125.952 99.4227 124.467 100.395L124.367 100.495C121.57 102.595 119.372 105.795 118.274 109.795C116.873 115.183 116.635 120.808 117.575 126.295C118.673 129.995 121.57 133.195 125.565 135.195C128.762 136.895 132.258 137.495 135.254 137.995C137.496 138.382 139.774 138.516 142.046 138.395C145.143 138.095 147.84 136.795 149.637 134.795C150.955 133.186 151.832 131.261 152.182 129.21C152.533 127.158 152.344 125.051 151.635 123.095C150.636 119.695 148.539 117.095 146.641 114.795L143.944 111.195C141.946 108.695 139.949 106.095 137.751 103.595C136.124 101.483 133.895 99.9138 131.359 99.095C130.659 98.895 130.06 98.895 129.361 98.895H129.461Z" fill="#6A6A6A"/>
<path d="M143.545 117.195L140.848 113.695L134.755 106.195C133.456 104.795 141.147 115.395 141.147 120.695C141.147 125.895 140.948 128.195 138.151 129.895C135.354 131.895 131.958 129.795 127.163 127.895C122.369 125.895 120.971 118.295 120.871 120.195C120.671 124.595 121.87 128.995 127.263 131.595C131.259 133.495 132.957 133.595 135.953 134.095C137.851 134.395 139.749 134.595 141.647 134.395C143.545 134.195 145.442 133.495 146.641 132.095C148.539 130.095 148.639 126.895 147.84 124.295C147.04 121.595 145.243 119.295 143.545 117.295V117.195Z" fill="#9FA5A5"/>
<path d="M225.05 130.295C223.053 130.295 221.055 129.595 218.857 128.095L217.159 127.095C216.161 126.295 215.162 125.595 214.063 125.095L213.064 124.695C211.666 124.095 210.167 123.595 209.069 122.195C207.67 120.495 207.271 117.995 208.07 115.195C209.169 110.895 212.365 107.595 214.662 105.495L217.06 103.195H217.259C218.358 102.495 219.756 102.195 221.454 101.995H222.753C227.348 101.995 231.743 103.695 234.539 106.995C236.219 108.866 237.321 111.184 237.711 113.669C238.101 116.154 237.763 118.699 236.737 120.995C236.096 122.208 235.326 123.348 234.439 124.395C232.442 126.995 229.445 129.995 225.45 130.195H225.05V130.295Z" fill="#E9F4EC"/>
<path d="M222.753 103.895C226.549 103.895 230.444 105.395 233.041 108.295C234.44 109.86 235.362 111.794 235.699 113.867C236.035 115.941 235.771 118.067 234.939 119.995L232.941 123.095C230.943 125.595 228.546 128.095 225.45 128.195H225.05C223.185 128.093 221.385 127.469 219.856 126.395C218.258 125.395 216.66 124.095 214.862 123.295C213.364 122.595 211.666 122.195 210.667 120.895C209.468 119.495 209.468 117.495 209.968 115.695C210.967 112.295 213.364 109.395 215.961 106.995L218.258 104.895C219.257 104.295 220.456 104.095 221.554 103.895H222.753ZM222.753 99.895H221.255C219.257 100.095 217.659 100.595 216.26 101.395L215.861 101.595L215.561 101.895L213.264 104.095C209.928 106.89 207.438 110.561 206.072 114.695C205.073 118.095 205.673 121.295 207.57 123.495C208.852 124.882 210.469 125.915 212.265 126.495L213.264 126.895C214.163 127.295 215.062 127.895 216.061 128.695L217.759 129.695C220.068 131.324 222.825 132.197 225.65 132.195C230.344 131.995 233.64 128.495 236.038 125.595C238.495 122.845 239.853 119.285 239.853 115.595C239.853 111.905 238.495 108.345 236.038 105.595C232.741 101.995 227.947 99.895 222.753 99.895Z" fill="#6A6A6A"/>
<path d="M233.54 108.495C230.244 105.895 233.441 110.895 232.042 112.795C231.443 113.795 229.245 116.295 227.048 115.495L219.357 115.095C216.36 116.095 211.166 112.595 210.167 116.095C209.668 117.795 209.269 119.395 210.467 120.795C211.466 121.995 214.063 122.795 215.461 123.495C217.359 124.295 218.857 125.695 220.456 126.795C222.154 127.795 223.852 128.195 225.749 128.095C228.946 127.995 231.343 125.395 233.241 122.995C234.04 121.995 234.739 120.995 235.238 119.995C237.236 116.095 236.837 111.195 233.54 108.495Z" fill="#9FA5A5"/>
<path d="M195.484 108.395C194.19 108.403 192.909 108.141 191.722 107.624C190.535 107.107 189.469 106.348 188.592 105.395C187.793 104.595 187.194 103.795 186.595 102.895L180.402 94.2951C178.904 92.2951 177.405 90.0951 176.307 87.5951C175.008 84.5951 174.609 81.5951 175.308 78.9951C175.907 76.0951 178.105 73.7951 178.304 73.4951L178.504 73.2951L178.704 73.1951C180.702 71.8951 183.299 71.1951 186.195 71.1951H186.395C188.892 71.1951 191.189 71.6951 193.687 72.1951C197.582 73.1951 200.978 73.9951 204.075 76.0951C205.573 77.0951 206.871 78.3951 208.07 79.4951C208.869 80.3951 209.968 81.3951 210.467 82.7951C211.066 84.2951 211.066 85.7951 210.967 86.7951C210.967 88.9951 210.767 90.9951 210.567 92.9951C210.569 95.9315 209.662 98.7963 207.97 101.195C205.986 104.31 202.986 106.642 199.48 107.795C198.081 108.195 196.783 108.395 195.484 108.395Z" fill="#E9F4EC"/>
<path d="M186.195 73.195H186.395C188.692 73.195 190.99 73.695 193.387 74.195C196.683 74.995 200.079 75.795 202.976 77.695C204.274 78.695 205.473 79.795 206.672 80.995C207.499 81.6851 208.178 82.5354 208.669 83.495C209.069 84.495 209.069 85.695 208.969 86.795L208.669 92.895C208.677 95.4769 207.873 97.9959 206.372 100.095C204.65 102.824 202.038 104.873 198.98 105.895C197.582 106.295 196.483 106.395 195.484 106.395C194.444 106.395 193.415 106.172 192.467 105.741C191.52 105.309 190.675 104.68 189.991 103.895C189.292 103.295 188.792 102.495 188.293 101.795L182.1 93.095C180.602 91.095 179.103 89.095 178.105 86.795C177.015 84.5267 176.666 81.973 177.106 79.495C177.705 76.995 179.803 74.895 179.803 74.895C181.732 73.7393 183.947 73.1502 186.195 73.195ZM186.195 69.195C183.172 69.1327 180.194 69.9302 177.605 71.495L177.206 71.795L176.906 72.095C176.407 72.595 174.009 75.295 173.31 78.595C172.611 81.595 173.01 84.995 174.509 88.395C175.607 91.095 177.305 93.395 178.804 95.395L184.997 104.095C185.596 104.995 186.295 105.895 187.194 106.795C189.092 108.595 191.489 110.395 195.484 110.395C196.883 110.395 198.481 110.195 200.079 109.695C204.019 108.438 207.405 105.86 209.668 102.395C211.58 99.7056 212.625 96.4957 212.665 93.195L212.964 86.995C212.964 85.795 213.064 83.995 212.365 81.995C211.666 80.195 210.367 78.995 209.468 78.095C208.27 76.995 206.871 75.595 205.173 74.395C201.577 71.895 197.282 70.995 194.186 70.395C191.489 69.695 189.092 69.195 186.495 69.195H186.195Z" fill="#6A6A6A"/>
<path d="M178.105 86.695C179.503 91.095 186.095 98.895 188.193 101.695C188.792 102.495 189.292 103.295 189.991 103.895C191.689 105.595 193.986 107.295 198.98 105.895C202.038 104.873 204.65 102.824 206.372 100.095C207.071 99.095 207.57 98.095 207.97 96.995C208.37 95.695 208.469 94.295 208.569 92.895L208.969 86.795C208.969 85.695 208.969 84.495 208.669 83.495C208.27 82.495 207.97 91.995 206.272 92.895C201.977 94.995 183.998 94.695 178.105 86.795V86.695Z" fill="#9FA5A5"/>
<path d="M189.591 148.195C188.592 148.195 187.494 147.995 186.395 147.795C183.598 146.995 181.101 145.495 179.403 144.295C176.727 142.53 174.219 140.522 171.912 138.295C167.517 133.895 165.619 129.695 166.218 125.695C166.618 122.495 168.715 119.495 171.912 117.295C174.509 115.495 177.505 114.495 180.202 113.695C182.356 112.717 184.399 111.51 186.295 110.095L187.394 109.095C188.507 107.809 189.89 106.784 191.444 106.092C192.997 105.401 194.684 105.061 196.383 105.095C198.681 105.095 201.078 105.595 203.275 106.695C207.071 108.695 210.068 111.895 212.764 115.195C214.762 117.495 216.86 120.295 218.158 123.695C219.956 128.295 219.856 133.495 217.859 138.095C217.459 138.995 216.86 140.195 215.661 141.295C214.163 142.695 212.265 143.295 210.567 143.695C208.07 144.295 205.573 144.695 202.976 144.695H201.378C199.879 144.695 198.381 144.695 197.182 145.295L196.184 145.995L194.885 146.795C193.387 147.695 191.489 148.195 189.591 148.195Z" fill="#E9F4EC"/>
<path d="M196.383 107.095C198.381 107.095 200.479 107.595 202.376 108.495C205.872 110.295 208.669 113.395 211.266 116.495C213.264 118.895 215.162 121.495 216.26 124.395C217.858 128.567 217.75 133.202 215.961 137.295C215.559 138.229 214.982 139.077 214.263 139.795C213.064 140.818 211.617 141.508 210.068 141.795C207.77 142.295 205.373 142.595 202.976 142.695H201.478C199.707 142.537 197.925 142.812 196.284 143.495L193.886 145.095C192.588 145.795 191.09 146.095 189.591 146.095C188.592 146.095 187.793 146.095 186.894 145.795C184.597 145.195 182.4 143.995 180.402 142.695C177.857 140.92 175.483 138.911 173.31 136.695C170.314 133.895 167.617 130.095 168.216 125.995C168.516 122.995 170.613 120.595 173.01 118.995C175.408 117.295 178.204 116.395 181.001 115.495C181.001 115.495 185.496 113.495 187.594 111.495C188.692 110.595 189.691 109.495 190.89 108.695C192.516 107.614 194.432 107.056 196.383 107.095ZM196.383 103.095C194.431 103.053 192.492 103.434 190.699 104.21C188.906 104.987 187.302 106.141 185.995 107.595L184.997 108.595C183.798 109.595 181.001 110.995 179.503 111.795C176.706 112.695 173.51 113.795 170.713 115.695C167.117 118.095 164.72 121.695 164.221 125.395C163.621 130.095 165.719 134.895 170.513 139.595C172.874 141.962 175.448 144.105 178.204 145.995C180.202 147.295 182.799 148.995 185.896 149.695C187.094 149.995 188.393 150.195 189.591 150.195C191.889 150.195 193.986 149.595 195.884 148.595L197.282 147.595L198.081 147.095C198.881 146.695 200.179 146.695 201.378 146.695H202.976C205.673 146.695 208.37 146.295 210.967 145.695C212.864 145.195 215.162 144.495 216.96 142.695C218.358 141.395 219.157 139.895 219.657 138.895C221.854 133.895 222.054 128.095 220.056 122.895C218.621 119.603 216.665 116.564 214.263 113.895C211.466 110.495 208.27 107.095 204.075 104.895C201.683 103.712 199.051 103.096 196.383 103.095Z" fill="#6A6A6A"/>
<path d="M211.566 116.595C209.069 113.495 207.97 112.595 206.572 111.395C203.575 108.695 215.461 125.095 212.065 127.395C210.867 128.195 208.07 130.195 206.971 131.195C204.774 132.995 192.688 134.195 192.688 134.195C189.891 134.995 183.998 133.295 178.504 130.195C175.907 128.695 168.516 123.195 168.116 126.095C167.617 130.195 170.314 134.095 173.31 136.895C175.508 139.095 178.005 141.095 180.602 142.795C182.571 144.195 184.768 145.244 187.094 145.895C189.392 146.495 191.989 146.395 194.086 145.195C194.985 144.695 195.684 144.095 196.583 143.695C198.581 142.695 200.978 142.795 203.275 142.695C205.695 142.693 208.107 142.425 210.467 141.895C211.965 141.595 213.564 141.095 214.762 139.895C215.482 139.177 216.058 138.329 216.46 137.395C218.258 133.395 218.358 128.595 216.76 124.495C215.561 121.495 213.663 118.995 211.566 116.495V116.595Z" fill="#9FA5A5"/>
</g>
<defs>
<radialGradient id="paint0_radial_64_282" cx="0" cy="0" r="1" gradientUnits="userSpaceOnUse" gradientTransform="translate(173.41 200.695) scale(186.884 187.1)">
<stop stop-color="#B7BDB9"/>
<stop offset="0.3" stop-color="#AEB4B0"/>
<stop offset="0.9" stop-color="#969C98"/>
<stop offset="1" stop-color="#909692"/>
</radialGradient>
<linearGradient id="paint1_linear_64_282" x1="173.41" y1="400.695" x2="173.41" y2="0.695072" gradientUnits="userSpaceOnUse">
<stop stop-color="#D2D9D5"/>
<stop offset="0.1" stop-color="#C8CECA"/>
<stop offset="0.3" stop-color="#B1B6B3"/>
<stop offset="0.5" stop-color="#A8ADAA"/>
<stop offset="0.7" stop-color="#636664"/>
</linearGradient>
<linearGradient id="paint2_linear_64_282" x1="173.41" y1="0.695069" x2="173.41" y2="400.695" gradientUnits="userSpaceOnUse">
<stop stop-color="#D2D9D5"/>
<stop offset="0.1" stop-color="#C8CECA"/>
<stop offset="0.3" stop-color="#B1B6B3"/>
<stop offset="0.5" stop-color="#A8ADAA"/>
<stop offset="0.7" stop-color="#636664"/>
<stop offset="1" stop-color="#A8ADAA"/>
</linearGradient>
<clipPath id="clip0_64_282">
<rect width="346" height="400" fill="white" transform="translate(0.409912 0.695068)"/>
</clipPath>
</defs>
</svg>
